<?xml version="1.0" encoding="utf-8"?>
<!-- Generator: Adobe Illustrator 27.5.0, SVG Export Plug-In . SVG Version: 6.00 Build 0)  -->
<svg version="1.1" xmlns="http://www.w3.org/2000/svg" xmlns:xlink="http://www.w3.org/1999/xlink" x="0px" y="0px"
	 viewBox="0 0 3710 3710" style="enable-background:new 0 0 3710 3710;" xml:space="preserve">
<g id="Background">
	<g>
		<g>
			<rect style="fill:#FFFFFF;" width="3710" height="3710"/>
		</g>
	</g>
</g>
<g id="Illustration">
	<g>
		<linearGradient id="SVGID_1_" gradientUnits="userSpaceOnUse" x1="3583.5317" y1="4043.9233" x2="1117.8129" y2="981.6553">
			<stop  offset="0" style="stop-color:#B37CFF"/>
			<stop  offset="1" style="stop-color:#F895E7"/>
		</linearGradient>
		<path style="opacity:0.3;fill:url(#SVGID_1_);" d="M2905.197,2836.275c-56.637,59.625-110.226,98.076-152.565,128.455
			c-497.694,357.101-1086.598,253.008-1211.757,227.587c-184.82-37.538-542.074-110.098-800.361-413.839
			c-390.768-459.535-329.919-1183.52-26.813-1661.432c55.443-87.418,348.308-572.61,943.555-650.419
			c360.237-47.089,780.158,47.884,1084.253,302.655C3379.83,1304.07,3334.388,2384.436,2905.197,2836.275z"/>
		<g>
			<g>
				
					<linearGradient id="SVGID_00000130632773610378543010000006448513611402615743_" gradientUnits="userSpaceOnUse" x1="935.123" y1="1736.5637" x2="658.9287" y2="-155.8701">
					<stop  offset="0" style="stop-color:#FDF53F"/>
					<stop  offset="1" style="stop-color:#D93C65"/>
				</linearGradient>
				<path style="fill:url(#SVGID_00000130632773610378543010000006448513611402615743_);" d="M675.99,493.265
					c-64.592,164.437-401.403,1136.713,454.195,1616.655c0,0,386.508-583.006-428.544-1620.468
					C694.51,480.376,680.209,482.522,675.99,493.265z"/>
				
					<linearGradient id="SVGID_00000049179918869071190740000010612750592165335964_" gradientUnits="userSpaceOnUse" x1="1452.1198" y1="-251.1542" x2="782.0941" y2="1677.09">
					<stop  offset="0" style="stop-color:#FDF53F"/>
					<stop  offset="1" style="stop-color:#D93C65"/>
				</linearGradient>
				<path style="fill:url(#SVGID_00000049179918869071190740000010612750592165335964_);" d="M726.942,668.785
					c-1.185,59.288,0.105,118.723,2.568,178.027c2.514,59.32,6.461,118.578,11.879,177.696
					c10.88,118.217,27.353,235.975,51.488,352.167c24.251,116.102,56.016,230.856,99.897,340.96
					c10.877,27.551,22.801,54.671,35.401,81.451c12.566,26.8,26.156,53.108,40.725,78.841
					c28.932,51.582,62.318,100.638,100.205,145.888l0.032,0.038c1.973,2.356,1.662,5.866-0.694,7.839
					c-2.356,1.973-5.866,1.662-7.84-0.693l-0.016-0.02c-38.207-46.047-71.729-95.812-100.692-147.993
					c-14.586-26.036-28.167-52.622-40.704-79.676c-12.573-27.035-24.453-54.393-35.271-82.16
					c-43.647-110.971-75-226.316-98.802-342.876c-23.683-116.649-39.656-234.729-50.022-353.203
					c-5.161-59.247-8.847-118.615-11.097-178.037c-2.199-59.43-3.226-118.874-1.768-178.4c0.032-1.301,1.113-2.331,2.414-2.299
					c1.302,0.032,2.331,1.113,2.299,2.414L726.942,668.785z"/>
			</g>
			<g>
				
					<linearGradient id="SVGID_00000068659399928143809470000005102347731051967893_" gradientUnits="userSpaceOnUse" x1="826.1867" y1="1896.6282" x2="248.2249" y2="975.9813">
					<stop  offset="0" style="stop-color:#FDF53F"/>
					<stop  offset="1" style="stop-color:#D93C65"/>
				</linearGradient>
				<path style="fill:url(#SVGID_00000068659399928143809470000005102347731051967893_);" d="M457.028,1186.477
					c-16.277,99.201-87.428,680.357,445.928,845.082c0,0,145.331-370.539-432.113-850.269
					C465.791,1177.093,458.092,1179.997,457.028,1186.477z"/>
				
					<linearGradient id="SVGID_00000070825231066373628530000017684018998733260173_" gradientUnits="userSpaceOnUse" x1="1307.9288" y1="-140.0132" x2="453.7747" y2="2233.2056">
					<stop  offset="0" style="stop-color:#FDF53F"/>
					<stop  offset="1" style="stop-color:#D93C65"/>
				</linearGradient>
				<path style="fill:url(#SVGID_00000070825231066373628530000017684018998733260173_);" d="M506.985,1275.462
					c6.696,32.304,14.693,64.434,23.167,96.371c8.538,31.935,17.795,63.677,27.694,95.211c9.877,31.542,20.545,62.831,31.893,93.861
					c11.401,31.007,23.323,61.829,36.379,92.165c25.91,60.735,55.204,120.069,89.367,176.457c4.108,7.147,8.747,13.96,13.109,20.946
					l6.638,10.419c2.209,3.475,4.621,6.812,6.92,10.226c4.686,6.766,9.229,13.635,14.03,20.316l14.679,19.835
					c20.03,26.082,41.493,51.026,64.742,74.17l0.052,0.052c2.135,2.124,2.143,5.576,0.018,7.71
					c-2.124,2.134-5.577,2.142-7.711,0.018l-0.031-0.029c-23.497-23.758-45.075-49.251-65.147-75.822l-14.694-20.188
					c-4.801-6.795-9.337-13.77-14.018-20.644c-2.296-3.466-4.705-6.861-6.908-10.386l-6.618-10.568
					c-4.347-7.084-8.973-14.002-13.058-21.238c-34.002-57.138-62.979-117.044-88.523-178.255
					c-12.873-30.574-24.594-61.608-35.788-92.811c-11.14-31.225-21.591-62.692-31.245-94.396
					c-9.675-31.699-18.703-63.591-27.007-95.671c-8.246-32.104-15.993-64.298-22.475-96.868c-0.25-1.25,0.563-2.467,1.814-2.715
					c1.245-0.248,2.455,0.554,2.712,1.795L506.985,1275.462z"/>
			</g>
		</g>
		<g>
			<g>
				<g>
					<path style="fill:#EAC4F9;" d="M2348.942,1024.567c-1.49-0.563-2.6-1.936-2.723-3.598c-0.409-5.482-0.709-11.064-0.892-16.59
						c-0.075-2.27,1.735-4.141,4.044-4.18c5.596-0.126,4.082,5.458,5.189,20.293c0.171,2.266-1.56,4.211-3.864,4.342
						C2350.081,1024.869,2349.487,1024.773,2348.942,1024.567z"/>
					<path style="fill:#EAC4F9;" d="M2346.991,952.695c1.024-10.511,2.488-21.109,4.35-31.499c0.4-2.23,2.568-3.692,4.843-3.265
						c6.194,1.201,2.155,4.692-0.867,35.67c-0.22,2.258-2.261,3.883-4.561,3.632
						C2348.425,956.978,2346.773,954.924,2346.991,952.695z M2363.67,871.093c3.188-10.115,6.838-20.292,10.729-29.891
						c2.084-5.163,9.783-1.807,7.776,3.138c-3.871,9.574-7.393,19.393-10.512,29.293c-0.68,2.16-3.022,3.341-5.229,2.64
						C2364.204,875.562,2362.997,873.23,2363.67,871.093z M2396.792,794.734c5.186-9.181,10.813-18.271,16.727-27.02
						c3.052-4.508,10.022,0.134,6.989,4.62c-5.795,8.573-11.309,17.48-16.388,26.473
						C2401.446,803.539,2394.126,799.45,2396.792,794.734z M2445.661,732.658c-1.752-1.505-1.953-4.103-0.446-5.802
						c7.008-7.915,14.435-15.655,22.071-23.006c3.926-3.778,9.822,2.139,5.899,5.917c-7.481,7.202-14.759,14.786-21.628,22.54
						C2450.052,734.008,2447.408,734.165,2445.661,732.658z M2506.124,676.11c-1.409-1.82-1.067-4.395,0.764-5.753
						c8.531-6.326,17.423-12.394,26.429-18.035c4.637-2.891,9.205,4.049,4.57,6.955c-8.825,5.528-17.539,11.473-25.898,17.672
						C2510.161,678.304,2507.533,677.929,2506.124,676.11z M2579.489,635.083c-0.979-0.37-1.822-1.093-2.313-2.095
						c-1.01-2.056-0.144-4.504,1.935-5.465c9.688-4.479,19.668-8.632,29.667-12.345c2.151-0.798,4.575,0.276,5.422,2.404
						c0.843,2.126-0.214,4.495-2.363,5.294c-9.799,3.637-19.58,7.709-29.074,12.099
						C2581.697,635.466,2580.519,635.472,2579.489,635.083z M2658.438,607.929c-1.251-0.472-2.259-1.519-2.611-2.888
						c-0.566-2.21,0.791-4.425,3.029-4.949c10.423-2.437,21.082-4.498,31.681-6.123c2.275-0.354,4.439,1.182,4.827,3.43
						c0.39,2.242-1.14,4.344-3.417,4.693c-10.384,1.593-20.829,3.613-31.04,6.001
						C2660.058,608.293,2659.202,608.218,2658.438,607.929z M2738.869,593.505c-0.097-2.27,1.696-4.158,4.004-4.219
						c10.734-0.283,21.634-0.147,32.396,0.401c5.543,0.297,5.206,8.49-0.308,8.21c-10.542-0.537-21.221-0.668-31.738-0.392
						C2740.921,597.567,2738.966,595.779,2738.869,593.505z M3006.795,682.81c-25.049-19.129-30.682-18.82-27.245-24.006
						c1.251-1.892,3.836-2.396,5.779-1.144c9.043,5.859,17.97,12.146,26.534,18.686C3016.26,679.7,3011.208,686.172,3006.795,682.81
						z M2822.819,598.971c0.377-2.234,2.529-3.717,4.808-3.312c10.599,1.883,21.273,4.199,31.726,6.887
						c5.373,1.383,3.364,9.333-2.001,7.952c-10.244-2.633-20.705-4.904-31.09-6.75
						C2823.957,603.336,2822.446,601.182,2822.819,598.971z M2935.752,639.157c-28.349-13.704-33.868-12.294-31.585-18.097
						c1.448-3.68,5.907-2.304,5.405-2.283c10.07,3.951,20.089,8.33,29.778,13.01c2.086,1.008,2.969,3.475,1.976,5.508
						C2940.377,639.239,2937.971,640.195,2935.752,639.157z"/>
					<path style="fill:#EAC4F9;" d="M3057.452,728.626c-9.604-10.259-15.565-13.735-11.57-17.649
						c1.62-1.589,4.269-1.578,5.914,0.054c10.36,10.209,15.556,14.28,11.568,17.881
						C3062.168,729.992,3059.027,730.302,3057.452,728.626z"/>
				</g>
				<g>
					<path style="fill:#EAC4F9;" d="M3169.312,1028.246c-1.672-0.632-2.825-2.274-2.725-4.114
						c0.291-5.401,0.471-10.868,0.537-16.252c0.028-2.27,1.923-4.059,4.233-3.998c2.304,0.068,4.158,1.949,4.132,4.222
						c-0.068,5.494-0.253,11.072-0.549,16.585c-0.122,2.265-2.091,3.977-4.397,3.823
						C3170.111,1028.484,3169.697,1028.392,3169.312,1028.246z"/>
					<path style="fill:#EAC4F9;" d="M2605.301,1373.474c-10.76-4.402-21.46-9.301-31.805-14.565
						c-2.064-1.049-2.897-3.533-1.859-5.546c2.926-5.67,5.296-0.353,36.777,12.528c2.145,0.876,3.185,3.285,2.324,5.379
						C2609.236,1374.93,2604.799,1373.49,2605.301,1373.474z M2656.153,1386.443c1.585-6.169,5.243-1.456,38.529,4.429
						c2.285,0.392,3.822,2.543,3.448,4.774c-0.376,2.235-2.528,3.72-4.805,3.318c-11.391-2.013-22.876-4.533-34.137-7.487
						C2656.932,1390.882,2655.593,1388.622,2656.153,1386.443z M2524.726,1329.82c-9.53-6.597-18.908-13.677-27.868-21.046
						c-1.784-1.468-2.043-4.062-0.576-5.795c4.134-4.885,5.25,0.804,33.19,20.14c1.902,1.317,2.381,3.884,1.072,5.734
						C2529.231,1330.701,2526.63,1331.133,2524.726,1329.82z M2748.373,1404.805c-1.634-0.617-2.779-2.198-2.731-4.005
						c0.06-2.269,1.98-4.031,4.289-3.938c11.362,0.459,22.856,0.447,34.163-0.036c2.312-0.098,4.285,1.659,4.42,3.927
						c0.136,2.27-1.623,4.188-3.928,4.286c-11.543,0.495-23.276,0.506-34.873,0.037
						C2749.244,1405.057,2748.791,1404.963,2748.373,1404.805z M2838.475,1398.608c-1.32-0.499-2.363-1.637-2.658-3.099
						c-0.448-2.232,1.024-4.373,3.291-4.782c11.12-2,22.291-4.496,33.206-7.418c2.221-0.595,4.535,0.701,5.174,2.892
						c0.637,2.192-0.645,4.45-2.863,5.043c-11.139,2.983-22.542,5.529-33.893,7.572
						C2839.95,1398.957,2839.174,1398.871,2838.475,1398.608z M2924.722,1373.104c-1.025-0.387-1.9-1.163-2.377-2.231
						c-0.933-2.09,0.024-4.503,2.136-5.389c10.378-4.351,20.692-9.193,30.659-14.39c2.029-1.054,4.566-0.284,5.675,1.724
						c1.106,2.01,0.36,4.496-1.668,5.553c-10.169,5.303-20.695,10.242-31.286,14.684
						C2926.825,1373.488,2925.705,1373.476,2924.722,1373.104z M3002.982,1329.641c-0.739-0.279-1.411-0.766-1.915-1.444
						c-1.37-1.848-0.974-4.416,0.885-5.735c9.135-6.481,18.097-13.432,26.639-20.654c1.737-1.47,4.377-1.263,5.9,0.473
						c1.522,1.73,1.348,4.324-0.391,5.793c-8.717,7.373-17.862,14.466-27.186,21.081
						C3005.738,1329.989,3004.258,1330.123,3002.982,1329.641z M3068.188,1269.521c-4.907-4.258,0.869-5.11,20.873-31.775
						c3.257-4.344,10.02,0.597,6.757,4.944c-6.825,9.097-14.136,18.017-21.731,26.506
						C3072.579,1270.88,3069.941,1271.043,3068.188,1269.521z M3120.328,1197.559c-5.728-3.102-0.331-5.149,13.157-35.606
						c2.188-4.938,9.879-1.59,7.678,3.375c-4.602,10.394-9.708,20.701-15.174,30.636
						C3124.881,1197.978,3122.309,1198.652,3120.328,1197.559z M3154.586,1115.787c-2.023-0.764-3.167-2.933-2.574-5.001
						c3.072-10.748,5.712-21.712,7.843-32.587c0.437-2.222,2.628-3.649,4.897-3.188c2.274,0.476,3.753,2.639,3.318,4.862
						c-2.176,11.097-4.868,22.283-8.005,33.248c-0.621,2.177-2.928,3.419-5.154,2.773
						C3154.8,1115.864,3154.692,1115.827,3154.586,1115.787z"/>
					<path style="fill:#EAC4F9;" d="M2455.461,1269.734c-9.891-10.68-14.878-14.966-10.721-18.377
						c4.324-3.551,6.744,1.955,16.868,12.894c1.567,1.692,1.459,4.291-0.238,5.804
						C2459.673,1271.569,2457.027,1271.424,2455.461,1269.734z"/>
				</g>
				<g>
					<g>
						
							<linearGradient id="SVGID_00000105404919306356699640000004351830179730489783_" gradientUnits="userSpaceOnUse" x1="2637.9553" y1="73.2304" x2="3275.4116" y2="73.2304" gradientTransform="matrix(0.8863 0.4631 -0.4631 0.8863 174.6547 -439.9146)">
							<stop  offset="0" style="stop-color:#CE1567"/>
							<stop  offset="1" style="stop-color:#7A1DBC"/>
						</linearGradient>
						<path style="fill:url(#SVGID_00000105404919306356699640000004351830179730489783_);" d="M2501.189,1165.817l59.437-7.361
							c18.109,21.301,39.759,39.969,64.455,54.993c2.319,57.312-1.581,61.495,4.545,63.536l68.499,22.82
							c2.001,0.666,4.194,0.017,5.459-1.615l36.075-46.57c28.75,2.778,57.231,0.814,84.445-5.39l43.24,41.566
							c1.516,1.456,3.791,1.821,5.664,0.909l64.121-31.238c1.874-0.913,2.934-2.903,2.64-4.954l-8.387-58.543
							c21.398-17.48,40.063-38.483,54.976-62.533l59.977-0.223c2.104-0.007,3.95-1.327,4.599-3.284l22.181-66.996
							c0.648-1.958-0.045-4.124-1.726-5.392l-47.928-36.169c2.394-28.221-0.037-56.251-6.76-83.099
							c39.792-41.758,45.385-41.793,42.476-47.434c-33.217-61.729-31.324-66.983-37.833-66.179l-59.437,7.36
							c-18.108-21.302-39.76-39.969-64.454-54.993c-2.317-57.277,1.583-61.493-4.544-63.538
							c-68.447-21.503-70.082-26.212-73.959-21.204l-36.075,46.571c-28.749-2.781-57.231-0.816-84.446,5.388
							c-42.563-39.266-43.122-45.292-48.903-42.474c-62.905,32.028-67.665,29.868-66.76,36.192l8.386,58.543
							c-21.399,17.48-40.063,38.483-54.975,62.533c-57.251,1.387-62.553-2.611-64.576,3.508
							c-20.752,66.67-25.639,68.473-20.455,72.387l47.928,36.17c-2.393,28.219,0.038,56.25,6.76,83.098
							c-39.656,41.616-45.395,41.763-42.475,47.434C2496.573,1161.366,2494.68,1166.621,2501.189,1165.817z"/>
					</g>
					<path style="fill:#FFFFFF;" d="M2691.212,988.653c2.549-37.928,36.048-66.279,74.676-63.2
						c38.623,3.091,67.979,36.442,65.432,74.37c-2.551,37.927-36.048,66.279-74.676,63.201l0,0
						C2718.007,1059.945,2688.664,1026.572,2691.212,988.653z M2757.057,1056.878l0.038,0.015L2757.057,1056.878z M2765.062,937.747
						c-31.353-2.501-59.207,20.286-61.329,51.904c-2.095,31.15,22.011,58.56,53.737,61.08c31.724,2.528,59.238-20.756,61.33-51.905
						C2820.897,967.629,2796.729,940.265,2765.062,937.747z"/>
					<path style="fill:#FFFFFF;" d="M2700.154,1158.487L2700.154,1158.487c-9.734-3.676-19.142-8.156-28.051-13.365
						c-2.679-1.566-3.779-4.756-2.744-7.502c0.124-0.328,0.278-0.648,0.463-0.959c1.738-2.921,5.587-3.861,8.574-2.115
						c10.247,5.99,21.212,10.945,32.581,14.741l0,0c85.662,28.536,177.754-14.579,208.661-96.404
						c0.789-2.089,1.538-4.205,2.247-6.344c28.618-86.445-20.028-179.654-107.73-208.897
						c-87.582-29.177-182.323,16.542-210.908,102.748c-16.986,51.321-2.141,85.759-4.136,91.042c-2.156,5.709-10.605,5.041-12-0.921
						c-7.625-32.573-5.929-67.704,6.616-100.918c54.135-143.312,258.077-152.04,329.146-14.225
						c21.872,42.41,25.76,90.406,10.945,135.147c-0.765,2.315-1.578,4.607-2.433,6.877c-15.694,41.561-46.333,75.068-86.937,94.85
						c-42.82,20.858-91.594,23.954-137.337,8.715C2704.776,1160.182,2702.455,1159.356,2700.154,1158.487z"/>
				</g>
			</g>
			<g>
				<g>
					
						<linearGradient id="SVGID_00000145747299120638838100000013287074513888099756_" gradientUnits="userSpaceOnUse" x1="2787.813" y1="-673.1656" x2="2872.9385" y2="-41.8214" gradientTransform="matrix(0.9355 0.3533 -0.3533 0.9355 -622.325 270.1349)">
						<stop  offset="0" style="stop-color:#CE1567"/>
						<stop  offset="1" style="stop-color:#7A1DBC"/>
					</linearGradient>
					<path style="fill:url(#SVGID_00000145747299120638838100000013287074513888099756_);" d="M2021.933,1124.242
						c11.632,11.897,25.246,22.026,40.501,29.801l3.227,35.459c0.356,3.935,3.618,2.172,43.714,12.791
						c3.706,0.911,3.066-2.444,22.474-31.166c17.122,0.191,33.88-2.46,49.705-7.6l27.373,22.807
						c3.043,2.53,4.094-1.023,39.954-21.867c1.069-0.647,1.609-1.9,1.347-3.12l-7.498-34.831
						c11.897-11.632,22.025-25.246,29.801-40.501c33.822-3.791,37.107-1.668,38.037-5.442c9.391-41.268,12.19-42.571,8.959-44.657
						l-29.912-19.315c0.192-17.122-2.46-33.88-7.6-49.705l22.807-27.373c2.53-3.035-1.022-4.094-21.866-39.953
						c-1.964-3.253-3.747-0.47-37.951,6.151c-11.632-11.898-25.245-22.025-40.501-29.802l-3.227-35.46
						c-0.359-3.939-3.619-2.172-43.714-12.79c-3.685-0.908-2.968,2.299-22.473,31.166c-17.122-0.193-33.881,2.46-49.706,7.6
						l-27.372-22.807c-0.959-0.8-2.322-0.902-3.389-0.256l-36.565,22.122c-1.068,0.646-1.61,1.9-1.347,3.121l7.498,34.83
						c-11.897,11.632-22.024,25.245-29.801,40.501c-33.822,3.79-37.111,1.668-38.036,5.443
						c-9.388,41.252-12.192,42.567-8.959,44.656l29.911,19.315c-0.191,17.122,2.46,33.88,7.6,49.705
						c-21.236,26.595-25.081,27.425-23.063,30.762l22.122,36.565C1985.96,1133.662,1987.904,1130.829,2021.933,1124.242z"/>
				</g>
				<g>
					<path style="fill:#FFFFFF;" d="M2088.876,1015.248c-0.145-24.646,19.677-44.712,44.329-44.858
						c24.638-0.148,44.71,19.676,44.856,44.324c0.146,24.587-19.739,44.712-44.327,44.86l0,0
						C2109.145,1059.717,2089.025,1039.84,2088.876,1015.248z M2133.693,1052.929l0.041,0.015L2133.693,1052.929z
						 M2102.167,1015.167c0.107,17.263,14.237,31.219,31.487,31.118l0,0c27.716-0.169,41.602-34.016,21.818-53.568
						C2135.774,973.255,2102,987.271,2102.167,1015.167z"/>
					<g>
						<path style="fill:#EAC4F9;" d="M1914.915,1097.328c-2.114-5.601-4.034-11.365-5.708-17.133
							c-0.682-2.35,0.669-4.807,3.019-5.489c5.913-1.717,5.533,5.049,10.979,19.496c0.865,2.29-0.292,4.845-2.582,5.708
							C1918.344,1100.771,1915.782,1099.628,1914.915,1097.328z"/>
						<path style="fill:#EAC4F9;" d="M1900.061,1021.678c-0.336-11.758,0.201-24.063,1.777-36.45
							c0.741-5.827,9.527-4.678,8.79,1.118c-4.084,32.092,1.398,39.43-6.014,39.636
							C1902.148,1026.049,1900.13,1024.11,1900.061,1021.678z M1919.187,933.663c-2.27-0.913-3.37-3.493-2.459-5.764
							c4.528-11.26,9.987-22.261,16.232-32.697c3.012-5.025,10.614-0.483,7.605,4.551c-6.007,10.038-11.261,20.619-15.613,31.45
							C1923.347,935.189,1918.652,933.687,1919.187,933.663z M1971.079,855.95c-0.581-0.219-1.124-0.563-1.588-1.032
							c-1.719-1.743-1.698-4.547,0.043-6.267c8.652-8.532,18.038-16.447,27.898-23.525c1.985-1.424,4.76-0.97,6.182,1.015
							c1.428,1.987,0.973,4.757-1.014,6.182c-9.487,6.811-18.517,14.428-26.841,22.638
							C1974.484,856.214,1972.647,856.542,1971.079,855.95z M2049.537,805.255c-1.139-0.43-2.098-1.327-2.569-2.552
							c-0.881-2.282,0.256-4.847,2.54-5.726c11.33-4.369,23.1-7.871,34.984-10.408c2.396-0.508,4.748,1.016,5.259,3.41
							c0.509,2.392-1.016,4.746-3.41,5.257c-11.429,2.438-22.75,5.804-33.647,10.006
							C2051.637,805.651,2050.518,805.626,2049.537,805.255z M2138.872,785.865c0.104-2.444,2.168-4.345,4.613-4.242
							c12.174,0.512,24.365,1.98,36.24,4.366c5.731,1.124,4.017,9.842-1.746,8.687c-11.421-2.295-23.152-3.708-34.864-4.198
							C2140.61,790.363,2138.774,788.26,2138.872,785.865z"/>
						<path style="fill:#EAC4F9;" d="M2247.425,821.265c-14.001-8.254-19.951-8.788-17.323-14.16
							c1.075-2.198,3.679-3.14,5.927-2.032c5.362,2.622,10.709,5.502,15.897,8.559c2.107,1.242,2.808,3.958,1.566,6.067
							C2252.268,821.774,2249.581,822.523,2247.425,821.265z"/>
					</g>
					<g>
						<path style="fill:#EAC4F9;" d="M2353.798,970.627c-3.207-15.997-6.769-20.735-1.01-22.359
							c2.358-0.666,4.802,0.706,5.467,3.059c1.624,5.747,3.049,11.654,4.23,17.558c0.481,2.399-1.074,4.735-3.473,5.214
							C2356.621,974.581,2354.278,973.029,2353.798,970.627z"/>
						<path style="fill:#EAC4F9;" d="M2072.54,1235.895c1.811-7.133,7.548-0.325,39.411,2.704c5.819,0.541,5.011,9.376-0.839,8.822
							c-11.915-1.133-23.816-3.2-35.371-6.14C2073.408,1240.693,2071.927,1238.297,2072.54,1235.895z M2164.261,1242.037
							c-0.371-2.417,1.286-4.68,3.707-5.052c31.902-4.907,36.935-12.029,39.177-4.99c0.74,2.333-0.551,4.824-2.881,5.565
							c-11.375,3.612-23.133,6.368-34.951,8.184C2166.892,1246.114,2164.635,1244.455,2164.261,1242.037z M2251.001,1211.708
							c-3.909-6.258,4.904-5.63,29.2-26.598c4.439-3.823,10.232,2.877,5.79,6.71c-9.055,7.811-18.773,14.979-28.886,21.297
							C2255.034,1214.411,2252.298,1213.785,2251.001,1211.708z M2318.848,1149.698c-6.06-4.239,2.328-7.109,16.462-35.907
							c2.577-5.256,10.54-1.365,7.956,3.902c-5.258,10.714-11.397,21.114-18.248,30.913
							C2323.613,1150.615,2320.85,1151.094,2318.848,1149.698z M2353.486,1060.794c6.551-31.58,1.645-38.832,9.037-38.455
							c2.447,0.122,4.324,2.204,4.201,4.648c-0.608,11.968-2.142,23.947-4.563,35.608c-0.497,2.395-2.841,3.935-5.239,3.437
							C2354.532,1065.536,2352.988,1063.194,2353.486,1060.794z"/>
						<path style="fill:#EAC4F9;" d="M2021.353,1219.835c-5.26-2.886-10.469-6.01-15.482-9.286
							c-2.047-1.339-2.622-4.084-1.283-6.134c3.372-5.155,7.467,0.212,21.028,7.65c2.145,1.178,2.929,3.87,1.754,6.016
							C2026.174,1220.257,2023.457,1220.995,2021.353,1219.835z"/>
					</g>
					<path style="fill:#FFFFFF;" d="M2086.236,1113.203c-3.788-1.823-4.815-5.887-3.297-9.001c1.61-3.3,5.621-4.664,8.886-3.061
						c6.124,2.986,12.624,5.339,19.323,6.989c1.444,0.071,36.082,11.128,72.995-11.135c73.197-44.29,56.285-155.771-26.883-176.228
						c-47.848-11.774-96.305,14.54-113.295,59.537c-17.116,45.317,7.358,66.533-6.402,70.76c-3.507,1.082-7.225-0.886-8.306-4.395
						c-5.829-18.92-6.395-39.131-1.639-58.452c14.427-58.671,73.959-94.839,132.82-80.355
						c63.337,15.581,99.892,83.353,76.387,145.584c-18.953,50.193-73.365,81.248-128.854,67.59c0,0,0,0-0.002-0.001
						C2100.461,1119.186,2093.146,1116.552,2086.236,1113.203z"/>
				</g>
			</g>
		</g>
		<g>
			<g>
				
					<linearGradient id="SVGID_00000125602719038186366090000009433415924556865165_" gradientUnits="userSpaceOnUse" x1="2010.3009" y1="3240.8687" x2="1976.6228" y2="2574.0476">
					<stop  offset="0" style="stop-color:#2B3582"/>
					<stop  offset="1" style="stop-color:#150E42"/>
				</linearGradient>
				<polygon style="fill:url(#SVGID_00000125602719038186366090000009433415924556865165_);" points="1728.863,2483.851 
					1672.928,2985.507 2321.879,2985.507 2237.353,2483.851 				"/>
				
					<linearGradient id="SVGID_00000008842844583492188990000006786012128058350244_" gradientUnits="userSpaceOnUse" x1="599.6336" y1="1843.3604" x2="3265.2073" y2="1843.3604">
					<stop  offset="0" style="stop-color:#2B3582"/>
					<stop  offset="1" style="stop-color:#150E42"/>
				</linearGradient>
				<path style="fill:url(#SVGID_00000008842844583492188990000006786012128058350244_);" d="M599.634,1212.023v1182.253
					c0,97.256,77.501,176.788,174.725,179.295c431.817,11.135,1942.102,38.135,2353.162,32.075
					c70.65-1.041,127.884-57.579,129.922-128.207c7.927-274.654,20.8-935.103-26.84-1241.724
					c-10.032-64.571-64.536-112.856-129.849-114.945c-361.808-11.574-1962.809-48.327-2373.677-39.099
					C656.216,1083.262,599.634,1141.145,599.634,1212.023z"/>
				
					<linearGradient id="SVGID_00000163068676067322849750000004072939404393715604_" gradientUnits="userSpaceOnUse" x1="2178.7747" y1="1115.9464" x2="913.3094" y2="4420.5239">
					<stop  offset="0" style="stop-color:#53D8FF"/>
					<stop  offset="1" style="stop-color:#3840F7"/>
				</linearGradient>
				<path style="fill:url(#SVGID_00000163068676067322849750000004072939404393715604_);" d="M673.817,1206.268V2329.49
					c0,56.783,45.581,103.052,102.359,103.901l2292.208,28.319c56.29,0.841,102.431-44.446,102.641-100.743l3.834-1113.186
					c0.15-40.253-31.919-73.235-72.161-74.214l-2346.796-47.411C710.894,1125.06,673.817,1161.247,673.817,1206.268z"/>
				
					<linearGradient id="SVGID_00000111897639705101731690000000866727427125589160_" gradientUnits="userSpaceOnUse" x1="1926.9915" y1="282.5739" x2="1909.9399" y2="3440.2036">
					<stop  offset="0" style="stop-color:#53D8FF"/>
					<stop  offset="1" style="stop-color:#3840F7"/>
				</linearGradient>
				<path style="fill:url(#SVGID_00000111897639705101731690000000866727427125589160_);" d="M714.419,1263.811v1035.413
					c0,52.344,43.968,94.996,98.735,95.778l2211.058,26.105c54.297,0.776,98.805-40.972,99.007-92.867l3.699-1026.162
					c0.145-37.106-30.789-67.51-69.606-68.412l-2263.713-43.705C750.184,1188.952,714.419,1222.309,714.419,1263.811z"/>
				<path style="opacity:0.65;fill:#FFFFFF;" d="M3188.282,2508.25c-0.022,0-0.042,0-0.064,0l-2514.463-42.842
					c-2.034-0.037-3.656-1.714-3.621-3.748c0.033-2.034,1.692-3.637,3.746-3.623l2514.463,42.842
					c2.034,0.037,3.656,1.714,3.621,3.748C3191.931,2506.639,3190.287,2508.25,3188.282,2508.25z"/>
				
					<linearGradient id="SVGID_00000117660497718020240280000016714930198273367983_" gradientUnits="userSpaceOnUse" x1="2012.397" y1="2989.2505" x2="1702.5602" y2="3669.5435">
					<stop  offset="0" style="stop-color:#2B3582"/>
					<stop  offset="1" style="stop-color:#150E42"/>
				</linearGradient>
				<path style="fill:url(#SVGID_00000117660497718020240280000016714930198273367983_);" d="M2461.663,3088.145h-949.784
					c-25.803,0-45.18-18.369-40.191-38.1l12.188-48.199c3.665-14.495,19.611-25.137,38.552-25.728l915.626-28.571
					c19.788-0.617,37.309,9.886,41.62,24.951l21.97,76.77C2507.352,3069.213,2487.882,3088.145,2461.663,3088.145z"/>
			</g>
			
				<linearGradient id="SVGID_00000051376552688951959770000014074591335308739456_" gradientUnits="userSpaceOnUse" x1="2192.907" y1="304.2834" x2="1732.4279" y2="1986.9111">
				<stop  offset="0" style="stop-color:#53D8FF"/>
				<stop  offset="1" style="stop-color:#3840F7"/>
			</linearGradient>
			<path style="fill:url(#SVGID_00000051376552688951959770000014074591335308739456_);" d="M3126.76,1346.597l0.158-44.228
				c0.145-37.106-30.79-67.655-69.606-68.558l-2264.015-43.777c-43.414-1.009-79.48,32.275-79.48,73.776v82.787H3126.76z"/>
			
				<ellipse transform="matrix(0.7071 -0.7071 0.7071 0.7071 -51.617 2469.0647)" style="fill:#FFFFFF;" cx="2954.616" cy="1296.84" rx="20.147" ry="20.147"/>
			
				<ellipse transform="matrix(0.7071 -0.7071 0.7071 0.7071 -71.493 2421.0798)" style="fill:#FFFFFF;" cx="2886.755" cy="1296.84" rx="20.147" ry="20.147"/>
			
				<ellipse transform="matrix(0.9239 -0.3827 0.3827 0.9239 -282.3253 1174.335)" style="fill:#FFFFFF;" cx="2810.725" cy="1296.84" rx="20.147" ry="20.147"/>
			<path style="opacity:0.61;fill:#FFFFFF;" d="M2409.03,2176.918l-1583.419-18.246c-24.157-0.278-43.594-19.941-43.594-44.1
				v-672.271c0-24.533,20.021-44.35,44.552-44.1l1583.419,16.15c24.18,0.247,43.653,19.918,43.653,44.1v674.367
				C2453.64,2157.374,2433.584,2177.201,2409.03,2176.918z"/>
			<path style="opacity:0.61;fill:#FFFFFF;" d="M3039.82,1700.103l-495.837-14.694c-23.026-0.682-41.339-19.546-41.339-42.583
				v-182.68c0-23.268,18.669-42.232,41.935-42.596l495.838-7.76c23.786-0.372,43.268,18.807,43.268,42.596v205.134
				C3083.683,1681.543,3063.832,1700.814,3039.82,1700.103z"/>
			<path style="opacity:0.61;fill:#FFFFFF;" d="M3001.975,2367.563l-460.577-13.649c-23.027-0.682-41.339-19.546-41.339-42.583
				l2.219-210.941c0.201-19.087,15.968-34.325,35.05-33.876l500.503,11.781c23.786-0.372,43.268,18.807,43.268,42.596v169.858
				C3081.098,2334.083,3045.289,2368.847,3001.975,2367.563z"/>
			<path style="opacity:0.61;fill:#FFFFFF;" d="M3037.235,2048.767l-495.837-15.669c-23.027-0.728-41.339-20.844-41.339-45.41
				l2.165-224.509c0.23-23.879,18.852-42.872,41.232-42.054l494.375,18.055c23.786-0.397,43.268,20.056,43.268,45.424v218.753
				C3081.098,2028.975,3061.247,2049.526,3037.235,2048.767z"/>
			<path style="opacity:0.61;fill:#FFFFFF;" d="M2428.181,2273.231l-1602.819-7.173c-13.919-0.062-25.159-8.596-25.159-19.101
				v-12.815c0-10.597,11.431-19.168,25.472-19.1l1602.819,7.771c13.914,0.068,25.147,8.599,25.147,19.101v12.216
				C2453.64,2264.723,2442.217,2273.293,2428.181,2273.231z"/>
			<path style="opacity:0.61;fill:#FFFFFF;" d="M1676.26,2361.172L812.623,2354c-7.5-0.062-13.556-8.596-13.556-19.101v-12.814
				c0-10.597,6.159-19.168,13.725-19.101l863.637,7.771c7.497,0.067,13.55,8.599,13.55,19.1v12.216
				C1689.978,2352.665,1683.823,2361.235,1676.26,2361.172z"/>
		</g>
		<g>
			<g>
				
					<linearGradient id="SVGID_00000140016717403019886540000003203363001216611258_" gradientUnits="userSpaceOnUse" x1="1293.239" y1="2113.3523" x2="2222.124" y2="2113.3523" gradientTransform="matrix(-0.9554 -0.2955 -0.2955 0.9554 5383.0181 888.7548)">
					<stop  offset="0" style="stop-color:#2B3582"/>
					<stop  offset="1" style="stop-color:#150E42"/>
				</linearGradient>
				<path style="fill:url(#SVGID_00000140016717403019886540000003203363001216611258_);" d="M2387.34,1941.255l732.229,555.428
					c30.711,23.294,35.067,67.812,9.458,96.62l-4.205,4.73c-22.66,25.488-61.738,27.657-87.078,4.834l-686.548-618.344
					L2387.34,1941.255z"/>
				
					<linearGradient id="SVGID_00000054978421811671417150000001574298165420273313_" gradientUnits="userSpaceOnUse" x1="1149.5469" y1="1392.3892" x2="1149.5469" y2="2621.1028" gradientTransform="matrix(-0.9972 0.0741 0.0741 0.9972 3091.3264 -42.6664)">
					<stop  offset="0" style="stop-color:#2B3582"/>
					<stop  offset="1" style="stop-color:#150E42"/>
				</linearGradient>
				<path style="fill:url(#SVGID_00000054978421811671417150000001574298165420273313_);" d="M1610.736,1503.205
					c-76.003,245.791,65.298,507.785,315.603,585.183c250.304,77.398,514.828-59.109,590.83-304.899
					c76.001-245.788-65.299-507.785-315.603-585.183C1951.263,1120.908,1686.738,1257.418,1610.736,1503.205z M1677.312,1523.792
					c64.838-209.683,290.505-326.139,504.041-260.11c213.535,66.028,334.08,289.538,269.242,499.221
					c-64.837,209.685-290.504,326.139-504.039,260.11C1733.019,1956.985,1612.474,1733.478,1677.312,1523.792z"/>
				<path style="fill:#FFFFFF;" d="M2465.898,1826.473c-0.858-0.39-1.237-1.402-0.848-2.261c4.557-10.02,8.775-20.341,12.54-30.683
					c0.323-0.884,1.299-1.346,2.19-1.022c0.887,0.324,1.344,1.302,1.021,2.19c-3.795,10.423-8.048,20.829-12.641,30.93
					c-0.302,0.665-0.982,1.043-1.671,0.997C2466.29,1826.61,2466.091,1826.563,2465.898,1826.473z M2501.768,1701.21
					c-0.937-0.114-1.601-0.967-1.486-1.904c3.673-29.86,4.146-60.206,1.406-90.196c-16.145-176.72-137.86-325.319-310.086-378.575
					c-80.319-24.836-165.288-26.668-245.732-5.297c-0.911,0.247-1.849-0.301-2.089-1.214c-0.241-0.911,0.301-1.847,1.214-2.089
					c81.061-21.534,166.689-19.686,247.616,5.335c86.051,26.609,161.097,77.409,217.026,146.91
					c54.627,67.881,87.635,149.012,95.455,234.62c2.761,30.232,2.285,60.822-1.419,90.924c-0.11,0.904-0.91,1.557-1.809,1.495
					C2501.831,1701.218,2501.799,1701.216,2501.768,1701.21z"/>
				<path style="fill:#FFFFFF;" d="M3070.573,2598.778c0.057,0.004,0.115,0.004,0.174,0.002
					c27.982-0.92,45.699-11.266,52.658-30.747c7.007-19.605,0.21-41.922-16.911-55.533l-87.122-69.263
					c-0.732-0.598-1.81-0.464-2.4,0.272c-0.587,0.739-0.464,1.814,0.275,2.4l87.122,69.263
					c15.974,12.704,22.331,33.486,15.82,51.714c-6.443,18.029-23.115,27.613-49.555,28.484c-0.944,0.03-1.683,0.819-1.652,1.764
					C3069.013,2598.013,3069.709,2598.719,3070.573,2598.778z"/>
				<path style="fill:#FFFFFF;" d="M2991.347,2424.934c0.541,0.037,1.091-0.183,1.455-0.64c0.587-0.739,0.464-1.814-0.275-2.4
					l-11.292-8.978c-0.735-0.598-1.811-0.468-2.4,0.272c-0.587,0.739-0.464,1.814,0.275,2.4l11.292,8.978
					C2990.683,2424.792,2991.014,2424.911,2991.347,2424.934z"/>
			</g>
			<g>
				
					<linearGradient id="SVGID_00000031178019927606311610000005032525229183715485_" gradientUnits="userSpaceOnUse" x1="138.4668" y1="3313.9658" x2="379.5769" y2="2693.2627" gradientTransform="matrix(-1 0 0 1 3305.3694 0)">
					<stop  offset="0" style="stop-color:#F9B776"/>
					<stop  offset="1" style="stop-color:#F47960"/>
				</linearGradient>
				<path style="fill:url(#SVGID_00000031178019927606311610000005032525229183715485_);" d="M2934.161,2641.27l85.403,21.35
					l-21.35,160.131c0,0,32.026,32.027,42.701,74.729c10.675,42.701,20.519,221.999,20.519,221.999l20.264,12.251l2.465,10.227
					l-58.957,79.272l9.777-63.094c1.552-10.016-1.136-30.328-0.29-30.753c-32.026-85.404-100.532-325.981-100.532-325.981V2641.27z"
					/>
				
					<linearGradient id="SVGID_00000092458010822661739600000005698789757127882394_" gradientUnits="userSpaceOnUse" x1="480.6057" y1="2434.2041" x2="256.5053" y2="3417.0042" gradientTransform="matrix(-1 0 0 1 3305.3694 0)">
					<stop  offset="0" style="stop-color:#F9B776"/>
					<stop  offset="1" style="stop-color:#F47960"/>
				</linearGradient>
				<path style="fill:url(#SVGID_00000092458010822661739600000005698789757127882394_);" d="M2909.207,3143.055
					c0.924-0.015,1.833,0.059,2.762,0.001c-4.127-51.485-22.988-278.078-41.86-363.005c-21.35-96.079,32.026-288.237,32.026-288.237
					l96.08,96.08l-53.378,181.481c36.579,54.868-5.967,376.19-5.05,376.051l-0.059,0.714l13.928,19.151l-1.694,10.382
					l-85.083,50.208l33.478-54.365C2905.67,3162.885,2908.607,3153.102,2909.207,3143.055z"/>
				
					<linearGradient id="SVGID_00000158009718993356728090000005951400473296664990_" gradientUnits="userSpaceOnUse" x1="178.5842" y1="2087.7434" x2="362.1847" y2="2414.4438" gradientTransform="matrix(-1 0 0 1 3305.3694 0)">
					<stop  offset="0" style="stop-color:#F9B776"/>
					<stop  offset="1" style="stop-color:#F47960"/>
				</linearGradient>
				<path style="fill:url(#SVGID_00000158009718993356728090000005951400473296664990_);" d="M3017.274,2065.699
					c0,0,187.067,259.573,0,392.664l-19.06-16.991c0,0,92.873-109.492,0-243.527L3017.274,2065.699z"/>
				
					<linearGradient id="SVGID_00000013883540840707832520000013685332964110127273_" gradientUnits="userSpaceOnUse" x1="669.1411" y1="376.2213" x2="873.7297" y2="-314.2635" gradientTransform="matrix(1 0 0 1 3079.3228 0)">
					<stop  offset="0" style="stop-color:#2B3582"/>
					<stop  offset="1" style="stop-color:#150E42"/>
				</linearGradient>
				<path style="fill:url(#SVGID_00000013883540840707832520000013685332964110127273_);" d="M2861.274,3233.756h27.152
					c5.083,0,9.876-2.333,12.975-6.361c8.464-10.999,26.001-32.457,34.387-33.017c11.289-0.754,9.844,39.378,9.844,39.378h6.328
					l8.015-49.869c2.016-12.547-4.223-24.977-15.49-30.855l0,0c0,0-2.581,19.083-16.573,27.524
					c-13.992,8.442-56.938,38.671-56.938,38.671s-5.261-0.75-11.036,0.293C2851.373,3221.07,2852.569,3233.756,2861.274,3233.756z"
					/>
				
					<linearGradient id="SVGID_00000133523715861278197980000008008919034383309722_" gradientUnits="userSpaceOnUse" x1="-1747.0033" y1="2708.3289" x2="-1542.4148" y2="2017.8441" gradientTransform="matrix(0.9218 -0.3878 0.3878 0.9218 3612.5071 -31.6312)">
					<stop  offset="0" style="stop-color:#2B3582"/>
					<stop  offset="1" style="stop-color:#150E42"/>
				</linearGradient>
				<path style="fill:url(#SVGID_00000133523715861278197980000008008919034383309722_);" d="M3023.095,3230.661l25.027-10.529
					c4.684-1.97,8.198-5.98,9.493-10.895c3.537-13.42,11.381-40,18.893-43.768c10.112-5.073,24.344,32.48,24.344,32.48l5.832-2.454
					l-11.95-49.075c-3.006-12.348-13.578-21.385-26.243-22.435l0,0c0,0,5.021,18.591-4.602,31.798
					c-9.624,13.206-37.488,57.725-37.488,57.725s-5.139,1.348-10.058,4.549C3009.048,3222.807,3015.071,3234.037,3023.095,3230.661z
					"/>
				
					<linearGradient id="SVGID_00000111880146892655813810000008459451231193227953_" gradientUnits="userSpaceOnUse" x1="2732.8901" y1="2753.4795" x2="3382.458" y2="2155.0593">
					<stop  offset="0" style="stop-color:#CB236D"/>
					<stop  offset="1" style="stop-color:#4C246D"/>
				</linearGradient>
				<path style="fill:url(#SVGID_00000111880146892655813810000008459451231193227953_);" d="M2877.667,2329.625
					c0,0,3.14,22.791-1.46,85.447c-4.601,62.656-26.589,209.76-22.112,350.507c0,0,62.509,17.253,171.111,9.081
					c0,0,45.833-219.748,34.667-303.288c-11.165-83.541-71.732-143.472-71.732-143.472L2877.667,2329.625z"/>
				
					<linearGradient id="SVGID_00000151525428490000800950000014333680993828140692_" gradientUnits="userSpaceOnUse" x1="521.3096" y1="1847.5718" x2="259.4091" y2="2093.272" gradientTransform="matrix(-1 0 0 1 3305.3694 0)">
					<stop  offset="0" style="stop-color:#F9B776"/>
					<stop  offset="1" style="stop-color:#F47960"/>
				</linearGradient>
				<polygon style="fill:url(#SVGID_00000151525428490000800950000014333680993828140692_);" points="2923.855,1975.862 
					2916.215,2065.699 2988.801,2065.699 2970.752,1928.569 				"/>
				
					<linearGradient id="SVGID_00000176725827105723393870000016960567228493677469_" gradientUnits="userSpaceOnUse" x1="412.4516" y1="2113.8335" x2="-191.1036" y2="2957.7881" gradientTransform="matrix(-1 0 0 1 3305.3694 0)">
					<stop  offset="0" style="stop-color:#FDF53F"/>
					<stop  offset="1" style="stop-color:#D93C65"/>
				</linearGradient>
				<path style="fill:url(#SVGID_00000176725827105723393870000016960567228493677469_);" d="M3010.303,2053.276
					c-25.051-1.382-81.059-3.938-120.738-1.776c-20.89,1.138-38.39,16.126-42.664,36.607l-9.677,46.377
					c-3.605,17.274-3.066,35.157,1.573,52.182l38.871,142.689c0,0,34.573,20.777,110.473-1.457c0,0,66.656-158.952,39.372-260.633
					C3025.392,2059.371,3018.467,2053.727,3010.303,2053.276z"/>
				
					<linearGradient id="SVGID_00000042717071171012555800000005650283869547641244_" gradientUnits="userSpaceOnUse" x1="324.2859" y1="2046.0858" x2="861.587" y2="2478.0869" gradientTransform="matrix(-1 0 0 1 3305.3694 0)">
					<stop  offset="0" style="stop-color:#F9B776"/>
					<stop  offset="1" style="stop-color:#F47960"/>
				</linearGradient>
				<path style="fill:url(#SVGID_00000042717071171012555800000005650283869547641244_);" d="M2848.798,2079.788
					c-10.691,28.165-20.348,57.698-30.722,85.356c-5.276,13.843-10.626,27.414-16.351,39.877c-2.895,6.207-6.075,11.91-8.994,17.082
					c-2.923,5.119-6.213,9.377-7.927,11.337c-0.336,0.291,0.79,0.513,1.167,0.531c0.227,0.029-7.228,1.223-9.515,1.606l-8.935-0.053
					c-12.807-0.659-27.313-2.917-41.862-5.744c-29.348-5.472-59.86-13.155-91.19-18.967l-0.241-0.045
					c-5.994-1.112-11.756,2.847-12.869,8.841c-0.733,3.954,0.755,7.816,3.561,10.301c12.632,11.12,26.023,20.254,39.913,29.146
					c6.991,4.275,14.104,8.465,21.335,12.489c7.374,3.758,14.767,7.546,22.447,11.049c15.462,6.737,31.435,12.943,49.834,16.929
					c4.836,0.809,9.608,1.657,14.584,2.324c5.58,0.194,10.648,0.688,16.743,0.335c3.237-0.321,6.489-0.717,9.733-1.19
					c1.729-0.305,3-0.337,5.096-0.916c2.223-0.667,4.441-1.414,6.627-2.235c4.569-1.639,7.523-3.625,11.235-5.69
					c3.082-2.032,5.893-4.157,8.617-6.335c10.06-8.569,16.306-17.073,21.812-25.237c5.49-8.157,9.842-16.33,13.748-24.341
					c7.836-15.999,13.955-31.852,18.919-47.815c10.061-31.989,16.878-63.428,19.755-96.822
					c1.378-15.995-10.472-30.079-26.468-31.457c-13.239-1.141-25.168,6.781-29.667,18.614L2848.798,2079.788z"/>
				
					<linearGradient id="SVGID_00000001642683045560120750000010847670262633727891_" gradientUnits="userSpaceOnUse" x1="395.5599" y1="1957.4396" x2="932.8589" y2="2389.439" gradientTransform="matrix(-1 0 0 1 3305.3694 0)">
					<stop  offset="0" style="stop-color:#F9B776"/>
					<stop  offset="1" style="stop-color:#F47960"/>
				</linearGradient>
				<path style="fill:url(#SVGID_00000001642683045560120750000010847670262633727891_);" d="M2644.329,2225.166l-12.953-30.747
					l-68.174-16.988c0,0-5.454,11.817,23.179,16.988c0,0-10.227,11.305-4.772,24.598
					C2587.063,2232.312,2645.011,2245.63,2644.329,2225.166z"/>
				
					<linearGradient id="SVGID_00000095301155851935370370000006649963630325749650_" gradientUnits="userSpaceOnUse" x1="488.1372" y1="2071.2009" x2="347.0836" y2="1864.9434" gradientTransform="matrix(-1 0 0 1 3305.3694 0)">
					<stop  offset="0" style="stop-color:#F9B776"/>
					<stop  offset="1" style="stop-color:#F47960"/>
				</linearGradient>
				<path style="fill:url(#SVGID_00000095301155851935370370000006649963630325749650_);" d="M2893.122,1872.111
					c-2.592,1.528-23.013,73.553-5.901,103.751c17.112,30.197,69.37-3.627,83.531-47.293
					C2984.914,1884.903,2962.162,1831.396,2893.122,1872.111z"/>
				
					<linearGradient id="SVGID_00000059299711375520497220000008058183862873035917_" gradientUnits="userSpaceOnUse" x1="551.3038" y1="1721.9578" x2="162.5527" y2="2192.5508" gradientTransform="matrix(-1 0 0 1 3305.3694 0)">
					<stop  offset="0" style="stop-color:#2B3582"/>
					<stop  offset="1" style="stop-color:#150E42"/>
				</linearGradient>
				<path style="fill:url(#SVGID_00000059299711375520497220000008058183862873035917_);" d="M3045.678,1902.201
					c5.319,4.501,10.93,8.723,14.966,14.363c8.958,12.521,8.547,29.605,15.937,43.111c7.804,14.263,21.978,19.39,34.311,28.431
					c12.66,9.281,21.902,23.343,24.989,38.767c3.375,16.867-5.418,33.464-3.099,49.208c1.685,11.438,14.124,17.366,14.579,29.731
					c0.457,12.426-6.648,23.499-18.355,27.893c-6.655,2.497-14.697,2.865-19.312,8.27c-5.564,6.517-3.034,16.655-6.278,24.588
					c-9.61,23.493-34.266,7.733-49.865,3.699c-17.985-4.65-36.207,6.568-54.777,7.031c-24.308,0.607-47.163-20.282-48.739-44.547
					c-0.45-6.931,0.616-13.925-0.237-20.818c-1.719-13.891-9.98-20.356-19.675-28.791c-10.066-8.758-15.961-22.117-15.646-35.456
					c0.627-26.516,19.839-47.029,28.811-70.815c4.796-12.714,8.135-23.431,1.028-35.647c-7.347-12.629-19.613-22.04-31.561-30.027
					c-9.166-6.127-18.761-11.938-26.06-20.202c-7.298-8.264-12.062-19.658-9.441-30.368c7.205-29.437,61.543-47.206,88.169-42.798
					c19.894,3.293,35.58,12.682,45.948,30.043c8.618,14.43,15.087,32.613,25.622,45.777
					C3039.535,1896.821,3042.556,1899.559,3045.678,1902.201z"/>
			</g>
		</g>
		<g>
			
				<linearGradient id="SVGID_00000058549713449438768350000016563906562443171990_" gradientUnits="userSpaceOnUse" x1="787.6075" y1="2601.8423" x2="1470.7096" y2="2601.8423">
				<stop  offset="0" style="stop-color:#2B3582"/>
				<stop  offset="1" style="stop-color:#150E42"/>
			</linearGradient>
			<path style="fill:url(#SVGID_00000058549713449438768350000016563906562443171990_);" d="M798.781,2123.532
				c-3.596,169.718-15.26,755.136-9.692,962.591c0.59,21.978,15.65,39.617,34.437,40.337c92.916,3.557,433.541,12.573,585.52,5.114
				c31.655-1.554,56.828-31.55,57.485-68.606c3.159-178.14,10.126-679.18-6.435-908.706c-1.985-27.5-20.436-49.4-43.91-52.148
				c-101.19-11.843-443.28-40.79-574.581-30.822C817.925,2073.089,799.369,2095.781,798.781,2123.532z"/>
			
				<linearGradient id="SVGID_00000085948137199057898370000001707018320614899347_" gradientUnits="userSpaceOnUse" x1="1185.6405" y1="1990.9979" x2="938.908" y2="4377.3159">
				<stop  offset="0" style="stop-color:#53D8FF"/>
				<stop  offset="1" style="stop-color:#3840F7"/>
			</linearGradient>
			<path style="fill:url(#SVGID_00000085948137199057898370000001707018320614899347_);" d="M840.24,2175.603
				c-5.001,136.987-20.777,592.711-15.77,761.228c0.732,24.631,17.326,44.547,38.358,45.988
				c86.593,5.928,382.028,18.999,509.039,7.101c22.87-2.142,40.817-23.78,42.051-50.582
				c6.437-139.755,24.917-564.098,20.118-730.727c-0.766-26.582-18.367-48.291-41.011-50.669
				c-93.68-9.84-407.613-33.252-515.543-26.364C857.221,2132.872,841.106,2151.887,840.24,2175.603z"/>
			<path style="opacity:0.5;fill:#FFFFFF;" d="M1028.414,2100.947L1028.414,2100.947c0,5.208,3.469,9.503,7.914,9.775
				c21.946,1.344,83.769,5.149,111.399,7.024c5.448,0.37,9.724-5.359,8.69-11.627l-0.176-1.07c-0.705-4.277-3.737-7.496-7.445-7.894
				c-18.677-2.002-75.031-7.553-112.369-5.994C1031.942,2091.349,1028.414,2095.697,1028.414,2100.947z"/>
			
				<linearGradient id="SVGID_00000158002440566578476920000010451643871526633369_" gradientUnits="userSpaceOnUse" x1="1078.2644" y1="3094.8447" x2="1151.9171" y2="2004.7963">
				<stop  offset="0" style="stop-color:#53D8FF"/>
				<stop  offset="1" style="stop-color:#3840F7"/>
			</linearGradient>
			<path style="fill:url(#SVGID_00000158002440566578476920000010451643871526633369_);" d="M1434.792,2260.455
				c-0.077-18.413-0.319-36.51-0.756-51.672c-0.766-26.582-18.367-48.377-41.011-50.755c-93.68-9.84-407.614-33.296-515.543-26.407
				c-20.26,1.294-36.375,20.46-37.241,44.176c-0.776,21.25-1.333,37.995-2.51,71.138L1434.792,2260.455z"/>
			<path style="opacity:0.61;fill:#FFFFFF;" d="M1132.021,2552.417H887.856c-14.433,0-26.134-12.049-26.134-26.911v-214.395
				c0-13.583,10.86-24.502,24.047-24.178l246.427,6.064c13.555,0.334,24.375,11.745,24.375,25.708v208.431
				C1156.572,2541.099,1145.58,2552.417,1132.021,2552.417z"/>
			<path style="opacity:0.61;fill:#FFFFFF;" d="M1397.011,2552.417h-209.883c-4.964,0-8.989-4.024-8.989-8.989v-242.816
				c0-3.874,3.141-7.014,7.014-7.014h212.332c3.899,0,7.059,3.16,7.059,7.059v244.227
				C1404.544,2549.045,1401.171,2552.417,1397.011,2552.417z"/>
			<path style="opacity:0.61;fill:#FFFFFF;" d="M1397.307,2762.514H860.961c-4.424,0-8.011-3.587-8.011-8.011v-161.639
				c0-3.59,2.91-6.5,6.5-6.5h537.535c4.175,0,7.559,3.384,7.559,7.559v161.354
				C1404.544,2759.274,1401.304,2762.514,1397.307,2762.514z"/>
			<path style="opacity:0.61;fill:#FFFFFF;" d="M1347.376,2961.369l-469.519-6.544c-13.918-0.194-25.087-10.344-25.087-22.799
				v-113.662c0-10.963,9.933-19.85,22.186-19.85h493.936c11.716,0,21.222,8.483,21.253,18.965l0.314,105.837
				C1390.521,2944.55,1371.104,2961.7,1347.376,2961.369z"/>
			
				<ellipse transform="matrix(0.2298 -0.9732 0.9732 0.2298 -1460.7521 2563.4658)" style="opacity:0.74;fill:#FFFFFF;" cx="889.162" cy="2204.602" rx="16.572" ry="16.572"/>
			
				<ellipse transform="matrix(0.2298 -0.9732 0.9732 0.2298 -1419.7593 2618.4573)" style="opacity:0.74;fill:#FFFFFF;" cx="944.401" cy="2206.2" rx="16.572" ry="16.572"/>
			
				<ellipse transform="matrix(0.2298 -0.9732 0.9732 0.2298 -1383.0355 2670.9954)" style="opacity:0.74;fill:#FFFFFF;" cx="995.957" cy="2209.269" rx="16.572" ry="16.572"/>
		</g>
	</g>
</g>
</svg>
