<?xml version="1.0" encoding="utf-8"?>
<!-- Generator: Adobe Illustrator 27.5.0, SVG Export Plug-In . SVG Version: 6.00 Build 0)  -->
<svg version="1.1" id="Layer_1" xmlns="http://www.w3.org/2000/svg" xmlns:xlink="http://www.w3.org/1999/xlink" x="0px" y="0px"
	 viewBox="0 0 305 301" style="enable-background:new 0 0 305 301;" xml:space="preserve">
<rect style="fill:#414042;" width="305" height="301"/>
<g>
	<g>
		<g>
			<path style="fill:#ECE2CB;" d="M151.33,149.251c0.848,0,2.006-1.288,0.699-1.288C151.182,147.963,150.023,149.251,151.33,149.251
				L151.33,149.251z"/>
		</g>
	</g>
	<path style="fill:#FFFFFF;" d="M260.463,79.807c-0.006-0.129-0.014-0.259-0.02-0.389c0.359-2.984-0.667-6.72-1.349-8.967
		c-0.252-0.831-0.673-1.55-1.199-2.155c-2.025-2.5-5.943-3.042-8.461-0.512c-8.034,8.069-16.067,16.138-24.101,24.207
		c-5.663-5.638-11.326-11.276-16.988-16.914c8.039-8.079,16.079-16.158,24.118-24.237c2.574-2.586,1.881-6.436-0.662-8.45
		c-0.579-0.494-1.257-0.895-2.018-1.16c-14.17-4.938-30.292,0.773-40.617,10.816c-11.674,11.353-14.739,28.462-9.634,43.44
		c-7.923,7.942-15.847,15.884-23.77,23.826c-0.907-2.02-1.574-4.164-2.319-6.293c-0.042-0.195-0.096-0.391-0.167-0.584
		c-2.33-6.405-5.174-12.026-9.427-17.379c-1.726-2.171-3.522-4.287-5.312-6.406c-5.814-6.888-11.702-13.714-17.588-20.54
		c-5.044-5.848-10.098-11.687-15.16-17.519c-0.543-0.626-1.086-1.251-1.628-1.876c-0.241-0.277-0.374-0.424-0.437-0.486
		c-0.058-0.076-0.119-0.153-0.185-0.239c-3.161-4.051-8.136-6.299-13.188-6.529c-0.542-0.024-1.06,0.042-1.551,0.179
		c-8.938,1.111-17.961,6.472-23.775,13.084c-5.676,6.456-11.404,15.481-7.759,24.242c2.877,6.912,9.606,13.152,14.291,18.828
		c8.036,9.736,16.072,19.475,24.227,29.112c3.224,3.81,6.41,7.664,10.256,10.873c5.686,4.743,13.665,7.227,18.888,12.438
		c-8.83,8.851-17.66,17.7-26.49,26.552c-8.654-3.099-18.594-3.197-27.197-0.351c-17.282,5.719-28.774,22.912-28.356,40.896
		c0.001-0.002,0.001-0.004,0.003-0.006c-0.023,0.426-0.021,0.863,0.004,1.311c0-0.001,0-0.002,0.001-0.003
		c-0.273,2.868,0.619,6.222,1.327,8.55c0.32,1.054,0.904,1.935,1.644,2.615c2.113,2.087,5.646,2.429,8.016,0.049
		c8.033-8.067,16.068-16.135,24.102-24.203c5.662,5.638,11.324,11.275,16.986,16.911c-8.039,8.08-16.078,16.159-24.117,24.239
		c-1.966,1.976-2.027,4.688-0.813,6.76c0.677,1.343,1.864,2.431,3.485,2.845c2.355,0.602,5.295,1.454,7.949,1.313
		c0.089,0.009,0.174,0.029,0.265,0.035c0.883,0.055,1.694,0.022,2.455-0.135c16.33-0.153,31.587-8.978,38.275-24.252
		c2.909-6.643,4.061-13.933,3.523-21.157c-0.243-3.284-0.754-6.955-1.94-10.247c7.414-7.438,14.828-14.875,22.241-22.313
		c3.222,0.234,6.436-0.481,9.535-1.594c-0.07-0.029-0.142-0.059-0.212-0.087c0.558-0.113,1.102-0.282,1.616-0.499
		c1.044-0.438,2.772-1.264,4.557-2.213c7.963,9.374,15.919,18.752,23.848,28.155c3.024,3.586,6.045,7.174,9.04,10.785
		c0.547,0.66,1.088,1.325,1.628,1.991c-0.294-0.323,1.503,2.045,1.681,2.295c1.165,1.648,2.243,3.358,3.31,5.07
		c7.362,11.813,16.775,22.018,25.745,32.634c2.121,2.51,5.837,1.809,8.027-0.042c3.147-2.659,6.294-5.319,9.44-7.979
		c2.51-2.12,1.809-5.836-0.043-8.025c-8.374-9.909-16.253-20.496-26.068-29.027c-6.975-6.061-12.803-13.072-18.788-20.079
		c-7.881-9.225-15.702-18.501-23.516-27.782c1.232-1.563,2.385-3.185,3.438-4.878c0.153-0.198,0.296-0.405,0.417-0.627
		c2.552-4.691,4.023-9.661,2.584-14.454c7.442-7.466,14.883-14.931,22.325-22.396c8.466,3.098,18.181,3.349,26.672,0.712
		c16.976-5.27,28.284-22.168,28.792-39.543c0.103-0.395,0.16-0.823,0.171-1.283C260.512,80.441,260.502,80.122,260.463,79.807z"/>
	<g>
		<g>
			<path style="fill:#939598;" d="M103.163,222.564l-28.117,28.241c0,0,20.231,5.597,35.093-9.329
				c14.858-14.923,10.283-36.271,7.074-40.795l86.343-86.62c0,0,22.149,11.439,40.154-6.646
				c16.044-16.116,9.782-35.741,9.782-35.741l-28.118,28.242L200.198,74.85l28.11-28.247c0,0-19.039-6.781-35.084,9.333
				c-16.046,16.116-9.573,35.536-7.062,40.863l-86.356,86.557c0,0-22.254-11.336-40.764,7.252
				c-15.59,15.661-9.174,35.13-9.174,35.13l28.335-28.453L103.163,222.564z"/>
			<path style="fill:#808285;" d="M111.069,188.614c-3.566-3.567-3.521-9.422,0.104-13.047l66.947-66.946
				c3.626-3.626,9.479-3.673,13.047-0.105c3.569,3.57,3.523,9.422-0.104,13.049l-66.946,66.947
				C120.491,192.137,114.638,192.183,111.069,188.614z M188.133,111.551c-1.922-1.921-5.074-1.896-7.025,0.056l-66.948,66.947
				c-1.951,1.952-1.976,5.104-0.056,7.024c1.922,1.922,5.074,1.898,7.027-0.055l66.946-66.948
				C190.031,116.625,190.055,113.474,188.133,111.551z"/>
			<path style="fill:#7E8083;" d="M112.713,182.594c0.189-0.939,0.65-1.838,1.382-2.569l66.946-66.946
				c1.952-1.952,5.104-1.978,7.025-0.057c0.832,0.834,1.299,1.899,1.401,2.997c0.318-1.57-0.122-3.255-1.324-4.458
				c-1.921-1.922-5.073-1.896-7.025,0.055l-66.948,66.949C113.065,179.669,112.579,181.16,112.713,182.594z"/>
			<path style="fill:#A7A9AC;" d="M193.735,116.179c-0.26,1.968-1.143,3.877-2.661,5.395l-66.945,66.946
				c-3.627,3.627-9.48,3.673-13.049,0.104c-1.706-1.707-2.576-3.935-2.633-6.189c-0.363,2.73,0.481,5.576,2.556,7.651
				c3.567,3.568,9.421,3.521,13.049-0.104l66.945-66.947C192.891,121.142,193.797,118.643,193.735,116.179z"/>
			<path style="fill:#A7A9AC;" d="M120.735,186.046c-1.732,1.733-4.544,1.733-6.277,0l0,0c-1.732-1.732-1.732-4.544,0.001-6.277
				l66.996-66.996c1.732-1.732,4.543-1.732,6.276,0.001l0,0c1.733,1.732,1.733,4.543,0.002,6.275L120.735,186.046z"/>
			<path style="fill:#A7A9AC;" d="M192.533,74.632l33.366,33.22l28.87-28.999c-0.257-4.286-1.134-7.035-1.134-7.035l-28.116,28.242
				l-25.177-25.067l28.109-28.247c0,0-2.682-0.955-6.88-1.296L192.533,74.632z"/>
			<path style="fill:#6D6E71;" d="M191.248,74.606l34.68,34.529l28.907-29.036c-0.067-1.248-0.067-1.248-0.067-1.248l-28.87,29
				l-33.364-33.22l29.027-29.17c-0.397-0.032-0.811-0.056-1.233-0.076L191.248,74.606z"/>
			<path style="fill:#A7A9AC;" d="M110.827,222.782l-33.365-33.221l-28.87,28.999c0.256,4.286,1.134,7.036,1.134,7.036
				l28.116-28.242l25.176,25.065l-28.108,28.248c0,0,2.682,0.954,6.877,1.295L110.827,222.782z"/>
			<path style="fill:#6D6E71;" d="M112.114,222.808l-34.681-34.53l-28.908,29.037c0.068,1.247,0.068,1.247,0.068,1.247
				l28.872-28.999l33.364,33.221l-29.027,29.168c0.397,0.032,0.811,0.059,1.232,0.077L112.114,222.808z"/>
		</g>
		<g>
			<path style="fill:#58595B;" d="M207.202,208.217c-6.374-6.653-59.865-70.565-59.865-70.565l-5.805,4.908
				c0,0,56.545,66.363,59.744,70.665c5.496,7.398,7.518,12.46,11.599,17.291l18.18,21.513l9.44-7.979l-18.181-21.513
				C218.234,217.71,213.579,214.87,207.202,208.217z"/>
			<path d="M139.85,99.017c-5.944-7.518-40.27-47.01-40.27-47.01s-4.643-6.473-11.753-4.613c-4.084,1.069-10.208,3.589-15.206,7.581
				l0,0l0,0l0,0l0,0c-4.771,4.262-8.275,9.878-10.012,13.729c-3.018,6.701,2.588,12.359,2.588,12.359s33.215,40.43,39.638,47.544
				c6.421,7.115,10.526,8.633,20.134,14.147c9.608,5.518,11.623,18.922,11.623,18.922c-0.699,2.814,2.305,7.358,5.977,10.638
				c5.162,4.605,16.505-1.479,21.86-5.469c0.555-0.413,1.093-0.855,1.621-1.313l0,0l0,0l0,0l0,0c0.538-0.442,1.063-0.9,1.564-1.38
				c4.827-4.611,12.681-14.76,9.037-20.64c-2.487-4.012-6.6-7.89-9.493-7.668c0,0-12.88-4.224-16.715-14.616
				C146.607,110.835,145.794,106.534,139.85,99.017z"/>
			<path style="fill:#FBB040;" d="M131.339,116.591c3.29,3.893,2.801,9.715-1.094,13.006l0,0c-3.891,3.288-9.713,2.8-13.004-1.092
				L71.109,73.913c-3.291-3.894-2.801-9.716,1.091-13.005l0,0c3.893-3.291,9.715-2.801,13.006,1.092L131.339,116.591z"/>
			<path style="fill:#58595B;" d="M167.241,145.537l7.814,9.249c2.3-4.001,3.53-8.231,1.628-11.302
				c-2.485-4.012-6.599-7.89-9.491-7.669c0,0-0.422-0.139-1.128-0.424C164.431,138.602,164.768,142.614,167.241,145.537z"/>
			<path style="fill:#58595B;" d="M91.879,56.36l46.133,54.592c2.472,2.923,6.372,3.926,9.807,2.849
				c-2.018-5.602-3.633-9.37-7.938-14.813c-5.944-7.517-40.269-47.01-40.269-47.01s-3.585-4.992-9.278-4.943
				C89.142,50.087,89.614,53.681,91.879,56.36z"/>
			<path style="fill:#FBB040;" d="M160.568,151.177c-3.29-3.893-9.112-4.382-13.006-1.092c-3.892,3.289-4.381,9.11-1.092,13.004
				l7.911,9.361c3.829-1.478,7.577-3.765,10.049-5.607c0.555-0.413,1.093-0.855,1.621-1.313c0.538-0.442,1.063-0.9,1.564-1.38
				c0.655-0.623,1.364-1.354,2.094-2.156L160.568,151.177z"/>
		</g>
	</g>
</g>
</svg>
