<?xml version="1.0" encoding="utf-8"?>
<!-- Generator: Adobe Illustrator 27.5.0, SVG Export Plug-In . SVG Version: 6.00 Build 0)  -->
<svg version="1.1" id="Layer_1" xmlns="http://www.w3.org/2000/svg" xmlns:xlink="http://www.w3.org/1999/xlink" x="0px" y="0px"
	 viewBox="0 0 1800 1800" style="enable-background:new 0 0 1800 1800;" xml:space="preserve">
<radialGradient id="SVGID_1_" cx="899.9998" cy="900" r="900.0001" gradientUnits="userSpaceOnUse">
	<stop  offset="0" style="stop-color:#CED8CE"/>
	<stop  offset="0.3426" style="stop-color:#CBD7CE"/>
	<stop  offset="0.6217" style="stop-color:#C1D4CE"/>
	<stop  offset="0.8776" style="stop-color:#B0CECD"/>
	<stop  offset="1" style="stop-color:#A5CBCD"/>
</radialGradient>
<rect x="0" style="fill:url(#SVGID_1_);" width="1800" height="1800"/>
<g>
	<g>
		<g>
			<polygon style="fill:#EFEDED;" points="431.876,1361.967 443.701,1378.973 447.556,1376.287 447.556,1351.047 			"/>
			<polygon style="fill:#EFEDED;" points="1343.172,1219.092 1331.159,1202.207 1327.192,1205.03 1327.192,1230.45 			"/>
		</g>
		<path style="fill:#BFBEBE;" d="M903.045,1021.049c0,8.655-7.018,15.672-15.683,15.672c-8.641,0-15.658-7.017-15.658-15.672
			c0-8.651,7.017-15.665,15.658-15.665C896.027,1005.384,903.045,1012.398,903.045,1021.049z"/>
	</g>
	<polygon style="fill:#7FBFC8;" points="1319.966,1041.848 447.556,1041.848 447.556,1557.901 447.556,1558.186 1327.192,1558.186 
		1327.192,1041.848 	"/>
</g>
<g>
	<rect x="447.712" y="1041.848" style="fill:none;" width="439.812" height="516.338"/>
	<rect x="887.524" y="1041.848" style="fill:none;" width="439.825" height="516.338"/>
	<path style="fill:#17587C;" d="M744.95,1661.901c-8.667,0-15.683-7.003-15.683-15.659c0-8.65,7.017-15.673,15.683-15.673h142.574
		v-17.914H345.895c0,0.13-0.012,0.271-0.012,0.402c0,36.883,18.892,66.777,42.174,66.777h499.468v-17.934H744.95z"/>
	<path style="fill:#0C3854;" d="M887.524,1612.655v17.914h142.588c8.653,0,15.67,7.022,15.67,15.673
		c0,8.656-7.017,15.659-15.67,15.659H887.524v17.934h499.492c23.282,0,42.15-29.895,42.15-66.777c0-0.131,0-0.272,0-0.402H887.524z"
		/>
	<path style="fill:#FFFFFF;" d="M729.267,1646.242c0,8.656,7.017,15.659,15.683,15.659h142.574v-31.332H744.95
		C736.283,1630.569,729.267,1637.592,729.267,1646.242z"/>
	<path style="fill:#DEF1F3;" d="M1030.112,1661.901c8.653,0,15.67-7.003,15.67-15.659c0-8.65-7.017-15.673-15.67-15.673H887.524
		v31.332H1030.112z"/>
	<path style="fill:#0C3854;" d="M1374.57,1537.358v-474.677c0-34.338-25.155-62.163-56.196-62.163h-430.85v41.329h439.825v516.338
		H887.524v41.324h430.85C1349.415,1599.51,1374.57,1571.673,1374.57,1537.358z"/>
	<path style="fill:#17587C;" d="M447.712,1558.186v-516.338h439.812v-41.329H456.677c-31.032,0-56.185,27.825-56.185,62.163v474.677
		c0,34.314,25.153,62.151,56.185,62.151h430.847v-41.324H447.712z"/>
</g>
<path style="fill:#CAE8EA;" d="M942.91,846.707h-51.529h-1.752h-51.531c0,0,58.341,139.376-50.224,704.963l82.228,2.318
	l33.181,1.253l83.891,3.756C878.608,993.41,942.91,846.707,942.91,846.707z"/>
<path style="fill:#FFFFFF;" d="M903.534,820.849l-19.202,2.505v-2.967l-17.738-3.972c0,0,29.376,619.771-44.611,714.658
	l3.426,20.562l53.977,5.14l9.824-2.539l52.003,0.826l11.852-2.856C879.078,1457.319,903.534,820.849,903.534,820.849z"/>
<g>
	<path style="fill:#F27F21;" d="M973.246,747.798c0,60.304-85.429,187.911-85.429,187.911S802.39,808.102,802.39,747.798
		c0-60.303,38.247-76.86,85.428-76.86C934.999,670.938,973.246,687.495,973.246,747.798z"/>
	<path style="fill:#EEB420;" d="M946.78,735.873c0,41.622-58.963,144.066-58.963,144.066s-58.962-102.444-58.962-144.066
		c0-41.621,26.398-53.049,58.962-53.049C920.382,682.825,946.78,694.252,946.78,735.873z"/>
	<path style="fill:#F7CB6C;" d="M921.972,715.944c0,24.107-34.154,102.966-34.154,102.966s-34.153-78.859-34.153-102.966
		c0-24.109,15.291-30.729,34.153-30.729C906.681,685.215,921.972,691.835,921.972,715.944z"/>
	<g>
		<g>
			<path style="fill:#EA3859;" d="M818.124,532.025c0,0-117.635,61.758-117.635,195.567c0,0,7.353,14.705,19.116-2.941
				c11.764-17.644,22.057-66.169,97.049-66.169L818.124,532.025z"/>
			<path style="fill:#BC3548;" d="M956.924,532.025c0,0,117.636,61.758,117.636,195.567c0,0-7.353,14.705-19.116-2.941
				c-11.764-17.644-22.057-66.169-97.049-66.169L956.924,532.025z"/>
		</g>
		<g>
			<path style="fill:#0C3854;" d="M1018.132,402.006c0-54.785-9.257-106.357-23.043-151.459H887.524v45.77
				c39.795,0,72.056,32.261,72.056,72.055c0,39.794-32.261,72.056-72.056,72.056V672h70.395
				C994.132,615.032,1018.132,515.396,1018.132,402.006z"/>
			<path style="fill:#17587C;" d="M815.47,368.371c0-39.794,32.259-72.055,72.054-72.055v-45.77H779.96
				c-13.788,45.102-23.043,96.674-23.043,151.459c0,113.39,23.998,213.026,60.212,269.994h70.394V440.427
				C847.729,440.427,815.47,408.165,815.47,368.371z"/>
			<path style="fill:#E7C637;" d="M818.132,672.216c-1.818,0-3.293,1.475-3.293,3.293v15.365c0,1.818,1.475,3.292,3.293,3.292
				h69.392v-21.95H818.132z"/>
			<path style="fill:#CDAE2F;" d="M956.852,672.216h-69.328v21.95h69.328c1.817,0,3.293-1.474,3.293-3.292v-15.365
				C960.144,673.691,958.669,672.216,956.852,672.216z"/>
			<path style="fill:#CDAE2F;" d="M936.894,368.371c0,27.267-22.103,49.372-49.371,49.372v22.684
				c39.795,0,72.056-32.261,72.056-72.056c0-39.794-32.261-72.055-72.056-72.055V319C914.791,319,936.894,341.105,936.894,368.371z"
				/>
			<path style="fill:#E7C637;" d="M815.47,368.371c0,39.794,32.259,72.056,72.054,72.056v-22.684
				c-27.267,0-49.372-22.104-49.372-49.372c0-27.266,22.104-49.371,49.372-49.371v-22.684
				C847.729,296.316,815.47,328.577,815.47,368.371z"/>
			<path style="fill:#83D0D1;" d="M936.894,368.371c0-27.266-22.103-49.371-49.371-49.371v98.742
				C914.791,417.743,936.894,395.638,936.894,368.371z"/>
			<path style="fill:#A5DCE3;" d="M838.152,368.371c0,27.267,22.104,49.372,49.372,49.372V319
				C860.257,319,838.152,341.105,838.152,368.371z"/>
		</g>
	</g>
	<g>
		<path style="fill:#BC3548;" d="M887.524,81.525v169.021h107.565C964.333,149.935,911.018,81.526,887.524,81.525z"/>
		<path style="fill:#EA3859;" d="M887.524,81.525c-23.492,0-76.808,68.409-107.564,169.021h107.564V81.525L887.524,81.525z"/>
		<path style="fill:#BC3548;" d="M892.053,568.638c-0.356-0.113-0.736-0.174-1.132-0.174h-0.099h-3.298v165.044h3.708h0.099
			c2.071,0,3.751-1.68,3.751-3.751v-5.01l0.143-7.242l10.412-132.719C905.637,571.334,894.347,569.219,892.053,568.638z"/>
		<path style="fill:#EA3859;" d="M883.816,568.464h-0.099c-0.396,0-0.775,0.06-1.133,0.174c-0.657,0.167-1.396,0.456-2.115,0.88
			c-4.101,1.33-11.059,4.902-11.059,15.462l10.423,132.851l0.132,6.72v5.011c0,1.575,0.97,2.919,2.344,3.476
			c0.539,0.299,1.158,0.47,1.817,0.47h0.099h3.298V568.464H883.816z"/>
	</g>
</g>
<g>
	<path style="fill:#CAE8EA;" d="M1220.217,1331.054c-14.177-4.164-29.729-4.504-45.505-0.197
		c-49.829,13.604-82.981,68.296-74.042,122.153c0.234,1.423,0.514,2.821,0.801,4.212l-0.291,0.079
		c-23.26,6.35-42.267,23.19-53.467,44.665c-8.505,16.306-12.502,35.289-10.455,54.377l95.107-25.962l195.944-53.496v-250.294
		c-2.727,0.555-5.465,1.2-8.199,1.946C1271.807,1241.727,1234.626,1282.305,1220.217,1331.054z"/>
	<g>
		<path style="fill:#FFFFFF;" d="M1170.582,1440.229c-13.189-7.858-28.346-12.345-44.473-12.345
			c-50.95,0-92.248,44.643-92.248,99.706c0,0.243,0,0.48,0.005,0.721c10.146,8.5,19.177,18.406,26.88,29.343h267.563v-183.004
			c-13.568-5.189-28.171-8.011-43.379-8.011C1235.544,1366.639,1192.591,1396.397,1170.582,1440.229z"/>
		<path style="fill:#CAE8EA;" d="M1033.866,1528.311c-13.245-11.09-28.389-19.79-44.986-25.265
			c-47.827-15.776-95.207-0.681-125.034,34.738c-11.248-11.827-25.053-21.012-40.675-26.165c-8.025-2.65-16.034-4.064-23.866-4.359
			c10.963,13.68,17.958,31.176,19.052,50.394h158.894h83.495C1053.043,1546.717,1044.012,1536.811,1033.866,1528.311z"/>
		<path style="fill:#FFFFFF;" d="M799.305,1507.26c-14.44-18.017-35.762-29.41-59.547-29.41h-0.298
			c0.056-1.44,0.101-2.879,0.101-4.332c0-55.065-41.302-99.705-92.253-99.705c-16.127,0-31.281,4.483-44.472,12.345
			c-22.006-43.834-64.96-73.595-114.344-73.595c-14.605,0-28.648,2.602-41.752,7.401v237.689h274.384h97.234
			C817.263,1538.436,810.268,1520.939,799.305,1507.26z"/>
	</g>
	<path style="fill:#CAE8EA;" d="M709.078,1530.982c-17.132-13.59-39.872-18.812-63.093-12.224l-0.293,0.079
		c-0.188-1.415-0.387-2.836-0.631-4.256c-9.27-53.765-57.111-85.915-106.861-71.807c-15.747,4.467-29.789,13.043-41.344,24.371
		c-13.379-17.009-30.644-29.82-50.116-37.313v127.819h283.397C725,1546.914,717.761,1537.87,709.078,1530.982z"/>
</g>
<g>
	<g>
		<path style="fill:#17587C;" d="M982.005,1493.874c0-10.282-8.335-18.618-18.618-18.618H813.896
			c-10.283,0-18.617,8.336-18.617,18.618v19.826h186.726V1493.874z"/>
		<path style="fill:#0C3854;" d="M795.279,1513.7v19.825c0,10.283,8.334,18.618,18.617,18.618h149.491
			c10.283,0,18.618-8.335,18.618-18.618V1513.7H795.279z"/>
	</g>
	<g>
		<path style="fill:#FFFFFF;" d="M818.728,1523.15c2.146,1.098,5.445,2.198,8.848,2.198c3.664,0,5.602-1.519,5.602-3.821
			c0-2.199-1.676-3.456-5.915-4.975c-5.864-2.042-9.686-5.287-9.686-10.418c0-6.021,5.025-10.626,13.349-10.626
			c3.979,0,6.911,0.836,9.004,1.78l-1.78,6.438c-1.413-0.681-3.926-1.675-7.381-1.675c-3.455,0-5.13,1.57-5.13,3.402
			c0,2.252,1.989,3.247,6.544,4.974c6.229,2.304,9.162,5.55,9.162,10.522c0,5.917-4.555,10.941-14.239,10.941
			c-4.032,0-8.011-1.046-10-2.146L818.728,1523.15z"/>
		<path style="fill:#FFFFFF;" d="M853.541,1502.785h-9.475v-6.701h27.118v6.701h-9.633v28.583h-8.01V1502.785z"/>
		<path style="fill:#FFFFFF;" d="M879.874,1522.312l-2.513,9.057h-8.271l10.785-35.284h10.47l10.942,35.284h-8.587l-2.722-9.057
			H879.874z M888.826,1516.344l-2.199-7.486c-0.629-2.094-1.256-4.712-1.78-6.806h-0.104c-0.524,2.094-1.047,4.764-1.623,6.806
			l-2.094,7.486H888.826z"/>
		<path style="fill:#FFFFFF;" d="M905.996,1496.556c2.564-0.42,6.387-0.733,10.627-0.733c5.235,0,8.9,0.786,11.412,2.774
			c2.095,1.675,3.247,4.136,3.247,7.382c0,4.502-3.194,7.591-6.23,8.69v0.156c2.46,0.995,3.822,3.351,4.712,6.598
			c1.1,3.978,2.199,8.584,2.88,9.945h-8.168c-0.574-0.994-1.413-3.873-2.461-8.218c-0.941-4.398-2.46-5.603-5.706-5.654h-2.407
			v13.872h-7.905V1496.556z M913.901,1511.737h3.141c3.978,0,6.335-1.989,6.335-5.078c0-3.247-2.198-4.869-5.863-4.922
			c-1.938,0-3.036,0.157-3.612,0.261V1511.737z"/>
		<path style="fill:#FFFFFF;" d="M943.845,1502.785h-9.476v-6.701h27.118v6.701h-9.632v28.583h-8.011V1502.785z"/>
	</g>
</g>
</svg>
