<?xml version='1.0' encoding='utf-8'?>
<svg xmlns="http://www.w3.org/2000/svg" xmlns:ns1="http://www.w3.org/1999/xlink" version="1.1" x="0px" y="0px" viewBox="0 0 500 500" style="enable-background:new 0 0 500 500" xml:space="preserve">
<g id="BACKGROUND">
	<rect style="fill:none;" width="500" height="500" />
</g>
<g id="OBJECTS">
	<g>
		<defs>
			<rect id="SVGID_1_" width="500" height="500" />
		</defs>
		<clipPath id="SVGID_00000097476864548400221740000005987842994534517176_">
			<use ns1:href="#SVGID_1_" style="overflow:visible;" />
		</clipPath>
		<g style="clip-path:url(#SVGID_00000097476864548400221740000005987842994534517176_);">
			<path style="fill:#DBE0FC;" d="M405.01,409.767c-3.032,1.592-6.185,2.953-9.429,4.056c-16.627,5.657-41.387,5.213-55.151-7.075     c-22.371-19.972,3.444-43.24,21.041-54.51c11.121-7.122,21.952-15.213,34.619-18.948c12.667-3.734,28.022-2.049,36.571,8.016     c9.515,11.201,7.281,28.56,0.149,41.41C426.447,394.185,416.616,403.673,405.01,409.767z" />
			<g>
				<path style="fill:#DBE0FC;" d="M52.497,347.072c-5.448-17.504-6.613-35.977-1.995-54.023      c9.225-36.045,35.565-58.012,66.298-76.073c33.676-19.791,73.828-26.296,105.072-51.458      c29.727-23.94,48.443-59.774,79.333-82.193c31.484-22.85,78.453-32.569,112.456-9.638c21.759,14.674,35.654,39.799,38.33,65.906      c2.522,24.603-7.808,53.985-25.431,71.763c-14.78,14.91-37.037,22.625-56.99,27.32c-39.817,9.369-95.051,7.098-110.803,52.019      c-5.128,14.625-3.946,30.578-4.954,46.043c-1.678,25.74-9.99,51.546-26.576,71.301c-16.585,19.756-42.006,32.758-67.757,31.25      c-16.484-0.965-32.186-7.613-46.275-16.223C85.121,405.902,62.123,378.001,52.497,347.072z" />
			</g>
		</g>
		<g style="clip-path:url(#SVGID_00000097476864548400221740000005987842994534517176_);">
			<g>
				<g id="xsrjP0_3_">
					<g>
						<path style="fill-rule:evenodd;clip-rule:evenodd;fill:#D89CC7;" d="M392.614,164.023c-0.669-0.31-1.185-0.929-1.485-1.62        c-1.031-2.379-0.693-5.112-0.165-7.65c0.047-0.227,0.101-0.464,0.251-0.64c1.168-1.362,2.603-2.229,3.621-3.787        c0.667-1.02,1.155-2.151,1.495-3.32c0.275-0.946,0.116-2.969,0.642-3.722c1.517-2.174,2.821,2.298,2.945,3.338        c0.12,1.007-0.237,1.989-0.36,2.986c-0.09,0.73-0.258,1.451-0.393,2.19c0.178,0.129,0.385,0.061,0.576,0.063        c2.244-0.004,4.488-0.013,6.732-0.02c0.946-0.003,1.41,0.267,1.543,0.894c0.164,0.781-0.247,1.578-0.971,1.949        c-0.167,0.085-0.471,0.01-0.491,0.273c-0.019,0.268,0.293,0.239,0.448,0.347c0.814,0.555,0.667,1.704-0.271,2.372        c-0.225,0.159-0.664,0.088-0.674,0.419c-0.004,0.264,0.406,0.26,0.592,0.446c0.658,0.645,0.336,1.857-0.642,2.348        c-0.126,0.063-0.281,0.075-0.394,0.154c-0.111,0.076-0.22,0.159-0.004,0.312c0.974,0.691,0.957,1.658-0.02,2.366        c-0.096,0.069-0.194,0.141-0.292,0.211c-0.355,0.262-0.775,0.26-1.181,0.262c-3.519,0.019-7.038,0.028-10.557,0.038        C393.221,164.233,392.903,164.157,392.614,164.023z" />
						<path style="fill-rule:evenodd;clip-rule:evenodd;fill:#D89CC7;" d="M384.935,159.195c-0.006-1.687-0.006-3.376-0.021-5.063        c-0.003-0.344,0.02-0.512,0.303-0.508c1.385,0.02,2.768,0.015,4.152-0.012c0.272-0.005,0.314,0.134,0.314,0.492        c0.004,3.396,0.013,6.793,0.035,10.189c0.003,0.432-0.076,0.555-0.367,0.548c-1.343-0.018-2.686-0.018-4.027,0.018        c-0.334,0.009-0.381-0.165-0.379-0.6C384.957,162.571,384.941,160.884,384.935,159.195z" />
					</g>
				</g>
			</g>
			<g>
				<g id="xsrjP0_4_">
					<g>
						<path style="fill-rule:evenodd;clip-rule:evenodd;fill:#D89CC7;" d="M136.279,145.95c-0.541-0.25-0.958-0.751-1.2-1.309        c-0.833-1.922-0.56-4.13-0.134-6.181c0.038-0.183,0.081-0.375,0.203-0.517c0.944-1.1,2.104-1.801,2.926-3.059        c0.539-0.824,0.933-1.738,1.208-2.682c0.222-0.764,0.094-2.399,0.519-3.007c1.226-1.756,2.279,1.857,2.379,2.697        c0.097,0.814-0.192,1.607-0.291,2.413c-0.073,0.59-0.208,1.173-0.318,1.77c0.144,0.104,0.311,0.049,0.465,0.051        c1.813-0.003,3.626-0.01,5.439-0.016c0.764-0.003,1.139,0.215,1.247,0.722c0.133,0.631-0.199,1.275-0.784,1.574        c-0.135,0.069-0.38,0.008-0.396,0.22c-0.015,0.216,0.237,0.193,0.362,0.28c0.658,0.448,0.539,1.377-0.219,1.916        c-0.182,0.129-0.537,0.071-0.545,0.339c-0.003,0.214,0.328,0.21,0.479,0.36c0.531,0.522,0.271,1.5-0.519,1.898        c-0.102,0.05-0.227,0.061-0.318,0.124c-0.09,0.061-0.178,0.129-0.003,0.252c0.787,0.559,0.773,1.34-0.016,1.912        c-0.077,0.056-0.156,0.114-0.236,0.17c-0.287,0.212-0.626,0.21-0.954,0.212c-2.843,0.015-5.686,0.023-8.53,0.03        C136.77,146.12,136.513,146.058,136.279,145.95z" />
						<path style="fill-rule:evenodd;clip-rule:evenodd;fill:#D89CC7;" d="M130.075,142.049c-0.005-1.363-0.005-2.728-0.017-4.09        c-0.002-0.278,0.016-0.414,0.245-0.411c1.119,0.017,2.236,0.012,3.355-0.01c0.219-0.004,0.254,0.108,0.254,0.398        c0.003,2.744,0.011,5.488,0.029,8.232c0.003,0.349-0.061,0.448-0.297,0.443c-1.085-0.015-2.17-0.015-3.254,0.014        c-0.27,0.007-0.308-0.133-0.306-0.485C130.093,144.777,130.08,143.414,130.075,142.049z" />
					</g>
				</g>
			</g>
			<g>
				<g id="xsrjP0_1_">
					<g>
						<path style="fill-rule:evenodd;clip-rule:evenodd;fill:#D89CC7;" d="M267.886,342.333c-0.657-0.304-1.163-0.911-1.457-1.59        c-1.011-2.334-0.68-5.016-0.162-7.506c0.046-0.223,0.099-0.455,0.247-0.628c1.146-1.336,2.555-2.188,3.553-3.715        c0.654-1.001,1.133-2.111,1.467-3.257c0.27-0.928,0.114-2.913,0.63-3.652c1.489-2.133,2.768,2.255,2.89,3.275        c0.118,0.988-0.233,1.952-0.353,2.93c-0.088,0.716-0.253,1.424-0.386,2.149c0.175,0.126,0.378,0.06,0.565,0.062        c2.202-0.004,4.403-0.012,6.605-0.02c0.928-0.003,1.383,0.262,1.514,0.877c0.161,0.767-0.242,1.548-0.953,1.912        c-0.164,0.084-0.462,0.01-0.481,0.268c-0.019,0.263,0.287,0.235,0.44,0.34c0.799,0.544,0.655,1.672-0.265,2.327        c-0.221,0.156-0.652,0.086-0.661,0.411c-0.004,0.259,0.398,0.255,0.581,0.437c0.645,0.634,0.33,1.822-0.63,2.304        c-0.123,0.061-0.276,0.073-0.386,0.151c-0.109,0.074-0.216,0.156-0.004,0.306c0.956,0.678,0.939,1.627-0.019,2.321        c-0.094,0.068-0.19,0.138-0.286,0.207c-0.348,0.257-0.76,0.255-1.159,0.257c-3.453,0.018-6.906,0.028-10.358,0.037        C268.481,342.539,268.169,342.464,267.886,342.333z" />
						<path style="fill-rule:evenodd;clip-rule:evenodd;fill:#D89CC7;" d="M260.351,337.595c-0.005-1.655-0.006-3.313-0.021-4.968        c-0.003-0.337,0.02-0.502,0.297-0.499c1.359,0.02,2.716,0.015,4.074-0.012c0.267-0.005,0.308,0.131,0.308,0.483        c0.004,3.333,0.013,6.665,0.035,9.997c0.003,0.424-0.074,0.544-0.36,0.538c-1.318-0.018-2.635-0.018-3.952,0.017        c-0.328,0.009-0.374-0.162-0.371-0.589C260.372,340.908,260.357,339.252,260.351,337.595z" />
					</g>
				</g>
			</g>
			<g>
				<g id="xsrjP0_2_">
					<g>
						<path style="fill-rule:evenodd;clip-rule:evenodd;fill:#D89CC7;" d="M244.556,318.823c-0.61-0.282-1.08-0.846-1.353-1.476        c-0.939-2.167-0.631-4.656-0.15-6.969c0.043-0.207,0.092-0.423,0.229-0.583c1.064-1.241,2.372-2.031,3.299-3.449        c0.608-0.93,1.052-1.959,1.362-3.024c0.251-0.862,0.106-2.705,0.585-3.391c1.382-1.98,2.57,2.094,2.683,3.041        c0.11,0.918-0.216,1.812-0.328,2.72c-0.082,0.665-0.235,1.322-0.358,1.995c0.162,0.117,0.351,0.055,0.525,0.057        c2.044-0.004,4.088-0.011,6.133-0.018c0.862-0.003,1.284,0.243,1.406,0.814c0.15,0.712-0.225,1.437-0.884,1.775        c-0.152,0.078-0.429,0.009-0.447,0.248c-0.017,0.244,0.267,0.218,0.408,0.316c0.742,0.505,0.608,1.553-0.246,2.161        c-0.205,0.145-0.605,0.08-0.614,0.382c-0.004,0.241,0.37,0.237,0.54,0.406c0.599,0.588,0.306,1.691-0.585,2.139        c-0.114,0.057-0.256,0.068-0.359,0.14c-0.101,0.069-0.201,0.145-0.003,0.284c0.887,0.63,0.871,1.51-0.018,2.155        c-0.087,0.063-0.176,0.128-0.266,0.192c-0.323,0.239-0.706,0.237-1.076,0.239c-3.206,0.017-6.411,0.026-9.617,0.034        C245.109,319.014,244.819,318.945,244.556,318.823z" />
						<path style="fill-rule:evenodd;clip-rule:evenodd;fill:#D89CC7;" d="M237.561,314.425c-0.005-1.537-0.006-3.076-0.019-4.612        c-0.003-0.313,0.018-0.466,0.276-0.463c1.262,0.019,2.521,0.014,3.782-0.011c0.247-0.005,0.286,0.122,0.286,0.449        c0.003,3.094,0.012,6.188,0.032,9.282c0.003,0.393-0.069,0.505-0.335,0.5c-1.223-0.016-2.447-0.017-3.669,0.016        c-0.304,0.008-0.347-0.15-0.345-0.547C237.58,317.5,237.566,315.964,237.561,314.425z" />
					</g>
				</g>
			</g>
			<g>
				<g>
					<g>
						
							<line style="fill:none;stroke:#000000;stroke-width:0.5;stroke-linecap:round;stroke-miterlimit:10;" x1="296.99" y1="85.171" x2="300.473" y2="90.057" />
						
							<line style="fill:none;stroke:#000000;stroke-width:0.5;stroke-linecap:round;stroke-miterlimit:10;stroke-dasharray:12.7709,5.3212;" x1="303.561" y1="94.39" x2="344.021" y2="151.154" />
						<polyline style="fill:none;stroke:#000000;stroke-width:0.5;stroke-linecap:round;stroke-miterlimit:10;" points="        345.565,153.321 349.048,158.207 344.911,162.553       " />
						
							<line style="fill:none;stroke:#000000;stroke-width:0.5;stroke-linecap:round;stroke-miterlimit:10;stroke-dasharray:11.9672,4.9863;" x1="341.473" y1="166.165" x2="273.062" y2="238.04" />
						
							<line style="fill:none;stroke:#000000;stroke-width:0.5;stroke-linecap:round;stroke-miterlimit:10;" x1="271.343" y1="239.846" x2="267.206" y2="244.192" />
					</g>
				</g>
				<g>
					<g>
						
							<line style="fill:none;stroke:#000000;stroke-width:0.5;stroke-linecap:round;stroke-miterlimit:10;" x1="349.048" y1="158.207" x2="343.054" y2="157.938" />
						
							<polyline style="fill:none;stroke:#000000;stroke-width:0.5;stroke-linecap:round;stroke-miterlimit:10;stroke-dasharray:11.6607,4.8587;" points="        338.2,157.721 244.933,153.545 135.614,106.625       " />
						
							<line style="fill:none;stroke:#000000;stroke-width:0.5;stroke-linecap:round;stroke-miterlimit:10;" x1="133.382" y1="105.667" x2="127.868" y2="103.3" />
					</g>
				</g>
				<g>
					<g>
						
							<line style="fill:none;stroke:#000000;stroke-width:0.5;stroke-linecap:round;stroke-miterlimit:10;" x1="43.437" y1="210.523" x2="49.208" y2="208.883" />
						
							<line style="fill:none;stroke:#000000;stroke-width:0.5;stroke-linecap:round;stroke-miterlimit:10;stroke-dasharray:12.5107,5.2128;" x1="54.222" y1="207.457" x2="239.244" y2="154.862" />
						<polyline style="fill:none;stroke:#000000;stroke-width:0.5;stroke-linecap:round;stroke-miterlimit:10;" points="        241.751,154.15 247.523,152.509 248.642,158.404       " />
						
							<line style="fill:none;stroke:#000000;stroke-width:0.5;stroke-linecap:round;stroke-miterlimit:10;stroke-dasharray:10.9836,4.5765;" x1="249.496" y1="162.9" x2="263.587" y2="237.085" />
						
							<line style="fill:none;stroke:#000000;stroke-width:0.5;stroke-linecap:round;stroke-miterlimit:10;" x1="264.014" y1="239.333" x2="265.134" y2="245.228" />
					</g>
				</g>
				<g>
					<g>
						
							<line style="fill:none;stroke:#000000;stroke-width:0.5;stroke-linecap:round;stroke-miterlimit:10;" x1="205.307" y1="326.811" x2="208.11" y2="332.116" />
						
							<line style="fill:none;stroke:#000000;stroke-width:0.5;stroke-linecap:round;stroke-miterlimit:10;stroke-dasharray:12.8123,5.3384;" x1="210.604" y1="336.835" x2="251.76" y2="414.714" />
						
							<line style="fill:none;stroke:#000000;stroke-width:0.5;stroke-linecap:round;stroke-miterlimit:10;" x1="253.007" y1="417.074" x2="255.81" y2="422.379" />
					</g>
				</g>
				<g>
					<g>
						
							<line style="fill:none;stroke:#000000;stroke-width:0.5;stroke-linecap:round;stroke-miterlimit:10;" x1="300.875" y1="78.955" x2="306.329" y2="81.456" />
						
							<line style="fill:none;stroke:#000000;stroke-width:0.5;stroke-linecap:round;stroke-miterlimit:10;stroke-dasharray:12.1459,5.0608;" x1="310.929" y1="83.565" x2="433.754" y2="139.888" />
						<polyline style="fill:none;stroke:#000000;stroke-width:0.5;stroke-linecap:round;stroke-miterlimit:10;" points="        436.054,140.943 441.508,143.444 441.548,149.444       " />
						
							<line style="fill:none;stroke:#000000;stroke-width:0.5;stroke-linecap:round;stroke-miterlimit:10;stroke-dasharray:11.8123,4.9218;" x1="441.58" y1="154.366" x2="442.229" y2="252.307" />
						<polyline style="fill:none;stroke:#000000;stroke-width:0.5;stroke-linecap:round;stroke-miterlimit:10;" points="        442.245,254.768 442.285,260.768 436.288,260.566       " />
						
							<line style="fill:none;stroke:#000000;stroke-width:0.5;stroke-linecap:round;stroke-miterlimit:10;stroke-dasharray:11.487,4.7862;" x1="431.505" y1="260.405" x2="271.256" y2="255.023" />
						<polyline style="fill:none;stroke:#000000;stroke-width:0.5;stroke-linecap:round;stroke-miterlimit:10;" points="        268.864,254.943 262.867,254.741 258.631,258.99       " />
						
							<polyline style="fill:none;stroke:#000000;stroke-width:0.5;stroke-linecap:round;stroke-miterlimit:10;stroke-dasharray:11.4356,4.7649;" points="        255.267,262.365 205.221,312.566 136.5,335.782       " />
						
							<line style="fill:none;stroke:#000000;stroke-width:0.5;stroke-linecap:round;stroke-miterlimit:10;" x1="134.243" y1="336.545" x2="128.559" y2="338.465" />
					</g>
				</g>
				<g>
					<g>
						
							<line style="fill:none;stroke:#000000;stroke-width:0.5;stroke-linecap:round;stroke-miterlimit:10;" x1="127.178" y1="346.753" x2="132.451" y2="349.616" />
						
							<line style="fill:none;stroke:#000000;stroke-width:0.5;stroke-linecap:round;stroke-miterlimit:10;stroke-dasharray:11.3601,4.7334;" x1="136.611" y1="351.874" x2="247.68" y2="412.171" />
						<polyline style="fill:none;stroke:#000000;stroke-width:0.5;stroke-linecap:round;stroke-miterlimit:10;" points="        249.76,413.3 255.033,416.163 259.667,412.351       " />
						
							<line style="fill:none;stroke:#000000;stroke-width:0.5;stroke-linecap:round;stroke-miterlimit:10;stroke-dasharray:12.0245,5.0102;" x1="263.536" y1="409.168" x2="432.609" y2="270.056" />
						
							<line style="fill:none;stroke:#000000;stroke-width:0.5;stroke-linecap:round;stroke-miterlimit:10;" x1="434.544" y1="268.465" x2="439.177" y2="264.652" />
					</g>
				</g>
				<g>
					<g>
						
							<line style="fill:none;stroke:#000000;stroke-width:0.5;stroke-linecap:round;stroke-miterlimit:10;" x1="258.918" y1="256.883" x2="253.049" y2="255.638" />
						
							<line style="fill:none;stroke:#000000;stroke-width:0.5;stroke-linecap:round;stroke-miterlimit:10;stroke-dasharray:12.2166,5.0902;" x1="248.069" y1="254.583" x2="47.393" y2="212.036" />
						<polyline style="fill:none;stroke:#000000;stroke-width:0.5;stroke-linecap:round;stroke-miterlimit:10;" points="        44.903,211.509 39.034,210.264 42.794,205.589       " />
						
							<line style="fill:none;stroke:#000000;stroke-width:0.5;stroke-linecap:round;stroke-miterlimit:10;stroke-dasharray:12.1552,5.0647;" x1="45.969" y1="201.643" x2="119.931" y2="109.69" />
						<polyline style="fill:none;stroke:#000000;stroke-width:0.5;stroke-linecap:round;stroke-miterlimit:10;" points="        121.518,107.717 125.278,103.041 131.246,102.42       " />
						
							<line style="fill:none;stroke:#000000;stroke-width:0.5;stroke-linecap:round;stroke-miterlimit:10;stroke-dasharray:12.2005,5.0835;" x1="136.302" y1="101.894" x2="288.494" y2="86.055" />
						<polyline style="fill:none;stroke:#000000;stroke-width:0.5;stroke-linecap:round;stroke-miterlimit:10;" points="        291.022,85.792 296.99,85.171 291.594,87.794       " />
						
							<line style="fill:none;stroke:#000000;stroke-width:0.5;stroke-linecap:round;stroke-miterlimit:10;stroke-dasharray:11.7843,4.9101;" x1="287.177" y1="89.94" x2="49.142" y2="205.619" />
						
							<line style="fill:none;stroke:#000000;stroke-width:0.5;stroke-linecap:round;stroke-miterlimit:10;" x1="46.934" y1="206.692" x2="41.537" y2="209.314" />
					</g>
				</g>
				<g>
					<circle style="fill:#9CABFC;" cx="126.508" cy="336.039" r="6.681" />
					<path style="fill:#9CABFC;" d="M139.609,352.033c-2.025-5.262-7.125-8.998-13.101-8.998c-5.976,0-11.076,3.736-13.101,8.998       H139.609z" />
				</g>
				<g>
					<circle style="fill:#9CABFC;" cx="442.349" cy="246.971" r="8.684" />
					<path style="fill:#9CABFC;" d="M459.378,267.76c-2.633-6.84-9.262-11.696-17.029-11.696c-7.767,0-14.397,4.856-17.029,11.696       H459.378z" />
				</g>
				<g>
					<circle style="fill:#9CABFC;" cx="263.667" cy="241.43" r="8.684" />
					<path style="fill:#9CABFC;" d="M280.696,262.219c-2.633-6.84-9.262-11.696-17.029-11.696s-14.397,4.856-17.029,11.696H280.696z       " />
				</g>
				<g>
					
						<ellipse transform="matrix(0.6352 -0.7724 0.7724 0.6352 63.2151 388.387)" style="fill:#9CABFC;" cx="442.738" cy="127.277" rx="9.675" ry="9.675" />
					<path style="fill:#9CABFC;" d="M461.709,150.437c-2.933-7.62-10.318-13.03-18.972-13.03c-8.653,0-16.039,5.41-18.972,13.03       H461.709z" />
				</g>
				<g>
					
						<ellipse transform="matrix(0.7071 -0.7071 0.7071 0.7071 -25.3001 214.1928)" style="fill:#9CABFC;" cx="245.904" cy="137.636" rx="9.675" ry="9.675" />
					<path style="fill:#9CABFC;" d="M264.875,160.797c-2.933-7.62-10.318-13.03-18.972-13.03c-8.653,0-16.039,5.41-18.972,13.03       H264.875z" />
				</g>
				<g>
					<circle style="fill:#9CABFC;" cx="128.062" cy="87.822" r="9.278" />
					<path style="fill:#9CABFC;" d="M146.257,110.034c-2.813-7.308-9.896-12.496-18.195-12.496s-15.382,5.188-18.195,12.496H146.257       z" />
				</g>
				<g>
					<ellipse style="fill:#9CABFC;" cx="42.629" cy="208.258" rx="9.007" ry="8.699" />
					<path style="fill:#9CABFC;" d="M60.291,229.084c-2.73-6.852-9.606-11.716-17.662-11.716c-8.056,0-14.932,4.865-17.662,11.716       H60.291z" />
				</g>
				<g>
					
						<ellipse transform="matrix(0.1598 -0.9872 0.9872 0.1598 -135.9372 463.8847)" style="fill:#9CABFC;" cx="204.53" cy="311.796" rx="8.403" ry="8.403" />
					<path style="fill:#9CABFC;" d="M221.008,331.912c-2.547-6.619-8.962-11.318-16.479-11.318c-7.516,0-13.931,4.699-16.479,11.318       H221.008z" />
				</g>
				<g>
					
						<ellipse transform="matrix(0.7071 -0.7071 0.7071 0.7071 39.8696 231.0753)" style="fill:#9CABFC;" cx="298.867" cy="67.411" rx="9.476" ry="9.476" />
					<path style="fill:#9CABFC;" d="M317.451,90.097c-2.873-7.464-10.107-12.763-18.583-12.763c-8.476,0-15.71,5.299-18.583,12.763       H317.451z" />
				</g>
				<g>
					
						<ellipse transform="matrix(0.7071 -0.7071 0.7071 0.7071 -222.1505 302.3106)" style="fill:#9CABFC;" cx="253.846" cy="419.315" rx="9.719" ry="9.719" />
					<path style="fill:#9CABFC;" d="M272.904,442.58c-2.946-7.655-10.365-13.089-19.058-13.089c-8.693,0-16.112,5.434-19.058,13.089       H272.904z" />
				</g>
				<g>
					<circle style="fill:#9CABFC;" cx="348.076" cy="151.144" r="8.684" />
					<path style="fill:#9CABFC;" d="M365.105,171.933c-2.633-6.84-9.262-11.696-17.029-11.696s-14.397,4.856-17.029,11.696H365.105z       " />
				</g>
			</g>
			<g>
				
					<ellipse transform="matrix(0.7071 -0.7071 0.7071 0.7071 -20.8964 329.4983)" style="fill:none;stroke:#000000;stroke-width:0.5;stroke-linecap:round;stroke-miterlimit:10;" cx="387.291" cy="189.973" rx="15.151" ry="15.151" />
				<path style="fill:#D47172;stroke:#000000;stroke-width:0.5;stroke-miterlimit:10;" d="M389.794,184.445      c-1.444,0.436-2.505,2.475-2.505,2.475s-1.07-2.021-2.516-2.433c-4.187-1.192-6.058,2.584-4.455,6.069      c1.546,3.362,6.995,7.406,6.995,7.406s5.431-4.135,6.962-7.523C395.863,186.928,393.976,183.183,389.794,184.445z" />
			</g>
			<g>
				
					<circle style="fill:none;stroke:#000000;stroke-width:0.5;stroke-linecap:round;stroke-miterlimit:10;" cx="287.703" cy="130.906" r="13.709" />
				<path style="fill:#D47172;stroke:#000000;stroke-width:0.5;stroke-miterlimit:10;" d="M290.198,125.304      c-1.438,0.434-2.494,2.464-2.494,2.464s-1.065-2.012-2.505-2.422c-4.168-1.187-6.031,2.573-4.435,6.042      c1.539,3.347,6.964,7.374,6.964,7.374s5.406-4.117,6.931-7.49C296.24,127.775,294.361,124.047,290.198,125.304z" />
			</g>
			<g>
				
					<circle style="fill:none;stroke:#000000;stroke-width:0.5;stroke-linecap:round;stroke-miterlimit:10;" cx="104.266" cy="383.048" r="13.709" />
				<path style="fill:#D47172;stroke:#000000;stroke-width:0.5;stroke-miterlimit:10;" d="M107.192,376.323      c-1.683,0.508-2.92,2.884-2.92,2.884s-1.247-2.356-2.932-2.836c-4.88-1.389-7.06,3.012-5.192,7.073      c1.802,3.918,8.152,8.632,8.152,8.632s6.329-4.819,8.114-8.767C114.265,379.217,112.065,374.852,107.192,376.323z" />
			</g>
			<g>
				<g>
					<g>
						
							<ellipse transform="matrix(0.1928 -0.9812 0.9812 0.1928 48.7852 450.0048)" style="fill:#5F76E8;stroke:#000000;stroke-width:0.5;stroke-miterlimit:10;" cx="297.897" cy="195.352" rx="27.065" ry="27.065" />
						<path style="fill:#FFFFFF;" d="M297.24,187.851c-0.062,1.722-0.021,3.464-0.021,5.33h6.724        c-0.287,2.214-0.533,4.264-0.861,6.293c-0.021,0.205-0.533,0.451-0.82,0.471c-1.619,0.041-3.239,0.021-5.002,0.021v22.425        c-2.48-0.041-4.858-0.43-7.133-1.107v-21.277h-5.883v-6.765h5.76c0.021-0.513,0.062-0.923,0.062-1.312        c0.041-1.783-0.021-3.567,0.143-5.33c0.369-3.874,2.747-6.6,6.58-7.133c2.378-0.328,4.858-0.061,7.359-0.061v6.15        c-0.881,0-1.783-0.02-2.665,0c-0.779,0.021-1.599-0.02-2.357,0.164C298.039,185.965,297.281,186.703,297.24,187.851z" />
					</g>
					<path style="fill:#5F76E8;stroke:#000000;stroke-width:0.5;stroke-miterlimit:10;" d="M321.561,203.443       c-1.382,3.485-3.567,6.649-6.337,9.176" />
					<path style="fill:#5F76E8;stroke:#000000;stroke-width:0.5;stroke-miterlimit:10;" d="M313.809,214.055       c-1.104,0.849-2.208,1.699-3.312,2.548" />
					<path style="fill:#5F76E8;stroke:#000000;stroke-width:0.5;stroke-miterlimit:10;" d="M315.552,209.937       c-0.37,0.567-0.862,1.054-1.434,1.417" />
					<path style="fill:#5F76E8;stroke:#000000;stroke-width:0.5;stroke-miterlimit:10;" d="M320.912,196.952       c-0.206,2.378-0.74,4.727-1.582,6.96" />
				</g>
				<g>
					<g>
						
							<ellipse transform="matrix(0.2272 -0.9738 0.9738 0.2272 149.0473 578.5705)" style="fill:#D47172;stroke:#000000;stroke-width:0.5;stroke-miterlimit:10;" cx="439.066" cy="195.375" rx="26.29" ry="26.29" />
						<g>
							<g>
								<path style="fill:#FFFFFF;" d="M454.743,186.713c-0.018-4.267-2.682-7.026-6.913-7.066c-5.852-0.059-11.707-0.063-17.558,0          c-4.139,0.044-6.821,2.785-6.884,6.916c-0.04,2.921-0.007,5.844-0.007,8.765c0,2.858-0.018,5.72,0.004,8.578          c0.036,4.362,2.697,7.151,7.015,7.195c5.79,0.063,11.583,0.066,17.372,0c4.234-0.047,6.946-2.833,6.968-7.048          C454.772,198.273,454.768,192.491,454.743,186.713z M451.944,204.103c-0.03,2.697-1.483,4.191-4.183,4.209          c-5.789,0.036-11.578,0.036-17.368,0c-2.712-0.015-4.179-1.504-4.194-4.191c-0.026-5.84-0.026-11.681,0-17.521          c0.011-2.675,1.507-4.212,4.179-4.231c5.789-0.04,11.579-0.04,17.368,0c2.679,0.018,4.168,1.548,4.198,4.216          c0.033,2.921,0.007,5.841,0.007,8.761C451.951,198.262,451.977,201.183,451.944,204.103z" />
								<path style="fill:#FFFFFF;" d="M439.084,187.145c-4.465-0.011-8.128,3.616-8.172,8.102c-0.044,4.538,3.47,8.197,7.96,8.285          c4.6,0.088,8.311-3.495,8.354-8.073C447.274,190.877,443.633,187.156,439.084,187.145z M438.981,200.795          c-2.917-0.059-5.343-2.5-5.372-5.394c-0.029-2.986,2.434-5.442,5.46-5.442c3.019,0,5.489,2.456,5.463,5.439          C444.507,198.357,441.942,200.853,438.981,200.795z" />
								<path style="fill:#FFFFFF;" d="M449.715,186.95c-0.087,1.149-0.824,1.749-1.954,1.695c-1.241-0.058-1.874-0.82-1.782-2.042          c0.085-1.146,0.831-1.676,1.976-1.742C449.119,185.059,449.806,185.721,449.715,186.95z" />
							</g>
						</g>
					</g>
					<path style="fill:none;stroke:#000000;stroke-width:0.5;stroke-miterlimit:10;" d="M450.301,217.593       c4.4-2.589,8.019-6.486,10.274-11.066" />
					<path style="fill:none;stroke:#000000;stroke-width:0.5;stroke-miterlimit:10;" d="M461.105,204.653       c0.496-0.916,0.847-1.911,1.036-2.935" />
					<path style="fill:none;stroke:#000000;stroke-width:0.5;stroke-miterlimit:10;" d="M459.372,203.615       c-0.373,1.238-0.958,2.411-1.721,3.455" />
					<path style="fill:none;stroke:#000000;stroke-width:0.5;stroke-miterlimit:10;" d="M462.517,191.696       c0.377,1.58,0.414,3.24,0.108,4.835" />
					<path style="fill:none;stroke:#000000;stroke-width:0.5;stroke-miterlimit:10;" d="M417.396,185.992       c-2.177,4.209-2.778,9.211-1.66,13.816" />
				</g>
				<g>
					<circle style="fill:#A8DCA4;stroke:#000000;stroke-width:0.5;stroke-miterlimit:10;" cx="181.938" cy="378.986" r="26.255" />
					<path style="fill:#FFFFFF;" d="M192.059,389.48c-0.296,0.506-0.828,0.788-1.374,0.788c-0.273,0-0.549-0.07-0.801-0.217       c-4.179-2.442-9.007-2.835-12.321-2.734c-3.672,0.112-6.365,0.837-6.391,0.844c-0.846,0.231-1.721-0.267-1.953-1.113       c-0.232-0.846,0.264-1.72,1.11-1.954c0.121-0.033,3.019-0.82,7.048-0.953c2.373-0.078,4.658,0.087,6.79,0.492       c2.7,0.512,5.164,1.412,7.322,2.673C192.246,387.748,192.502,388.722,192.059,389.48z" />
					<path style="fill:#FFFFFF;" d="M195.015,383.34c-0.35,0.599-0.98,0.934-1.628,0.934c-0.323,0-0.65-0.083-0.949-0.258       c-4.95-2.893-10.668-3.358-14.595-3.238c-4.349,0.132-7.539,0.991-7.571,1c-1.002,0.273-2.039-0.316-2.314-1.319       c-0.275-1.002,0.313-2.038,1.315-2.314c0.144-0.04,3.576-0.972,8.349-1.129c2.811-0.093,5.518,0.103,8.043,0.582       c3.199,0.607,6.117,1.672,8.673,3.166C195.237,381.288,195.54,382.442,195.015,383.34z" />
					<path style="fill:#FFFFFF;" d="M196.832,377.757c-0.396,0-0.797-0.102-1.164-0.316c-11.768-6.877-27.033-2.789-27.186-2.746       c-1.23,0.339-2.502-0.384-2.841-1.614c-0.339-1.23,0.383-2.502,1.614-2.841c0.176-0.048,4.386-1.192,10.241-1.385       c3.449-0.113,6.768,0.127,9.866,0.714c3.923,0.744,7.502,2.051,10.638,3.883c1.102,0.644,1.473,2.059,0.829,3.16       C198.399,377.347,197.626,377.757,196.832,377.757z" />
					<path style="fill:none;stroke:#000000;stroke-width:0.5;stroke-miterlimit:10;" d="M165.428,362.388       c-0.99,1.219-1.981,2.438-2.972,3.657" />
					<path style="fill:none;stroke:#000000;stroke-width:0.5;stroke-miterlimit:10;" d="M159.918,369.921       c-2.778,6.069-2.453,13.463,0.847,19.265" />
					<path style="fill:none;stroke:#000000;stroke-width:0.5;stroke-miterlimit:10;" d="M163.544,394.206       c1.258,1.624,2.663,3.134,4.191,4.505" />
				</g>
				<g>
					
						<ellipse transform="matrix(0.0821 -0.9966 0.9966 0.0821 -113.3325 644.8082)" style="fill:#D47172;stroke:#000000;stroke-width:0.5;stroke-miterlimit:10;" cx="293.399" cy="383.932" rx="26.015" ry="26.015" />
					<path style="fill:#FFFFFF;" d="M293.398,369.316c-8.069,0-14.634,6.557-14.634,14.616c0,8.059,6.565,14.616,14.634,14.616       c8.07,0,14.635-6.556,14.635-14.616C308.033,375.873,301.468,369.316,293.398,369.316L293.398,369.316z M303.028,376.215       c1.669,2.069,2.684,4.682,2.731,7.529c-0.556-0.114-2.908-0.552-5.719-0.552c-0.907,0-1.862,0.046-2.819,0.164       c-0.081-0.197-0.162-0.392-0.247-0.59c-0.248-0.584-0.516-1.163-0.793-1.734C300.508,379.249,302.595,376.775,303.028,376.215       L303.028,376.215z M293.398,371.604c3.118,0,5.969,1.158,8.146,3.067c-0.345,0.47-2.214,2.807-6.385,4.383       c-1.931-3.53-4.045-6.453-4.548-7.131C291.508,371.715,292.44,371.604,293.398,371.604L293.398,371.604z M288.088,372.802       c0.426,0.587,2.543,3.541,4.524,7.043c-5.316,1.397-10.036,1.488-11.175,1.488h-0.121       C282.134,377.561,284.682,374.427,288.088,372.802L288.088,372.802z M281.035,383.951c0-0.102,0.002-0.203,0.005-0.305       c0.074,0.001,0.183,0.001,0.325,0.001c1.534,0,6.86-0.127,12.348-1.755c0.333,0.651,0.65,1.313,0.945,1.974       c-0.139,0.04-0.275,0.079-0.411,0.124c-6.18,1.996-9.576,7.279-10.099,8.143C282.212,389.951,281.035,387.087,281.035,383.951       L281.035,383.951z M293.398,396.298c-2.836,0-5.452-0.96-7.541-2.571c0.353-0.693,2.917-5.308,9.689-7.665       c0.004-0.002,0.009-0.003,0.014-0.004c1.698,4.421,2.417,8.131,2.615,9.281C296.705,395.957,295.091,396.298,293.398,396.298       L293.398,396.298z M300.401,394.121c-0.166-0.951-0.832-4.429-2.37-8.67c0.862-0.134,1.701-0.187,2.488-0.187       c2.584,0,4.605,0.566,5.075,0.709C305.037,389.342,303.108,392.256,300.401,394.121L300.401,394.121z" />
					<path style="fill:none;stroke:#000000;stroke-width:0.5;stroke-miterlimit:10;" d="M300.823,406.444       c2.501-0.436,4.873-1.593,6.755-3.297" />
					<path style="fill:none;stroke:#000000;stroke-width:0.5;stroke-miterlimit:10;" d="M284.307,405.025       c3.531,2.351,9.486,3.073,13.619,2.121" />
					<path style="fill:none;stroke:#000000;stroke-width:0.5;stroke-miterlimit:10;" d="M285.905,361.678       c-2.438,0.373-4.75,1.529-6.511,3.256" />
					<path style="fill:none;stroke:#000000;stroke-width:0.5;stroke-miterlimit:10;" d="M309.404,401.541       c0.38-0.312,0.717-0.678,0.997-1.082" />
				</g>
				<g>
					<circle style="fill:#D89CC7;stroke:#000000;stroke-width:0.5;stroke-miterlimit:10;" cx="210.125" cy="83.076" r="26.699" />
					<path style="fill:#FFFFFF;" d="M223.989,80c-0.273,0.027-0.547,0.04-0.822,0.042c-3.009,0-5.816-1.517-7.465-4.034v13.738       c0,5.608-4.546,10.154-10.154,10.154c-5.608,0-10.154-4.546-10.154-10.154c0-5.608,4.546-10.154,10.154-10.154l0,0       c0.212,0,0.419,0.019,0.628,0.032v5.004c-0.208-0.025-0.413-0.063-0.628-0.063c-2.862,0-5.182,2.32-5.182,5.182       c0,2.862,2.32,5.182,5.182,5.182c2.863,0,5.391-2.255,5.391-5.118l0.05-23.332h4.787c0.451,4.293,3.913,7.645,8.217,7.96V80" />
					<path style="fill:none;stroke:#000000;stroke-width:0.5;stroke-miterlimit:10;" d="M217.751,106.187       c4.599-1.496,8.664-4.584,11.339-8.613" />
					<path style="fill:none;stroke:#000000;stroke-width:0.5;stroke-miterlimit:10;" d="M231.238,94.252       c0.96-1.908,1.727-3.914,2.284-5.977" />
					<path style="fill:none;stroke:#000000;stroke-width:0.5;stroke-miterlimit:10;" d="M189.969,71.407       c-2.954,4.541-4.048,10.253-2.983,15.563" />
					<path style="fill:none;stroke:#000000;stroke-width:0.5;stroke-miterlimit:10;" d="M187.816,90.614       c0.044,1.335,0.368,2.661,0.944,3.866" />
					<path style="fill:none;stroke:#000000;stroke-width:0.5;stroke-miterlimit:10;" d="M189.1,82.064       c0.011,1.474,0.159,2.948,0.441,4.395" />
				</g>
				<g>
					<circle style="fill:#A8DCA4;stroke:#000000;stroke-width:0.5;stroke-miterlimit:10;" cx="375.097" cy="104.281" r="29.047" />
					<g id="_x32_dqxSk.tif_1_">
						<g>
							<path style="fill:#FFFFFF;" d="M363.715,89.054c0.04,0.013,0.08,0.034,0.121,0.037c0.891,0.067,1.661,0.406,2.295,1.037         c0.566,0.563,0.921,1.243,1.036,2.035c0.196,1.344-0.219,2.476-1.231,3.378c-0.493,0.439-1.08,0.701-1.731,0.823         c-0.336,0.063-0.676,0.076-1.012,0.045c-1.55-0.142-2.775-1.226-3.169-2.599c-0.072-0.25-0.122-0.504-0.134-0.765         c-0.002-0.05,0.008-0.11-0.06-0.132c0-0.106,0-0.211,0-0.317c0.064-0.025,0.055-0.082,0.06-0.134         c0.011-0.105,0.015-0.21,0.032-0.314c0.117-0.717,0.409-1.353,0.902-1.889c0.659-0.715,1.48-1.099,2.449-1.168         c0.042-0.003,0.082-0.024,0.123-0.036C363.503,89.054,363.609,89.054,363.715,89.054z" />
							<path style="fill:#FFFFFF;" d="M376.773,101.86c0.031-0.041,0.063-0.08,0.092-0.123c0.311-0.456,0.661-0.879,1.068-1.254         c0.85-0.783,1.836-1.312,2.958-1.587c0.54-0.132,1.09-0.192,1.645-0.223c0.375-0.022,0.749-0.015,1.121,0.013         c1.083,0.081,2.136,0.291,3.118,0.775c1.009,0.498,1.778,1.251,2.336,2.226c0.353,0.616,0.587,1.278,0.775,1.958         c0.129,0.467,0.221,0.942,0.285,1.422c0.032,0.24,0.046,0.482,0.061,0.723c0.028,0.448,0.05,0.896,0.075,1.344         c0,0.013,0.001,0.026,0.002,0.039c0.011,0.427,0.029,0.854,0.032,1.281c0.01,1.431,0.018,2.862,0.02,4.293         c0.003,2.162,0.001,4.324,0.001,6.487c0,0.241-0.01,0.252-0.255,0.252c-0.916,0.001-1.832,0-2.748,0         c-0.854,0.001-1.709,0.001-2.563,0.004c-0.136,0-0.272,0.012-0.408,0.018c-0.022,0.001-0.044,0.001-0.066,0         c-0.303-0.016-0.307-0.086-0.307-0.312c0.002-1.793,0.003-3.585,0.003-5.377c0-1.779,0-3.559-0.007-5.338         c-0.003-0.675-0.062-1.345-0.26-1.995c-0.116-0.381-0.263-0.747-0.488-1.078c-0.391-0.574-0.935-0.919-1.61-1.065         c-0.25-0.054-0.503-0.087-0.759-0.081c-0.272,0.006-0.547-0.002-0.816,0.031c-1.196,0.147-2.082,0.736-2.574,1.86         c-0.212,0.483-0.335,0.99-0.407,1.511c-0.077,0.555-0.103,1.112-0.103,1.671c0,3.259,0,6.518,0,9.777         c0,0.075,0.003,0.15-0.003,0.224c-0.009,0.1-0.052,0.14-0.152,0.146c-0.057,0.004-0.114,0.003-0.172,0.003         c-1.039,0-2.078,0-3.118,0.001c-0.656,0-1.312,0-1.968,0.004c-0.193,0.001-0.387,0.012-0.58,0.018         c-0.026,0.001-0.053,0.002-0.079-0.001c-0.257-0.026-0.277-0.092-0.274-0.282c0.001-0.097,0.001-0.194,0.001-0.291         c0.001-4.294,0.001-8.588,0.001-12.882c0-2.167-0.001-4.333-0.001-6.5c0-0.058-0.001-0.115,0.001-0.172         c0.006-0.144,0.058-0.194,0.203-0.204c0.035-0.002,0.071-0.002,0.106-0.002c1.823,0,3.646,0,5.469,0         c0.035,0,0.071,0,0.106,0.002c0.139,0.008,0.193,0.054,0.194,0.196c0.002,0.246-0.01,0.493-0.01,0.739         c0,0.361,0.004,0.722,0.007,1.083c0.001,0.172,0.003,0.343,0.005,0.515c0.001,0.047,0.004,0.093,0.005,0.14         C376.747,101.853,376.76,101.857,376.773,101.86z" />
							<path style="fill:#FFFFFF;" d="M360.372,109.321c0-3.285,0-6.571,0-9.856c0-0.057,0-0.115,0.008-0.171         c0.009-0.068,0.048-0.112,0.123-0.112c0.048,0,0.097-0.004,0.145-0.004c1.924-0.001,3.849-0.001,5.773-0.002         c0.013,0,0.027,0,0.04,0c0.222,0.003,0.279,0.058,0.279,0.285c0.001,0.744,0,1.488,0,2.233c0,5.813,0,11.626,0,17.439         c0,0.07-0.003,0.141-0.015,0.21c-0.014,0.081-0.063,0.138-0.15,0.143c-0.149,0.008-0.298,0.012-0.447,0.015         c-0.057,0.001-0.114-0.011-0.171-0.011c-1.616-0.001-3.232-0.001-4.848,0c-0.127,0-0.255,0.012-0.382,0.018         c-0.026,0.001-0.053,0.003-0.079,0c-0.214-0.024-0.278-0.048-0.278-0.291C360.372,115.918,360.371,112.62,360.372,109.321         C360.371,109.321,360.372,109.321,360.372,109.321z" />
						</g>
					</g>
					<path style="fill:none;stroke:#000000;stroke-width:0.5;stroke-miterlimit:10;" d="M381.002,130.133       c4.403-0.748,8.579-2.783,11.88-5.791" />
					<path style="fill:none;stroke:#000000;stroke-width:0.5;stroke-miterlimit:10;" d="M394.134,122.832       c0.978-1.036,1.957-2.072,2.936-3.108" />
					<path style="fill:none;stroke:#000000;stroke-width:0.5;stroke-miterlimit:10;" d="M354.565,87.409       c-1.053,1.287-1.976,2.681-2.75,4.153" />
					<path style="fill:none;stroke:#000000;stroke-width:0.5;stroke-miterlimit:10;" d="M350.216,95.34       c-1.795,4.034-2.365,8.604-1.616,12.955" />
				</g>
				<g>
					<circle style="fill:#5F76E8;stroke:#000000;stroke-width:0.5;stroke-miterlimit:10;" cx="82.405" cy="148.91" r="27.998" />
					<g>
						<path style="fill:#FFFFFF;" d="M67.117,162.05c3.724,0.071,7.068-0.834,10.087-3.109c-4.173-1.267-5.836-2.541-6.443-4.913        c0.936-0.046,1.867-0.092,2.799-0.138c-3.293-1.264-5.228-3.477-5.481-7.09c1.009,0.267,1.945,0.515,2.881,0.762        c-3.022-3.801-3.633-6.749-1.829-9.501c3.905,4.458,8.763,6.989,14.797,7.4c-0.027-0.472-0.054-0.826-0.067-1.181        c-0.119-3.116,1.188-5.471,3.964-6.844c2.768-1.369,5.46-1.002,7.862,0.949c0.534,0.434,0.981,0.552,1.587,0.325        c1.124-0.422,2.253-0.828,3.492-1.282c-0.517,1.5-1.486,2.615-2.746,3.522c0.026,0.068,0.053,0.135,0.079,0.203        c1.153-0.296,2.307-0.592,3.46-0.888c0.046,0.046,0.092,0.092,0.138,0.137c-0.894,0.9-1.75,1.842-2.696,2.683        c-0.496,0.442-0.754,0.836-0.752,1.543c0.03,10.562-7.94,19.349-18.425,20.291c-4.232,0.38-8.266-0.383-12.015-2.452        C67.573,162.338,67.347,162.19,67.117,162.05z" />
					</g>
					<path style="fill:none;stroke:#000000;stroke-width:0.5;stroke-miterlimit:10;" d="M106.128,158.415       c-1.823,4.675-5.133,8.757-9.331,11.506" />
					<path style="fill:none;stroke:#000000;stroke-width:0.5;stroke-miterlimit:10;" d="M97.671,167.325       c-0.934,0.6-1.868,1.2-2.802,1.8" />
					<path style="fill:none;stroke:#000000;stroke-width:0.5;stroke-miterlimit:10;" d="M107.255,144.117       c0.7,2.646,0.647,5.487-0.15,8.105" />
					<path style="fill:none;stroke:#000000;stroke-width:0.5;stroke-miterlimit:10;" d="M70.133,126.747       c-3.044,1.057-5.727,3.122-7.529,5.793" />
				</g>
			</g>
		</g>
		<g style="clip-path:url(#SVGID_00000097476864548400221740000005987842994534517176_);">
			<g>
				<path style="fill:#FFFFFF;stroke:#222221;stroke-width:0.5;stroke-miterlimit:10;" d="M320.997,340.059      c-0.095,1.788,0.659,3.467,1.978,5.048c2.12,2.539,4.24,5.079,6.36,7.618c5.749,6.886,6.036,17.328,12.93,23.337      c3.546,3.09,8.001,4.904,12.387,6.605c4.386,1.701,8.87,3.384,12.577,6.28c0.698,0.545,1.487,1.168,2.362,1.028      c1.11-0.177,1.641-1.44,1.929-2.527c1.414-5.327,1.473-10.483,1.3-15.938c-0.141-4.44,0.625-8.733,0.108-13.258      c-1.128-9.864-5.246-19.221-10.582-27.508c-2.833-4.4-6.09-8.616-10.118-11.991c-4.457-3.736-8.596-5.79-14.544-5.648      c-2.934,0.07-5.946,0.875-8.167,2.793c-3.824,3.303-4.426,8.869-5.498,13.807c-0.619,2.852-1.479,5.651-2.568,8.359      C321.179,338.745,321.032,339.409,320.997,340.059z" />
				<path style="fill:#FFFFFF;stroke:#222221;stroke-width:0.5;stroke-miterlimit:10;" d="M380.583,344.598      c-1.044,1.598-2.014,3.08-2.906,4.398c-7.716,11.402-17.973,26.809-7.253,38.639c16.915,18.666,49.815,28.438,73.877,31.43      c5.421,0.674,11,1.078,15.971,3.343c3.61,1.645,6.719,4.195,9.775,6.725c10.515,8.706,22.816,17.124,31.587,27.592      c8.617,10.284,18.057,18.767,29.894,25.65c18.695,10.871,42.3,15.256,62.182,6.748c15.873-6.793,28.305-23.345,28.573-40.875      c0.319-20.871-21.983-30.969-37.772-40.039c-15.306-8.793-30.811-17.236-46.398-25.521      c-12.912-6.864-27.455-12.544-38.413-22.225c-16.443-14.528-33.861-31.487-53.891-40.99c-5.374-2.55-10.93-4.699-16.53-6.704      c-3.474-1.244-7.031-2.446-10.719-2.579C403.272,309.638,389.355,331.169,380.583,344.598z" />
				<path style="fill:#FFFFFF;stroke:#222221;stroke-width:0.5;stroke-miterlimit:10;" d="M300.185,282.743      c-4.192,0.993-8.03,4.9-7.358,9.155c0.389,2.461,2.187,4.517,4.312,5.818s4.57,1.96,6.977,2.603      c3.758,1.004,7.516,2.008,11.274,3.012c3.249,0.868,6.597,1.743,9.933,1.32c3.336-0.423,6.696-2.467,7.636-5.695      c0.389-1.336,0.339-2.77,0.058-4.132c-1.322-6.409-5.886-8.331-11.541-8.848C314.37,285.325,307.471,281.016,300.185,282.743z" />
				<g>
					<g>
						<path d="M379.848,396.72l57.966-17.194c6.245-1.853,9.09-8.079,6.353-13.907L377.76,224.22        c-2.737-5.828-10.019-9.05-16.264-7.198l-57.966,17.194c-6.246,1.852-9.09,8.079-6.353,13.907l66.407,141.399        C366.321,395.35,373.603,398.572,379.848,396.72z" />
					</g>
					<g>
						<path style="fill:#FFFFFF;" d="M379.065,392.193l61.914-18.365c3.61-1.071,5.254-4.669,3.672-8.038l-68.333-145.501        c-1.582-3.368-5.791-5.231-9.401-4.16l-61.914,18.365c-3.61,1.071-5.254,4.669-3.672,8.038l68.333,145.501        C371.246,391.401,375.455,393.263,379.065,392.193z" />
					</g>
					<path d="M333.451,232.956l10.521-3.121c0.433-0.128,0.63-0.56,0.44-0.963l0,0c-0.19-0.404-0.694-0.627-1.127-0.499       l-10.52,3.121c-0.433,0.128-0.63,0.56-0.44,0.964l0,0C332.514,232.861,333.018,233.084,333.451,232.956z" />
					<path d="M350.314,227.954L350.314,227.954c0.433-0.128,0.63-0.56,0.44-0.964l0,0c-0.19-0.404-0.694-0.627-1.127-0.499l0,0       c-0.433,0.128-0.63,0.56-0.44,0.964l0,0C349.376,227.859,349.881,228.082,350.314,227.954z" />
					<g>
						<path style="fill:#A8DCA4;" d="M326.223,305.371L326.223,305.371c0.849-0.252,1.236-1.098,0.864-1.891l-2.695-5.739        c-0.372-0.792-1.362-1.23-2.211-0.979l0,0c-0.849,0.252-1.236,1.098-0.864,1.891l2.695,5.739        C324.383,305.185,325.373,305.623,326.223,305.371z" />
					</g>
					<g>
						<path style="fill:#A8DCA4;" d="M313.482,278.242L313.482,278.242c0.849-0.252,1.236-1.098,0.864-1.891l-8.208-17.477        c-0.372-0.792-1.362-1.231-2.211-0.979l0,0c-0.849,0.252-1.236,1.099-0.864,1.891l8.208,17.477        C311.642,278.056,312.633,278.494,313.482,278.242z" />
					</g>
					<g>
						<path d="M312.643,278.491L312.643,278.491c0.849-0.252,1.236-1.098,0.864-1.891l-8.208-17.478        c-0.372-0.792-1.362-1.23-2.211-0.978l0,0c-0.849,0.252-1.236,1.098-0.864,1.891l8.208,17.477        C310.804,278.305,311.794,278.743,312.643,278.491z" />
					</g>
					<g>
						<path d="M325.384,305.62L325.384,305.62c0.849-0.252,1.236-1.099,0.864-1.891l-2.695-5.739        c-0.372-0.792-1.362-1.231-2.211-0.979l0,0c-0.849,0.252-1.236,1.098-0.864,1.891l2.695,5.739        C323.545,305.434,324.535,305.872,325.384,305.62z" />
					</g>
					<g>
						<path style="fill:#AFB3BC;" d="M331,315.545L331,315.545c0.849-0.252,1.236-1.098,0.864-1.891l-2.695-5.739        c-0.372-0.792-1.362-1.231-2.211-0.979l0,0c-0.849,0.252-1.236,1.098-0.864,1.891l2.695,5.739        C329.161,315.358,330.151,315.797,331,315.545z" />
					</g>
					<g>
						<path d="M330.162,315.793L330.162,315.793c0.849-0.252,1.236-1.098,0.864-1.891l-2.695-5.739        c-0.372-0.792-1.362-1.231-2.211-0.979l0,0c-0.849,0.252-1.236,1.099-0.864,1.891l2.695,5.739        C328.322,315.607,329.313,316.046,330.162,315.793z" />
					</g>
					<polygon style="fill:#D89CC7;stroke:#000000;stroke-width:0.5;stroke-miterlimit:10;" points="368.502,385.331        443.488,363.088 378.255,224.187 303.268,246.43      " />
					<g>
						<path style="fill:#A8DCA4;" d="M368.367,387.443l-67.53-143.792c-2.017-4.295,0.086-8.9,4.689-10.266l60.082-17.822        c4.603-1.365,9.988,1.018,12.006,5.313l67.53,143.792c2.017,4.295-0.087,8.9-4.689,10.266l-60.082,17.822        C375.77,394.122,370.385,391.738,368.367,387.443z M306.311,235.057c-3.616,1.072-5.268,4.69-3.683,8.063l67.53,143.792        c1.585,3.374,5.815,5.246,9.43,4.173l60.082-17.822c3.615-1.072,5.268-4.69,3.683-8.064l-67.53-143.791        c-1.584-3.374-5.815-5.246-9.43-4.174L306.311,235.057z" />
					</g>
					<g>
						<path style="fill:#A8DCA4;" d="M369.67,387.534l-67.825-144.42c-1.719-3.661,0.074-7.587,3.997-8.751l60.334-17.897        c3.924-1.164,8.515,0.868,10.234,4.529l67.826,144.42c1.719,3.661-0.074,7.587-3.997,8.751l-60.334,17.897        C375.98,393.227,371.389,391.195,369.67,387.534z M306.136,234.99c-3.553,1.054-5.177,4.609-3.62,7.925l67.825,144.42        c1.557,3.316,5.715,5.156,9.268,4.102l60.334-17.896c3.553-1.054,5.177-4.609,3.62-7.925l-67.825-144.42        c-1.557-3.316-5.715-5.156-9.268-4.102L306.136,234.99z" />
					</g>
					<g>
						<polygon style="fill:#F9F9F9;" points="440.388,359.361 368.467,381.289 307.023,251.789 378.945,229.861       " />
						<g>
							<path style="fill:#D89CC7;" d="M362.536,353.987c-0.366,0.231-0.435,0.826-0.435,0.826s-0.544-0.408-1.01-0.386         c-1.347,0.064-1.447,1.158-0.578,1.882c0.838,0.699,2.882,1.232,2.882,1.232s1.085-1.487,1.132-2.456         C364.577,354.081,363.596,353.317,362.536,353.987z" />
						</g>
						<g>
							<polygon style="fill:#D89CC7;stroke:#000000;stroke-width:0.5;stroke-miterlimit:10;" points="427.522,331.343          354.486,353.487 324.832,289.904 397.609,267.631        " />
						</g>
						<g>
							<g>
								<path style="opacity:0.2;fill:#DBE0FC;" d="M333.904,281.673c0.858,1.81-0.103,3.782-2.148,4.405          c-2.045,0.624-4.399-0.338-5.257-2.147c-0.859-1.809,0.103-3.782,2.148-4.405          C330.692,278.902,333.045,279.864,333.904,281.673z" />
							</g>
						</g>
						<g>
							<defs>
								<polygon id="SVGID_00000042727675218288272840000014627015672516180881_" points="440.388,359.361 368.467,381.289           307.023,251.789 378.945,229.861         " />
							</defs>
							<clipPath id="SVGID_00000135675513374865424850000015715648880309118128_">
								<use ns1:href="#SVGID_00000042727675218288272840000014627015672516180881_" style="overflow:visible;" />
							</clipPath>
							
								<polygon style="clip-path:url(#SVGID_00000135675513374865424850000015715648880309118128_);fill:#FFFFFF;stroke:#C2C2C2;stroke-width:0.25;stroke-miterlimit:10;" points="         393.658,257.147 319.282,279.823 310.853,262.058 385.229,239.382        " />
							<g style="clip-path:url(#SVGID_00000135675513374865424850000015715648880309118128_);">
								<g>
									<path style="fill:#DBE0FC;" d="M348.003,260.859c1.366,2.88-0.164,6.018-3.419,7.011c-3.254,0.992-7-0.538-8.366-3.417           s0.164-6.018,3.419-7.011C342.891,256.45,346.637,257.98,348.003,260.859z" />
								</g>
								<g>
									<path style="fill:#DBE0FC;" d="M363.973,255.99c1.366,2.88-0.164,6.018-3.419,7.011c-3.254,0.992-7-0.538-8.367-3.417           c-1.366-2.88,0.164-6.018,3.419-7.011S362.607,253.111,363.973,255.99z" />
								</g>
								<g>
									<path style="fill:#DBE0FC;" d="M379.943,251.121c1.366,2.88-0.164,6.018-3.419,7.011c-3.254,0.992-7-0.538-8.366-3.417           c-1.366-2.88,0.164-6.018,3.419-7.011C374.831,246.712,378.577,248.242,379.943,251.121z" />
								</g>
								<g>
									<path style="fill:#DBE0FC;" d="M395.914,246.252c1.366,2.88-0.164,6.018-3.419,7.011c-3.254,0.992-7-0.538-8.366-3.417           c-1.366-2.88,0.164-6.018,3.419-7.011S394.547,243.372,395.914,246.252z" />
								</g>
							</g>
						</g>
						<g>
							<g>
								<path style="fill:#DBE0FC;" d="M332.684,265.53c1.517,3.198-0.183,6.684-3.797,7.786c-3.614,1.102-7.774-0.597-9.291-3.795          c-1.517-3.198,0.183-6.684,3.797-7.786C327.007,260.633,331.167,262.332,332.684,265.53z" />
							</g>
							<g>
								<path style="fill:#5F76E8;" d="M334.753,268.397c0.379,0.799-0.046,1.671-0.949,1.946c-0.904,0.275-1.944-0.149-2.323-0.949          c-0.379-0.799,0.046-1.671,0.949-1.946C333.334,267.173,334.374,267.598,334.753,268.397z" />
							</g>
						</g>
						<g>
							<g>
								<path style="fill:none;stroke:#2D2D2D;stroke-width:0.5;stroke-miterlimit:10;" d="M387.652,366.553          c0.484,1.021-0.058,2.134-1.212,2.485c-1.154,0.352-2.482-0.191-2.966-1.212c-0.484-1.021,0.058-2.134,1.212-2.485          C385.839,364.99,387.167,365.533,387.652,366.553z" />
								
									<line style="fill:none;stroke:#2D2D2D;stroke-width:0.5;stroke-miterlimit:10;" x1="389.328" y1="369.367" x2="387.48" y2="368.4" />
							</g>
							<path style="fill:none;stroke:#2D2D2D;stroke-width:0.5;stroke-miterlimit:10;" d="M370.055,369.803l-1.405,2.521         l1.388,2.925l1.546-0.471l-0.725-1.528c-0.173-0.365,0.054-0.772,0.508-0.91c0.453-0.138,0.961,0.045,1.134,0.41l0.725,1.528         l1.358-0.414l-1.388-2.925L370.055,369.803z" />
							<g>
								<g>
									
										<line style="fill:none;stroke:#000000;stroke-width:0.5;stroke-miterlimit:10;" x1="400.081" y1="361.771" x2="401.405" y2="364.563" />
									
										<line style="fill:none;stroke:#000000;stroke-width:0.5;stroke-miterlimit:10;" x1="399.165" y1="363.648" x2="402.32" y2="362.686" />
								</g>
								<path style="fill:none;stroke:#2D2D2D;stroke-width:0.5;stroke-miterlimit:10;" d="M402.292,365.415l-0.843,0.257          c-1.251,0.381-2.69-0.207-3.215-1.313l-0.354-0.746c-0.525-1.107,0.063-2.313,1.314-2.694l0.843-0.257          c1.251-0.381,2.69,0.207,3.215,1.313l0.354,0.746C404.131,363.827,403.542,365.034,402.292,365.415z" />
							</g>
							<path style="fill:none;stroke:#2D2D2D;stroke-width:0.5;stroke-miterlimit:10;" d="M415.453,356.305         c-0.464,0.293-0.551,1.047-0.551,1.047s-0.69-0.517-1.28-0.489c-1.708,0.081-1.834,1.467-0.733,2.386         c1.063,0.886,3.654,1.562,3.654,1.562s1.375-1.885,1.435-3.113C418.041,356.424,416.797,355.456,415.453,356.305z" />
							<g>
								<path style="fill:#2D2D2D;" d="M431.18,352.804c0.317,0.669-0.038,1.398-0.794,1.628c-0.756,0.23-1.626-0.125-1.944-0.794          c-0.317-0.669,0.038-1.398,0.794-1.629C429.992,351.78,430.862,352.135,431.18,352.804z" />
								<path style="fill:#2D2D2D;" d="M433.837,355.546l-0.193-0.406c-0.366-0.771-1.369-1.181-2.24-0.915l-1.863,0.568          c-0.871,0.266-1.281,1.106-0.915,1.877l0.193,0.407L433.837,355.546z" />
							</g>
						</g>
						<g>
							<g>
								<path style="fill:none;stroke:#2D2D2D;stroke-width:0.5;stroke-miterlimit:10;" d="M316.694,253.148l-0.307-0.139          c-0.195-0.088-0.418-0.104-0.616-0.044l-0.175,0.053l-0.441,0.134l-0.175,0.053c-0.198,0.06-0.351,0.191-0.424,0.361          l-0.114,0.267c-0.072,0.17-0.226,0.3-0.424,0.361l-0.28,0.085c-0.39,0.119-0.573,0.495-0.409,0.84l1.152,2.428          c0.164,0.345,0.612,0.528,1.002,0.409l3.881-1.183c0.39-0.119,0.573-0.495,0.409-0.839l-1.152-2.428          c-0.164-0.345-0.612-0.528-1.002-0.409l-0.309,0.094C317.112,253.252,316.889,253.236,316.694,253.148z" />
								<path style="fill:none;stroke:#2D2D2D;stroke-width:0.5;stroke-miterlimit:10;" d="M317.752,255.162          c0.278,0.587-0.033,1.226-0.696,1.428c-0.663,0.202-1.426-0.11-1.705-0.696c-0.278-0.587,0.034-1.226,0.697-1.428          C316.71,254.264,317.473,254.575,317.752,255.162z" />
							</g>
							<g>
								<polygon style="fill:none;stroke:#2D2D2D;stroke-width:0.5;stroke-miterlimit:10;" points="371.231,236.34 376.563,234.709           375.389,239.416 373.895,237.308         " />
								
									<line style="fill:none;stroke:#2D2D2D;stroke-width:0.5;stroke-miterlimit:10;" x1="373.895" y1="237.308" x2="376.563" y2="234.709" />
							</g>
						</g>
					</g>
					<g>
						<path style="fill:none;stroke:#000000;stroke-width:0.5;stroke-miterlimit:10;" d="M368.367,387.443l-67.53-143.792        c-2.017-4.295,0.086-8.9,4.689-10.266l60.082-17.822c4.603-1.365,9.988,1.018,12.006,5.313l67.53,143.792        c2.017,4.295-0.087,8.9-4.689,10.266l-60.082,17.822C375.77,394.122,370.385,391.738,368.367,387.443z M306.311,235.057        c-3.616,1.072-5.268,4.69-3.683,8.063l67.53,143.792c1.585,3.374,5.815,5.246,9.43,4.173l60.082-17.822        c3.615-1.072,5.268-4.69,3.683-8.064l-67.53-143.791c-1.584-3.374-5.815-5.246-9.43-4.174L306.311,235.057z" />
					</g>
				</g>
				<path style="fill:#FFFFFF;stroke:#222221;stroke-width:0.5;stroke-miterlimit:10;" d="M495.119,356.422      c-12.71-11.449-16.744-30.133-27.895-43.105c-0.971-1.129-2.005-2.193-2.971-3.325c-2.98-3.489-6.896-6.02-10.697-8.59      c-13.611-9.204-26.453-19.545-38.349-30.879c-3.302-3.146-5.638-7.704-9.613-10.111c-2.127-1.288-4.996-1.671-7.053-0.275      c-1.043,0.708-1.774,1.79-2.346,2.912c-1.875,3.677-2.26,8.087-1.051,12.034c1.001,3.266,3.005,6.118,5.016,8.88      c7.896,10.846,26.216,19.704,27.806,34.135" />
				<path style="fill:#FFFFFF;stroke:#222221;stroke-width:0.5;stroke-miterlimit:10;" d="M346.359,365.86      c0.157-0.099,0.311-0.2,0.463-0.303c3.643-2.467,7.163-5.879,7.61-10.256c0.207-2.031-0.287-4.095-1.182-5.931      c-0.515-1.055-1.18-2.067-2.121-2.77c-1.677-1.252-4.005-1.33-6.005-0.715c-3.357,1.033-5.527,3.548-8.331,5.446      c-2.516,1.703-5.192,3.609-6.148,6.493c-0.994,2.997,0.273,6.491,2.73,8.475C337.252,369.432,342.504,368.29,346.359,365.86z" />
				<path style="fill:#FFFFFF;stroke:#222221;stroke-width:0.5;stroke-miterlimit:10;" d="M320.136,307.322      c0.756-1.555,1.692-3.22,3.316-3.815c1.757-0.644,3.716,0.205,5.215,1.326c2.454,1.837,4.326,4.51,4.953,7.511      c1.035,4.957-2.413,11.8-4.722,16.056c-0.699,1.288-1.529,2.61-2.843,3.257c-2.204,1.085-4.88-0.144-6.678-1.819      c-2.609-2.431-4.749-6.539-4.236-10.214C315.702,315.592,318.349,311,320.136,307.322z" />
				<path style="fill:#FFFFFF;stroke:#222221;stroke-width:0.5;stroke-miterlimit:10;" d="M340.333,341.189      c5.18-7.523,4.855-20.353-4.1-23.829c-1.425-0.553-3.068-0.783-4.464-0.16c-2.71,1.209-3.188,4.745-4.459,7.426      c-1.305,2.753-3.174,5.115-4.607,7.793c-0.856,1.6-1.662,3.255-2.016,5.035c-0.354,1.78-0.216,3.718,0.723,5.271" />
				<path style="fill:none;stroke:#222221;stroke-width:0.5;stroke-miterlimit:10;" d="M445.183,373.843      c2.332,3.163,5.026,6.058,8.015,8.61" />
				<path style="fill:none;stroke:#222221;stroke-width:0.5;stroke-miterlimit:10;" d="M330.644,318.116      c-0.197,1.63,0.388,3.338,1.545,4.505c1.123,1.132,2.227,1.606,1.54,3.189c-0.684,1.576-1.981,3.118-3.222,4.284      c-0.181,0.17-0.374,0.34-0.611,0.415c-0.236,0.074-0.492,0.046-0.734-0.009c-0.613-0.141-1.185-0.455-1.633-0.897      c-0.67-0.662-1.036-1.566-1.585-2.331" />
				<path style="fill:none;stroke:#222221;stroke-width:0.5;stroke-miterlimit:10;" d="M322.046,304.432      c-0.601,1.813-0.251,3.45,0.429,5.161c0.794,2-0.803,3.151-2.035,4.809c-0.228,0.307-0.518,0.646-0.9,0.635      c-0.213-0.006-0.405-0.125-0.572-0.256c-0.775-0.612-1.224-1.615-1.163-2.601" />
				<path style="fill:none;stroke:#222221;stroke-width:0.5;stroke-miterlimit:10;" d="M344.904,346.235      c0.033,2.502,0.568,3.888,1.384,6.253c0.039,0.113,0.078,0.239,0.031,0.35c-0.037,0.086-0.118,0.143-0.195,0.195      c-1.754,1.181-4.478,2.823-5.845,0.393c-0.639-1.137-1.066-2.394-1.251-3.685" />
				<path style="fill:none;stroke:#222221;stroke-width:0.5;stroke-miterlimit:10;" d="M409.147,289.281      c-0.716,0.392-1.156,1.238-1.066,2.049" />
				<path style="fill:none;stroke:#222221;stroke-width:0.5;stroke-miterlimit:10;" d="M406.27,290.523      c1.812-0.939,3.144-2.755,3.494-4.766" />
				<path style="fill:none;stroke:#222221;stroke-width:0.5;stroke-miterlimit:10;" d="M466.013,317.68      c3.079,3.416,5.724,7.222,7.851,11.299" />
				<path style="fill:none;stroke:#222221;stroke-width:0.5;stroke-miterlimit:10;" d="M474.827,330.913      c1.255,2.567,2.511,5.134,3.766,7.701" />
				<path style="fill:none;stroke:#222221;stroke-width:0.5;stroke-miterlimit:10;" d="M471.983,329.314      c0.403,0.748,0.806,1.496,1.209,2.245" />
				<path style="fill:none;stroke:#222221;stroke-width:0.5;stroke-miterlimit:10;" d="M397.196,266.114      c-0.875,3.605-0.474,7.506,1.116,10.857" />
				<path style="fill:none;stroke:#222221;stroke-width:0.5;stroke-miterlimit:10;" d="M399.111,278.555      c0.42,1.081,0.946,2.122,1.568,3.101" />
				<path style="fill:none;stroke:#222221;stroke-width:0.5;stroke-miterlimit:10;" d="M399.626,275.966      c0.346,0.806,0.692,1.611,1.038,2.417" />
				<path style="fill:none;stroke:#222221;stroke-width:0.5;stroke-miterlimit:10;" d="M353.458,352.977      c-0.292,3.263-2.102,6.358-4.803,8.212" />
				<path style="fill:none;stroke:#222221;stroke-width:0.5;stroke-miterlimit:10;" d="M373.394,386.124      c2.937-0.917,5.873-1.834,8.81-2.751" />
				<path style="fill:none;stroke:#222221;stroke-width:0.5;stroke-miterlimit:10;" d="M384.956,382.479      c0.691-0.229,1.382-0.459,2.073-0.688" />
				<path style="fill:none;stroke:#222221;stroke-width:0.5;stroke-miterlimit:10;" d="M381.681,385.257      c0.691-0.115,1.381-0.23,2.072-0.345" />
				<path style="fill:none;stroke:#222221;stroke-width:0.5;stroke-miterlimit:10;" d="M402.385,336.713      c1.118-0.667,2.361-1.121,3.645-1.334" />
				<path style="fill:none;stroke:#222221;stroke-width:0.5;stroke-miterlimit:10;" d="M420.701,331.209      c-3.798,1.039-7.595,2.079-11.393,3.118" />
				<path style="fill:none;stroke:#222221;stroke-width:0.5;stroke-miterlimit:10;" d="M305.294,237.564      c-1.579,1.647-1.688,4.491-0.24,6.254" />
				<path style="fill:none;stroke:#222221;stroke-width:0.5;stroke-miterlimit:10;" d="M313.825,294.955      c-0.691,0.863-1.381,1.727-2.072,2.59" />
				<path style="fill:none;stroke:#222221;stroke-width:0.5;stroke-miterlimit:10;" d="M310.875,299.918      c0.944-0.635,1.804-1.395,2.551-2.253" />
				<path style="fill:none;stroke:#222221;stroke-width:0.5;stroke-miterlimit:10;" d="M339.986,341.441      c-1.814-0.037-3.628-0.074-5.442-0.112" />
				<path style="fill:none;stroke:#222221;stroke-width:0.5;stroke-miterlimit:10;" d="M341.581,328.355      c0.389,1.727,0.181,3.583-0.579,5.182" />
				<path style="fill:none;stroke:#222221;stroke-width:0.5;stroke-miterlimit:10;" d="M418.199,409.17      c1.813,0.518,3.626,1.036,5.439,1.554" />
			</g>
			<path style="fill:#A8DCA4;stroke:#000000;stroke-width:0.5;stroke-miterlimit:10;" d="M386.3,320.838     c-1.468,1.81-2.866,3.786-3.315,6.073c-0.449,2.286,0.29,4.953,2.295,6.141c2.833,1.678,6.547-0.336,8.453-3.022     c1.906-2.685,2.818-6,4.876-8.57c1.904-2.379,4.656-3.95,6.636-6.266c1.98-2.317,2.988-6.044,0.943-8.303     c-1.323-1.461-3.547-1.81-5.47-1.375C394.541,306.915,390.088,316.166,386.3,320.838z" />
			<path style="fill:#FFFFFF;stroke:#222221;stroke-width:0.5;stroke-miterlimit:10;" d="M383.53,312.505     c-0.061-0.981,0.088-1.972,0.779-3.133c0.937-1.574,2.539-2.738,4.326-3.143c1.184-0.268,4.238,0.179,4.449-1.317     c0.152-1.072-1.496-2.016-2.266-2.324c-2.899-1.158-6.261-1.729-9.294-2.519c-9.717-2.531-19.648-7.702-29.165-1.722     c-3.048,1.915-10.53,8.838-2.976,10.889c2.362,0.641,4.834-0.194,7.237-0.659c3.01-0.583,7.493-1.011,10.529-0.168     c3.876,1.077,7.413,5.57,10.375,8.139c1.002,0.869,2.068,1.77,3.37,2.025c1.302,0.254,2.884-0.413,3.147-1.713     c0.052-0.257,0.053-0.524,0.028-0.796C383.944,314.733,383.6,313.626,383.53,312.505z" />
			<path style="fill:#FFFFFF;stroke:#222221;stroke-width:0.5;stroke-miterlimit:10;" d="M411.378,319.517     c-2.14-1.535-6.857-1.357-9.051-2.639c-3.947-2.307-4.617-7.645-9.69-8.136c-1.771-0.171-3.812,0.512-4.485,2.159     c-0.609,1.489,0.085,3.162,0.769,4.618c2.711,5.771,13.598,21.841,21.699,14.483c2.599-2.36,3.278-6.571,1.554-9.63     C411.983,320.038,411.712,319.757,411.378,319.517z" />
			<path style="fill:#D47172;stroke:#000000;stroke-width:0.5;stroke-miterlimit:10;" d="M367.748,328.784     c-3.927,6.281-13.135,4.777-15.216-2.3c-1.991-6.771,5.018-15.022,10.771-17.337c6.191-2.492,11.112-6.78,12.027-13.966     c0.182-1.428,0.18-2.905,0.698-4.248c0.473-1.224,1.348-2.252,2.299-3.157c2.097-1.996,4.755-3.555,7.644-3.741     c2.889-0.186,5.982,1.245,7.193,3.875c1.604,3.483-0.519,7.678-3.52,10.065c-3.001,2.386-6.757,3.591-10.05,5.554     c-7.517,4.479-7.956,11.922-9.547,19.542C369.624,325.09,368.842,327.034,367.748,328.784z" />
			<path style="fill:#FFFFFF;stroke:#222221;stroke-width:0.5;stroke-miterlimit:10;" d="M336.302,299.388     c0.482,0.804,1.246,1.439,2.295,1.711c6.636,1.724,7.23-9.376,0.459-8.177C336.075,293.451,334.803,296.888,336.302,299.388z" />
		</g>
		<g style="clip-path:url(#SVGID_00000097476864548400221740000005987842994534517176_);">
			<path style="fill:#FFFFFF;" d="M217.463,233.581c-8.818,3.702-17.915,7.123-27.443,7.952c-4.694,0.408-10.64-0.704-11.862-5.255     c-0.809-3.012,0.968-6.085,2.93-8.509c8.179-10.103,20.394-15.906,32.182-21.383c6.613-3.073,26.095-6.624,29.537,3.278     C246.746,220.988,224.793,230.504,217.463,233.581z" />
			<path style="fill:none;stroke:#000000;stroke-width:0.5;stroke-linecap:round;stroke-miterlimit:10;" d="M217.463,233.581     c-8.818,3.702-17.915,7.123-27.443,7.952c-4.694,0.408-10.64-0.704-11.862-5.255c-0.809-3.012,0.968-6.085,2.93-8.509     c8.179-10.103,20.394-15.906,32.182-21.383c6.613-3.073,26.095-6.624,29.537,3.278     C246.746,220.988,224.793,230.504,217.463,233.581z" />
			<g>
				<path style="fill:#FFFFFF;" d="M209.562,239.069c0.681,1.325,1.096,2.78,1.137,4.354c0.123,4.664-0.958,9.2-2.069,13.697      c-1.13,4.578-2.605,11.013-7.714,12.47c-2.501,0.713-5.071,1.183-7.662,1.401c-3.009,0.253-6.225,0.115-8.761-1.526      c-2.536-1.641-4.019-5.206-2.498-7.814c0.976-1.673,2.862-2.553,4.321-3.827c3.27-2.858,4.2-7.467,5.31-11.667      c1.415-5.403,5.368-8.166,8.956-11.98c0.315-0.335,0.639-0.677,1.049-0.884c1.212-0.613,2.656,0.135,3.735,0.96      C207.099,235.576,208.598,237.193,209.562,239.069z" />
				<path style="fill:#FFFFFF;" d="M88.606,208.924c2.558-5.125,6.991-8.858,11.858-11.711c5.562-3.26,11.186-6.213,17.194-8.669      c2.228-0.911,4.643-1.78,6.992-1.256c2.378,0.53,4.23,2.404,5.601,4.418c1.732,2.547,2.903,5.419,3.774,8.361      c0.857,2.896,0.965,6.207,1.979,9.008c2.291,6.33,3.855,12.083,2.94,18.949c-0.306,2.293-0.846,4.571-1.821,6.669      c-1.751,3.768-4.797,6.757-7.829,9.597c-2.716,2.544-5.528,5.079-8.889,6.675c-3.029,1.439-6.386,2.054-9.726,2.354      c-11.078,0.997-22.709-1.536-31.511-8.337c-4.757-3.676-2.576-10.193-0.507-14.641C81.98,223.204,85.09,215.968,88.606,208.924z      " />
				<path style="fill:#FFFFFF;" d="M68.597,352.466c-2.862,2.608-5.56,5.403-8.032,8.442c-2.252,2.768-4.291,5.706-6.605,8.422      c-3.403,3.995-7.217,7.689-11.273,10.971c-3.833,3.103-6.463,7.888-9.539,11.756c-7.115,8.946-14.897,17.362-23.261,25.153      c-2.052,1.911-4.162,3.802-6.613,5.165c-2.592,1.441-5.494,2.248-8.419,2.738c-4.472,0.748-9.063,0.775-13.543,0.081      c-10.045-1.557-19.168-6.631-27.811-11.981c-4.637-2.87-9.226-5.86-13.335-9.445c-2.564-2.238-4.963-4.742-6.564-7.746      c-1.794-3.364-3.373-8.519-3.054-12.381c0.29-3.516,2.519-7.616,3.896-10.881c3.41-8.085,8.004-15.674,13.623-22.415      c13.535-16.241,32.099-26.896,49.446-38.489c16.772-11.209,33.127-22.784,47.884-36.513      c6.408-5.962,12.949-10.502,16.134-19.126c1.578-4.273,2.236-8.84,3.789-13.123c1.786-4.925,4.705-9.345,7.598-13.712      c2.387-3.604,4.774-7.208,7.161-10.812c4.008-6.052,8.125-12.223,13.891-16.633c1.133-0.866,2.441-1.704,4.094-0.732      c0.809,0.476,1.369,1.285,1.645,2.182c1.553,5.059,0.559,13.153,0.155,18.445c-0.501,6.565-1.596,13.08-1.743,19.672      c-0.134,5.992,0.926,10.763,2.899,16.256c2.125,5.915,2.679,12.434,4.138,18.53c2.104,8.788,5.955,16.201,13.165,21.781      c6.822,5.279,15.532-0.041,22.938-2.007c2.525-0.67,6.24-0.928,8.341-2.536c2.001-1.531,3.839-4.668,5.327-6.698      c2.327-3.174,9.336-12.73,14.044-7.318c0.666,0.766,1.084,1.707,1.329,2.692c1.056,4.248,4.523,14.465,1.021,18.672      c-1.196,1.437-2.806,2.459-4.388,3.456c-9.63,6.072-20.169,10.575-30.371,15.728c-6.504,3.285-13.562,5.2-20.597,6.969      c-6.894,1.733-14.609,2.913-20.698,6.612C85.974,339.285,76.636,345.139,68.597,352.466z" />
				<path style="fill:#FFFFFF;" d="M191.499,267.172c1.352,5.233,0.548,10.752-0.264,16.095c-0.334,2.198-0.713,4.504-2.089,6.25      c-1.133,1.439-2.824,2.329-4.537,2.975c-4.246,1.602-8.961,1.936-13.39,0.95c-3.082-0.686-6.39-2.428-7.055-5.515      c-0.423-1.965,0.346-3.97,1.101-5.833c1.271-3.136,2.541-6.271,3.812-9.407c2.23-5.503,5.517-12.908,11.679-15.1      C186.113,255.683,190.386,262.864,191.499,267.172z" />
				<g>
					<g>
						<path d="M112.841,319.833L63.482,285.19c-5.318-3.733-6.033-10.522-1.596-15.165l107.642-112.643        c4.437-4.643,12.344-5.38,17.662-1.648l49.358,34.644c5.318,3.733,6.033,10.522,1.596,15.165L130.503,318.186        C126.066,322.829,118.159,323.566,112.841,319.833z" />
					</g>
					<g>
						<path style="fill:#FFFFFF;" d="M115.018,315.801l-52.721-37.004c-3.074-2.157-3.487-6.082-0.922-8.765l110.765-115.911        c2.564-2.683,7.135-3.11,10.209-0.952l52.721,37.004c3.074,2.157,3.487,6.082,0.922,8.765L125.226,314.849        C122.662,317.533,118.091,317.959,115.018,315.801z" />
					</g>
					<path d="M208.656,179.696l-8.958-6.288c-0.368-0.259-0.418-0.729-0.111-1.051l0,0c0.307-0.322,0.855-0.373,1.224-0.114       l8.958,6.288c0.368,0.259,0.418,0.729,0.11,1.051l0,0C209.572,179.903,209.024,179.954,208.656,179.696z" />
					<path d="M194.297,169.618L194.297,169.618c-0.368-0.259-0.418-0.729-0.111-1.051l0,0c0.307-0.322,0.855-0.373,1.224-0.114l0,0       c0.368,0.259,0.418,0.729,0.11,1.051l0,0C195.213,169.825,194.665,169.876,194.297,169.618z" />
					<g>
						<path style="fill:#5F76E8;" d="M192.522,250.464L192.522,250.464c-0.723-0.507-0.82-1.43-0.217-2.062l4.369-4.572        c0.603-0.631,1.678-0.731,2.401-0.224l0,0c0.723,0.508,0.82,1.431,0.217,2.062l-4.369,4.572        C194.32,250.872,193.245,250.972,192.522,250.464z" />
					</g>
					<g>
						<path style="fill:#5F76E8;" d="M213.175,228.852L213.175,228.852c-0.723-0.507-0.82-1.431-0.217-2.062l13.305-13.923        c0.603-0.631,1.678-0.732,2.401-0.224l0,0c0.723,0.508,0.82,1.431,0.217,2.062l-13.305,13.923        C214.973,229.26,213.898,229.36,213.175,228.852z" />
					</g>
					<g>
						<path d="M213.889,229.354L213.889,229.354c-0.723-0.508-0.82-1.43-0.217-2.062l13.305-13.923        c0.603-0.631,1.678-0.731,2.401-0.224l0,0c0.723,0.508,0.82,1.431,0.217,2.062L216.29,229.13        C215.687,229.761,214.612,229.861,213.889,229.354z" />
					</g>
					<g>
						<path d="M193.236,250.965L193.236,250.965c-0.723-0.508-0.82-1.431-0.217-2.062l4.369-4.572        c0.603-0.631,1.678-0.732,2.401-0.224l0,0c0.723,0.507,0.82,1.431,0.217,2.062l-4.369,4.572        C195.035,251.373,193.96,251.473,193.236,250.965z" />
					</g>
					<g>
						<path style="fill:#AFB3BC;" d="M184.778,258.569L184.778,258.569c-0.723-0.508-0.82-1.431-0.217-2.062l4.369-4.572        c0.603-0.631,1.678-0.732,2.401-0.224l0,0c0.723,0.507,0.82,1.43,0.217,2.062l-4.369,4.572        C186.576,258.976,185.501,259.076,184.778,258.569z" />
					</g>
					<g>
						<path d="M185.492,259.07L185.492,259.07c-0.723-0.507-0.82-1.43-0.217-2.062l4.369-4.572c0.603-0.631,1.678-0.732,2.401-0.224        l0,0c0.723,0.508,0.82,1.431,0.217,2.062l-4.369,4.572C187.29,259.477,186.215,259.577,185.492,259.07z" />
					</g>
					<polygon style="fill:#D89CC7;" points="127.182,312.663 63.331,267.847 169.071,157.194 232.922,202.01      " />
					<g>
						<path style="fill:#5F76E8;" d="M113.602,315.919l-51.16-35.909c-3.919-2.751-4.448-7.773-1.178-11.194l109.463-114.549        c3.27-3.422,9.118-3.967,13.038-1.217l51.16,35.909c3.919,2.751,4.448,7.773,1.178,11.195L126.64,314.703        C123.37,318.125,117.521,318.671,113.602,315.919z M182.492,154.382c-3.079-2.161-7.673-1.732-10.241,0.956L62.788,269.887        c-2.568,2.688-2.153,6.632,0.925,8.793l51.161,35.909c3.079,2.161,7.673,1.732,10.241-0.955l109.463-114.549        c2.568-2.688,2.153-6.632-0.925-8.793L182.492,154.382z" />
					</g>
					<g>
						<path d="M114.265,315.412L62.89,279.353c-3.341-2.345-3.792-6.626-1.004-9.542l109.942-115.05        c2.787-2.917,7.773-3.382,11.114-1.037l51.375,36.059c3.341,2.345,3.792,6.626,1.004,9.542l-109.941,115.05        C122.592,317.292,117.606,317.758,114.265,315.412z M182.464,154.224c-3.026-2.124-7.541-1.702-10.065,0.939L62.458,270.212        c-2.524,2.641-2.116,6.518,0.91,8.642l51.375,36.059c3.026,2.124,7.541,1.703,10.065-0.939l109.941-115.05        c2.524-2.641,2.116-6.518-0.91-8.642L182.464,154.224z" />
					</g>
				</g>
				<g>
					<g>
						<path style="fill:#A8DCA4;stroke:#000000;stroke-width:0.5;stroke-miterlimit:10;" d="M208.7,220.927        c-3.835,3.781-10.43,4.363-14.731,1.301c-4.301-3.062-4.679-8.61-0.845-12.391c3.835-3.781,10.43-4.363,14.731-1.301        C212.156,211.599,212.535,217.147,208.7,220.927z" />
						<path style="fill:#FFFFFF;" d="M201.139,220.256c-0.221,0.069-0.454,0.031-0.616-0.085c-0.081-0.058-0.144-0.134-0.18-0.226        c-0.594-1.519-1.922-2.641-2.932-3.315c-1.119-0.746-2.109-1.126-2.119-1.13c-0.312-0.118-0.44-0.433-0.285-0.703        c0.155-0.27,0.533-0.393,0.846-0.275c0.045,0.017,1.112,0.424,2.343,1.24c0.725,0.481,1.359,1.007,1.884,1.562        c0.666,0.704,1.158,1.458,1.465,2.243C201.653,219.844,201.471,220.152,201.139,220.256z" />
						<path style="fill:#FFFFFF;" d="M203.64,219.279c-0.262,0.082-0.538,0.036-0.73-0.1c-0.096-0.068-0.171-0.159-0.213-0.268        c-0.703-1.8-2.277-3.128-3.473-3.927c-1.325-0.884-2.498-1.334-2.51-1.338c-0.37-0.14-0.521-0.513-0.338-0.833        c0.184-0.319,0.632-0.465,1.002-0.326c0.053,0.02,1.318,0.502,2.775,1.469c0.858,0.57,1.609,1.192,2.232,1.85        c0.788,0.834,1.372,1.728,1.735,2.657C204.248,218.792,204.033,219.156,203.64,219.279z" />
						<path style="fill:#FFFFFF;" d="M205.655,218.208c-0.117-0.084-0.209-0.195-0.262-0.328c-1.672-4.278-7.281-6.436-7.337-6.457        c-0.455-0.171-0.641-0.628-0.416-1.021c0.225-0.392,0.776-0.572,1.23-0.4c0.065,0.025,1.616,0.615,3.404,1.802        c1.053,0.699,1.974,1.462,2.738,2.27c0.967,1.023,1.683,2.119,2.128,3.259c0.157,0.4-0.108,0.848-0.59,0.999        C206.228,218.432,205.891,218.375,205.655,218.208z" />
					</g>
					<g>
						<path style="fill:#D47172;stroke:#000000;stroke-width:0.5;stroke-miterlimit:10;" d="M153.397,210.183        c-3.831,3.777-10.423,4.356-14.724,1.294c-4.301-3.062-4.683-8.607-0.852-12.383c3.831-3.777,10.423-4.356,14.724-1.294        C156.847,200.862,157.228,206.406,153.397,210.183z" />
						<path style="fill:#FFFFFF;" d="M149.506,200.796c-2.415-1.72-6.129-1.395-8.277,0.723c-2.149,2.118-1.931,5.241,0.484,6.961        c2.416,1.72,6.129,1.396,8.278-0.723C152.139,205.639,151.922,202.516,149.506,200.796L149.506,200.796z M150.55,204.662        c-0.052,0.9-0.445,1.803-1.19,2.561c-0.136-0.148-0.723-0.765-1.565-1.364c-0.272-0.193-0.57-0.385-0.887-0.558        c0.028-0.069,0.056-0.138,0.083-0.208c0.081-0.206,0.156-0.416,0.225-0.625C148.987,204.923,150.271,204.717,150.55,204.662        L150.55,204.662z M148.896,201.398c0.934,0.665,1.478,1.577,1.621,2.542c-0.228,0.05-1.411,0.266-3.08-0.209        c0.363-1.339,0.51-2.558,0.54-2.844C148.301,201.024,148.609,201.193,148.896,201.398L148.896,201.398z M146.987,200.581        c-0.029,0.245-0.183,1.473-0.523,2.815c-1.964-0.766-3.401-1.748-3.742-1.991l-0.036-0.026        C143.936,200.563,145.534,200.282,146.987,200.581L146.987,200.581z M141.903,202.008c0.027-0.027,0.055-0.053,0.083-0.079        c0.022,0.016,0.055,0.039,0.097,0.069c0.459,0.327,2.087,1.429,4.165,2.171c-0.074,0.242-0.155,0.484-0.243,0.72        c-0.052-0.019-0.104-0.038-0.156-0.055c-2.382-0.793-4.807-0.128-5.194-0.012        C140.656,203.836,141.067,202.832,141.903,202.008L141.903,202.008z M142.313,207.889c-0.849-0.604-1.376-1.415-1.572-2.283        c0.29-0.107,2.288-0.774,4.944,0.05c0.002,0,0.003,0.001,0.005,0.002c-0.67,1.524-1.444,2.652-1.692,2.997        C143.394,208.504,142.82,208.25,142.313,207.889L142.313,207.889z M144.989,208.809c0.204-0.286,0.932-1.342,1.602-2.784        c0.294,0.148,0.559,0.314,0.795,0.481c0.774,0.551,1.228,1.13,1.33,1.268C147.651,208.541,146.297,208.896,144.989,208.809        L144.989,208.809z" />
					</g>
					<g>
						<path style="fill:#A8DCA4;stroke:#000000;stroke-width:0.5;stroke-miterlimit:10;" d="M170.259,193.558        c-3.835,3.781-10.43,4.363-14.731,1.301c-4.301-3.062-4.679-8.61-0.845-12.391c3.835-3.781,10.43-4.363,14.731-1.301        C173.716,184.23,174.094,189.777,170.259,193.558z" />
					</g>
					<g>
						<path style="fill:#5F76E8;stroke:#000000;stroke-width:0.5;stroke-miterlimit:10;" d="M192.04,237.354        c-3.942,3.887-10.624,4.555-14.925,1.493c-4.301-3.062-4.592-8.696-0.65-12.582c3.942-3.887,10.624-4.555,14.925-1.493        C195.69,227.834,195.981,233.467,192.04,237.354z" />
					</g>
					<g>
						<path style="fill:#D47172;stroke:#000000;stroke-width:0.5;stroke-miterlimit:10;" d="M189.164,207.018        c-3.834,3.781-10.43,4.363-14.731,1.301c-4.301-3.062-4.679-8.61-0.845-12.39c3.835-3.781,10.43-4.363,14.731-1.301        C192.621,197.69,192.999,203.237,189.164,207.018z" />
						<g>
							<g>
								<path style="fill:#FFFFFF;" d="M188.308,202.524c1.122-1.115,1.061-2.395-0.181-3.298c-1.718-1.25-3.451-2.486-5.201-3.703          c-1.238-0.861-2.756-0.714-3.866,0.349c-0.783,0.752-1.546,1.52-2.317,2.281c-0.755,0.744-1.516,1.486-2.264,2.234          c-1.141,1.143-1.09,2.431,0.178,3.353c1.699,1.237,3.413,2.46,5.146,3.664c1.267,0.881,2.806,0.727,3.925-0.366          C185.264,205.541,186.79,204.034,188.308,202.524z M182.886,206.462c-0.721,0.696-1.546,0.778-2.351,0.214          c-1.725-1.212-3.439-2.432-5.145-3.663c-0.799-0.576-0.841-1.273-0.136-1.976c1.535-1.526,3.077-3.047,4.627-4.562          c0.71-0.694,1.559-0.779,2.355-0.22c1.725,1.211,3.44,2.432,5.145,3.663c0.789,0.57,0.826,1.282,0.13,1.983          c-0.762,0.767-1.54,1.522-2.312,2.283C184.431,204.943,183.667,205.708,182.886,206.462z" />
								<path style="fill:#FFFFFF;" d="M183.555,199.334c-1.32-0.945-3.363-0.773-4.56,0.386c-1.211,1.172-1.137,2.866,0.17,3.836          c1.339,0.993,3.385,0.843,4.607-0.34C184.996,202.033,184.9,200.296,183.555,199.334z M179.92,202.867          c-0.848-0.63-0.923-1.778-0.167-2.538c0.78-0.784,2.158-0.904,3.055-0.266c0.894,0.637,0.977,1.797,0.182,2.568          C182.201,203.398,180.782,203.506,179.92,202.867z" />
								<path style="fill:#FFFFFF;" d="M186.756,201.525c-0.329,0.281-0.706,0.282-1.026,0.029          c-0.352-0.277-0.338-0.609,0.011-0.908c0.328-0.281,0.689-0.261,1.046-0.037          C187.079,200.907,187.108,201.225,186.756,201.525z" />
							</g>
						</g>
					</g>
					<g>
						<path style="fill:#D89CC7;stroke:#000000;stroke-width:0.5;stroke-miterlimit:10;" d="M172.31,223.636        c-3.835,3.781-10.43,4.363-14.731,1.301c-4.301-3.062-4.679-8.61-0.845-12.391c3.835-3.781,10.43-4.363,14.731-1.301        C175.766,214.308,176.144,219.855,172.31,223.636z" />
						<path style="fill:#FFFFFF;" d="M169.366,220.182c-0.086-0.05-0.17-0.103-0.25-0.16c-0.878-0.625-1.302-1.597-1.128-2.585        l-3.572,3.522c-1.458,1.438-3.967,1.659-5.602,0.495c-1.636-1.165-1.78-3.274-0.321-4.712        c1.458-1.438,3.966-1.659,5.602-0.495l0,0c0.062,0.044,0.117,0.092,0.175,0.138l-1.301,1.283        c-0.054-0.05-0.104-0.102-0.167-0.146c-0.835-0.594-2.115-0.481-2.859,0.252c-0.744,0.734-0.671,1.811,0.164,2.405        c0.835,0.595,2.159,0.541,2.903-0.193l6.082-5.972l1.396,0.994c-0.985,1.194-0.847,2.773,0.327,3.748l-1.446,1.426" />
					</g>
				</g>
				<g>
					<g>
						<path style="fill:#D89CC7;stroke:#000000;stroke-width:0.5;stroke-miterlimit:10;" d="M174.469,255.158        c-3.835,3.781-10.43,4.363-14.731,1.301c-4.301-3.062-4.679-8.61-0.845-12.391c3.835-3.781,10.43-4.363,14.731-1.301        C177.926,245.83,178.304,251.377,174.469,255.158z" />
					</g>
					<g>
						<path style="fill:#A8DCA4;stroke:#000000;stroke-width:0.5;stroke-miterlimit:10;" d="M119.167,244.414        c-3.831,3.777-10.423,4.356-14.724,1.294c-4.301-3.062-4.683-8.607-0.852-12.383c3.83-3.777,10.423-4.356,14.723-1.294        C122.616,235.093,122.997,240.637,119.167,244.414z" />
					</g>
					<g>
						<path style="fill:#5F76E8;stroke:#000000;stroke-width:0.5;stroke-miterlimit:10;" d="M136.029,227.789        c-3.834,3.781-10.43,4.363-14.731,1.301c-4.301-3.062-4.679-8.61-0.845-12.391c3.834-3.781,10.43-4.363,14.731-1.301        C139.485,218.46,139.863,224.008,136.029,227.789z" />
						<path style="fill:#FFFFFF;" d="M129.976,220.212c-0.459,0.423-0.895,0.872-1.373,1.344l1.935,1.378        c-0.651,0.501-1.247,0.969-1.862,1.415c-0.059,0.048-0.269,0.005-0.357-0.049c-0.477-0.321-0.937-0.658-1.444-1.02        l-5.753,5.672c-0.703-0.518-1.288-1.104-1.769-1.742l5.458-5.382l-1.693-1.205l1.735-1.711l1.658,1.18        c0.137-0.126,0.254-0.221,0.354-0.319c0.469-0.443,0.909-0.906,1.408-1.319c1.1-0.904,2.484-1.107,3.723-0.456        c0.768,0.404,1.414,0.98,2.133,1.492l-1.578,1.555c-0.254-0.181-0.508-0.371-0.767-0.546c-0.229-0.154-0.455-0.333-0.72-0.441        C130.69,219.899,130.282,219.93,129.976,220.212z" />
					</g>
					<g>
						<path style="fill:#5F76E8;stroke:#000000;stroke-width:0.5;stroke-miterlimit:10;" d="M157.809,271.585        c-3.942,3.887-10.624,4.555-14.925,1.492c-4.301-3.062-4.592-8.696-0.65-12.582c3.942-3.887,10.624-4.555,14.925-1.493        C161.46,262.065,161.751,267.698,157.809,271.585z" />
						<g>
							<path style="fill:#FFFFFF;" d="M142.419,266.315c1.018,0.755,2.178,1.19,3.598,1.216c-0.838-1.145-0.976-1.794-0.54-2.511         c0.272,0.174,0.543,0.347,0.814,0.52c-0.594-0.97-0.568-1.909,0.283-2.868c0.213,0.267,0.41,0.514,0.607,0.762         c0.129-1.554,0.71-2.416,1.913-2.75c-0.05,1.894,0.656,3.492,2.229,4.791c0.113-0.124,0.196-0.218,0.282-0.31         c0.761-0.807,1.725-1.14,2.847-0.935c1.119,0.204,1.774,0.83,1.945,1.795c0.038,0.215,0.132,0.333,0.358,0.396         c0.42,0.117,0.838,0.238,1.298,0.369c-0.526,0.275-1.08,0.363-1.662,0.341c-0.01,0.022-0.02,0.044-0.03,0.067         c0.396,0.154,0.792,0.308,1.189,0.462c0.001,0.021,0.002,0.041,0.003,0.062c-0.478,0.049-0.956,0.116-1.434,0.141         c-0.251,0.013-0.423,0.061-0.602,0.239c-2.684,2.661-7.141,3.291-10.298,1.451c-1.274-0.743-2.201-1.733-2.717-2.996         C142.472,266.478,142.447,266.396,142.419,266.315z" />
						</g>
					</g>
					<g>
						<path style="fill:#FFFFFF;stroke:#222221;stroke-width:0.5;stroke-miterlimit:10;" d="M154.934,241.249        c-3.835,3.781-10.43,4.363-14.731,1.301c-4.301-3.062-4.679-8.61-0.845-12.391c3.834-3.781,10.43-4.363,14.731-1.301        C158.39,231.921,158.768,237.468,154.934,241.249z" />
					</g>
				</g>
				<path style="opacity:0.5;fill:#FFFFFF;" d="M120.694,300.358l-43.444-30.455c-2.081-1.459-2.361-4.317-0.605-6.168l0,0      c1.539-1.623,4.111-1.886,5.935-0.607l43.444,30.455c2.081,1.459,2.361,4.317,0.605,6.168l0,0      C125.089,301.374,122.518,301.637,120.694,300.358z" />
				<path style="fill:#FFFFFF;" d="M206.007,235.035c-0.424-0.292-0.858-0.573-1.29-0.85c-3.521-2.256-7.119-4.393-10.785-6.407      c-2.772-1.523-5.825-4.416-9.284-3.304c-2.217,0.713-3.544,3.046-3.971,5.336c-0.779,4.182,0.791,8.551,3.412,11.901      c2.708,3.46,6.779,5.433,10.285,7.936c0.084,0.06,0.172,0.125,0.209,0.222c0.052,0.137-0.016,0.287-0.083,0.417      c-0.716,1.381-3.618,5.731-4.522,6.998c-1.077,1.509,1.615,0.189,3.659-0.43c1.813-0.549,2.948-0.421,4.76-0.103      c2.286,0.401,6.019-0.784,7.943-2.003c1.078-0.683,2.082-1.564,2.611-2.726c1.858-4.079,2.878-11.126-0.332-14.766      C207.86,236.397,206.955,235.687,206.007,235.035z" />
				<path style="fill:#FFFFFF;" d="M169.685,253.725c-2.642-0.703-5.283-1.406-7.924-2.109c-1.075-0.286-2.223-0.571-3.279-0.224      c-1.162,0.382-1.963,1.459-2.45,2.581c-1.71,3.935-0.274,8.69,2.526,11.941c2.8,3.252,6.738,5.278,10.657,7.026      c4.053,1.807,9.375,3.906,9.927,5.967c0.433,1.615,2.865-1.716,4.059-2.887c3.649-3.582,10.93-12.372,4.972-16.947      c-3.116-2.393-9.041-2.835-12.757-3.823C173.504,254.741,171.594,254.233,169.685,253.725z" />
				<path style="fill:#FFFFFF;" d="M157.055,275.255c-1.564-0.29-3.14-0.528-4.701-0.762c-4.87-0.728-12.121,0.282-12.155,6.799      c-0.012,2.367,1.38,4.565,3.193,6.087c1.813,1.522,4.022,2.477,6.197,3.412c2.74,1.177,6.949,2.026,8.814,4.46      c2.28,2.977,2.499,7.322,7.307,7.591c2.531,0.141,4.896-1.589,6.124-3.806c1.228-2.217,1.499-4.837,1.474-7.372      c-0.037-3.732-0.688-7.526-2.464-10.808C168.981,277.416,160.584,275.909,157.055,275.255z" />
				<g>
					<path style="fill:#D47172;stroke:#000000;stroke-width:0.5;stroke-miterlimit:10;" d="M138.142,257.966       c-3.831,3.777-10.423,4.356-14.724,1.294c-4.301-3.062-4.682-8.607-0.852-12.383c3.83-3.777,10.423-4.356,14.723-1.294       C141.591,248.645,141.972,254.189,138.142,257.966z" />
					<path style="fill:#FFFFFF;" d="M134.251,248.579c-2.416-1.72-6.129-1.396-8.277,0.723c-2.149,2.118-1.931,5.241,0.484,6.961       c2.416,1.72,6.129,1.396,8.278-0.723C136.883,253.422,136.666,250.299,134.251,248.579L134.251,248.579z M135.294,252.445       c-0.052,0.9-0.445,1.803-1.19,2.561c-0.136-0.148-0.723-0.765-1.565-1.364c-0.271-0.193-0.569-0.385-0.887-0.558       c0.028-0.069,0.056-0.138,0.083-0.208c0.081-0.206,0.156-0.416,0.225-0.625C133.731,252.706,135.015,252.5,135.294,252.445       L135.294,252.445z M133.641,249.181c0.934,0.665,1.478,1.577,1.621,2.542c-0.228,0.05-1.411,0.266-3.08-0.209       c0.363-1.34,0.51-2.558,0.54-2.844C133.045,248.807,133.354,248.977,133.641,249.181L133.641,249.181z M131.731,248.364       c-0.029,0.245-0.183,1.473-0.523,2.815c-1.964-0.766-3.401-1.748-3.742-1.991l-0.036-0.026       C128.68,248.346,130.279,248.065,131.731,248.364L131.731,248.364z M126.648,249.791c0.027-0.027,0.055-0.053,0.083-0.079       c0.022,0.016,0.054,0.039,0.097,0.069c0.459,0.327,2.087,1.429,4.165,2.171c-0.074,0.242-0.155,0.484-0.243,0.72       c-0.052-0.019-0.104-0.038-0.156-0.055c-2.382-0.792-4.807-0.127-5.194-0.012C125.4,251.619,125.812,250.615,126.648,249.791       L126.648,249.791z M127.057,255.672c-0.849-0.604-1.376-1.415-1.572-2.283c0.29-0.107,2.288-0.774,4.944,0.05       c0.002,0.001,0.003,0.001,0.005,0.002c-0.67,1.524-1.444,2.653-1.692,2.997C128.138,256.287,127.564,256.033,127.057,255.672       L127.057,255.672z M129.734,256.592c0.204-0.285,0.932-1.341,1.602-2.784c0.294,0.148,0.559,0.313,0.795,0.481       c0.774,0.551,1.228,1.13,1.33,1.268C132.396,256.324,131.041,256.679,129.734,256.592L129.734,256.592z" />
				</g>
				<path style="fill:#FFFFFF;" d="M114.147,214c-1.788,1.406-3.512,2.895-5.164,4.459c-0.517,0.49-1.192,1.029-1.865,0.792      c-0.434-0.153-0.697-0.584-0.917-0.988c-2.006-3.677-3.472-7.646-4.355-11.741c-0.703-3.262-2.362-8.469,0.864-10.678      c3.6-2.464,8.231-4.118,12.198-5.922c4.416-2.008,8.984-3.463,13.47-5.261c4.074-1.634,8.561-0.474,12.869-0.079      c3.457,0.317,6.952,0.633,10.389,0.14c4.255-0.61,9.438-1.849,11.998,2.768c1.371,2.473,1.203,5.61,0.004,8.171      c-1.199,2.561-3.318,4.598-5.671,6.167c-5.924,3.953-13.611,5.146-20.454,3.175c-1.35-0.389-2.697-0.898-4.102-0.896      c-2.586,0.005-6.359,1.822-8.725,2.964C120.946,208.877,117.402,211.44,114.147,214z" />
				<path style="fill:none;stroke:#000000;stroke-width:0.5;stroke-miterlimit:10;" d="M169.393,272.94      c2.784,1.383,4.993,1.998,8.031,2.65" />
				<path style="fill:none;stroke:#000000;stroke-width:0.5;stroke-miterlimit:10;" d="M156.53,253.084      c-0.61,1.082,0.089,2.657,0.833,3.65c0.745,0.994,1.864,1.635,2.993,2.152c0.018,0.009,0.037,0.017,0.055,0.025      c3.133,1.424,6.876-0.272,7.907-3.555c0.147-0.469,0.284-0.941,0.411-1.416" />
				<path style="fill:none;stroke:#000000;stroke-width:0.5;stroke-miterlimit:10;" d="M155.68,275.935      c0.1,2.373-1.413,4.732-3.613,5.629c-2.2,0.897-4.931,0.271-6.52-1.496" />
				<path style="fill:none;stroke:#000000;stroke-width:0.5;stroke-miterlimit:10;" d="M195.744,229.342      c-0.348,1.752-2.032,3.048-3.805,3.266c-1.773,0.218-3.566-0.498-4.962-1.612c-1.396-1.114-2.446-2.599-3.392-4.115" />
				<path style="fill:none;stroke:#000000;stroke-width:0.5;stroke-miterlimit:10;" d="M187.551,258.153" />
				<path style="fill:none;stroke:#000000;stroke-width:0.5;stroke-miterlimit:10;" d="M192.086,270.931" />
				<path style="fill:none;stroke:#000000;stroke-width:0.5;stroke-miterlimit:10;" d="M190.598,247.143      c2.132,1.436,4.378,2.703,6.71,3.784" />
				<path style="fill:none;stroke:#000000;stroke-width:0.5;stroke-miterlimit:10;" d="M162.629,186.068      c-2.185,0.613-4.403,1.23-6.673,1.238c-2.27,0.008-4.637-0.67-6.208-2.307" />
			</g>
			<path style="fill:none;stroke:#000000;stroke-width:0.5;stroke-linecap:round;stroke-miterlimit:10;" d="M192.183,271.061     c0.359-0.017,0.716-0.041,1.071-0.071c2.591-0.218,5.161-0.688,7.662-1.401c5.109-1.457,6.584-7.892,7.714-12.47     c1.111-4.497,2.192-9.033,2.069-13.697c-0.006-0.22-0.036-0.433-0.056-0.648c-0.012-0.159-0.024-0.317-0.041-0.474     c-0.003-0.02-0.005-0.04-0.008-0.059c-0.215-1.905-0.817-3.667-1.976-4.983c-0.363-0.412-0.761-0.787-1.179-1.14     c-3.985-3.36-8.93-5.824-13.507-8.34c-2.772-1.523-5.825-4.416-9.284-3.304c-2.217,0.713-3.544,3.046-3.971,5.336     c-0.779,4.182,0.791,8.551,3.412,11.901c1.93,2.466,4.552,4.176,7.168,5.861" />
			<path style="fill:none;stroke:#000000;stroke-width:0.5;stroke-linecap:round;stroke-miterlimit:10;" d="M191.235,283.268     c1.004-6.611,1.545-14.442-0.808-20.834c-0.995-2.703-3.346-4.815-6.253-5.232c-2.926-0.886-6.318-1.303-8.76-1.953     c-1.91-0.508-3.82-1.017-5.729-1.525c-2.642-0.703-5.283-1.406-7.924-2.109c-1.075-0.286-2.223-0.571-3.279-0.224     c-1.162,0.382-1.963,1.459-2.45,2.581c-1.71,3.936-0.274,8.69,2.526,11.942c2.752,3.196,6.603,5.207,10.455,6.935     c-1.249,3.082-2.498,6.164-3.747,9.247c-0.755,1.863-1.524,3.868-1.101,5.833c0.665,3.086,3.973,4.828,7.055,5.515     c4.43,0.986,9.145,0.652,13.39-0.95c1.714-0.646,3.404-1.537,4.538-2.975C190.522,287.772,190.901,285.465,191.235,283.268z" />
			<path style="fill:#FFFFFF;" d="M157.055,275.255c-3.137-0.581-6.334-0.928-9.492-1.383c-1.143-0.164-2.331-0.325-3.432,0.021     c-1.463,0.46-2.537,1.766-3.095,3.194c-1.487,3.805-0.809,7.635,2.356,10.292c1.813,1.522,4.022,2.477,6.197,3.412     c2.74,1.177,6.949,2.026,8.814,4.46c2.28,2.977,2.499,7.322,7.307,7.591c2.531,0.141,4.896-1.589,6.124-3.806     c1.228-2.217,1.499-4.837,1.474-7.372c-0.037-3.732-0.688-7.526-2.464-10.808C168.981,277.416,160.584,275.909,157.055,275.255z" />
			<path style="fill:none;stroke:#000000;stroke-width:0.5;stroke-linecap:round;stroke-miterlimit:10;" d="M171.833,299.036     c1.228-2.217,1.499-4.837,1.474-7.372c-0.037-3.732-0.688-7.526-2.464-10.808c-1.862-3.44-10.259-4.948-13.789-5.602     c-3.478-0.644-7.032-1.274-10.557-1.589c-0.683-0.061-1.381-0.106-2.047,0.057c-1.12,0.275-2.032,1.122-2.636,2.105     c-0.95,1.546-1.607,3.643-1.617,5.464c-0.012,2.367,1.38,4.565,3.193,6.087c1.813,1.522,4.022,2.477,6.197,3.412" />
			<path style="fill:none;stroke:#000000;stroke-width:0.5;stroke-linecap:round;stroke-miterlimit:10;" d="M170.421,301.409     c-1.196,1.437-1.904,1.923-3.486,2.92c-9.63,6.072-20.169,10.575-30.371,15.728c-10.916,5.514-23.857,7.633-35.448,11.426     c-11.086,3.627-19.873,10.742-28.614,18.543c-19.027,16.981-34.541,37.379-51.259,56.523     c-9.133,10.459-19.152,20.912-32.159,25.772c-17.655,6.596-39.207,0.775-51.14-13.814c-11.933-14.589-13.365-36.867-3.398-52.863     c5.877-9.432,14.944-16.35,23.81-23.051c4.88,0,17.384-13.139,21.506-16.255c7.591-5.737,15.181-11.474,22.771-17.211     c14.509-10.966,29.44-21.392,42.761-33.785c6.408-5.962,12.949-10.502,16.134-19.126c1.578-4.273,2.236-8.84,3.789-13.123     c1.786-4.925,4.705-9.345,7.598-13.712c2.387-3.604,4.774-7.208,7.161-10.812c4.008-6.052,8.125-12.223,13.891-16.633" />
			<path style="fill:none;stroke:#000000;stroke-width:0.5;stroke-linecap:round;stroke-miterlimit:10;" d="M101.88,196.808     c0.636-0.365,1.273-0.725,1.912-1.081c0.094-0.076,0.179-0.157,0.284-0.227c2.004-1.345,4.34-2.432,6.695-3.439     c2.581-1.266,5.209-2.452,7.92-3.532c1.135-0.452,2.321-0.888,3.522-1.134c2.323-0.845,4.657-1.656,6.968-2.559     c3.985-1.556,8.389-0.415,12.614-0.013c3.39,0.322,6.818,0.644,10.184,0.186c4.168-0.568,9.242-1.738,11.774,2.729     c1.356,2.392,1.206,5.417,0.044,7.882c-2.154,4.568-7.314,7.858-11.957,9.376c-4.047,1.323-8.242,0.911-12.489,0.607     c-3.296-0.237-6.23-1.714-9.506-1.284" />
			<path style="fill:none;stroke:#000000;stroke-width:0.5;stroke-miterlimit:10;" d="M149.388,290.599     c3.395,1.672,7.096,3.39,10.815,2.688" />
			<path style="fill:none;stroke:#000000;stroke-width:0.5;stroke-miterlimit:10;" d="M153.599,274.621     c-0.28,1.073-0.6,2.136-0.959,3.185c-0.224,0.654-0.469,1.315-0.912,1.852c-0.745,0.903-1.967,1.344-3.176,1.443     c-2.663,0.219-5.237-1.01-7.643-2.203" />
			<path style="fill:none;stroke:#000000;stroke-width:0.5;stroke-linecap:round;stroke-miterlimit:10;" d="M134.687,202.504     c-3.074,1.28-6.147,2.56-9.221,3.84" />
			<path style="fill:none;stroke:#222221;stroke-width:0.5;stroke-miterlimit:10;" d="M92.041,331.645     c-2.187,1.266-4.374,2.532-6.561,3.799" />
			<path style="fill:none;stroke:#222221;stroke-width:0.5;stroke-miterlimit:10;" d="M80.98,338.191     c-5.761,4.042-11.187,8.563-16.203,13.499" />
			<path style="fill:none;stroke:#222221;stroke-width:0.5;stroke-miterlimit:10;" d="M84.787,333.021     c-1.735,0.68-3.368,1.617-4.829,2.773" />
			<path style="fill:none;stroke:#222221;stroke-width:0.5;stroke-miterlimit:10;" d="M46.458,280.883     c-2.763,2.187-5.525,4.374-8.288,6.561" />
			<path style="fill:none;stroke:#222221;stroke-width:0.5;stroke-miterlimit:10;" d="M186.95,261.945     c1.755,1.761,2.574,4.406,2.119,6.85" />
			<path style="fill:none;stroke:#222221;stroke-width:0.5;stroke-miterlimit:10;" d="M99.588,198.273     c-0.909,0.594-1.818,1.187-2.727,1.781" />
			<path style="fill:none;stroke:#222221;stroke-width:0.5;stroke-miterlimit:10;" d="M98.072,202.99     c-2.573,1.409-4.954,3.168-7.057,5.212" />
			<path style="fill:none;stroke:#222221;stroke-width:0.5;stroke-miterlimit:10;" d="M88.76,210.437     c-0.518,0.576-1.036,1.151-1.554,1.727" />
			<path style="fill:none;stroke:#222221;stroke-width:0.5;stroke-miterlimit:10;" d="M149.856,186.65     c0.998,0.66,2.132,1.115,3.31,1.327" />
			<path style="fill:none;stroke:#000000;stroke-width:0.5;stroke-linecap:round;stroke-miterlimit:10;" d="M208.587,239.961     c-0.895,0.36-1.724,0.883-2.434,1.536" />
			<path style="fill:none;stroke:#000000;stroke-width:0.5;stroke-linecap:round;stroke-miterlimit:10;" d="M208.583,241.5     c-0.529,0.155-1.012,0.465-1.373,0.882" />
			<path style="fill:none;stroke:#000000;stroke-width:0.5;stroke-linecap:round;stroke-miterlimit:10;" d="M189.077,270.868     c0,0.633,0,1.266,0,1.899" />
			<path style="fill:none;stroke:#000000;stroke-width:0.5;stroke-linecap:round;stroke-miterlimit:10;" d="M77.555,337.194     c-0.46,0.346-0.92,0.692-1.38,1.038" />
			<path style="fill:none;stroke:#000000;stroke-width:0.5;stroke-linecap:round;stroke-miterlimit:10;" d="M130.027,304.019     c1.496-1.612,2.993-3.223,4.489-4.835" />
			<path style="fill:none;stroke:#000000;stroke-width:0.5;stroke-linecap:round;stroke-miterlimit:10;" d="M66.787,271.968     c2.68,1.912,5.359,3.823,8.039,5.735" />
			<path style="fill:none;stroke:#000000;stroke-width:0.5;stroke-linecap:round;stroke-miterlimit:10;" d="M76.308,278.786     c0.526,0.567,1.15,1.043,1.836,1.4" />
			<path style="fill:none;stroke:#000000;stroke-width:0.5;stroke-linecap:round;stroke-miterlimit:10;" d="M72.437,277.871     c0.647,0.475,1.295,0.949,1.943,1.424" />
			<path style="fill:none;stroke:#000000;stroke-width:0.5;stroke-linecap:round;stroke-miterlimit:10;" d="M232.899,192.003     c0.905,0.775,1.871,1.659,2.029,2.84c0.163,1.216-0.583,2.348-1.294,3.348" />
		</g>
	</g>
</g>
</svg>